SplineFontDB: 3.2
FontName: kodiranje
FullName: kodiranje
FamilyName: kodiranje
Weight: Regular
Copyright: Copyright (c) 2020, mimosa
UComments: "2020-3-11: Created with FontForge (http://fontforge.org)"
Version: 001.000
ItalicAngle: 0
UnderlinePosition: -102
UnderlineWidth: 51
Ascent: 819
Descent: 205
InvalidEm: 0
LayerCount: 2
Layer: 0 0 "Back" 1
Layer: 1 0 "Fore" 0
XUID: [1021 996 806661679 25344]
StyleMap: 0x0000
FSType: 0
OS2Version: 0
OS2_WeightWidthSlopeOnly: 0
OS2_UseTypoMetrics: 1
CreationTime: 1583882521
ModificationTime: 1622393297
OS2TypoAscent: 0
OS2TypoAOffset: 1
OS2TypoDescent: 0
OS2TypoDOffset: 1
OS2TypoLinegap: 92
OS2WinAscent: 0
OS2WinAOffset: 1
OS2WinDescent: 0
OS2WinDOffset: 1
HheadAscent: 0
HheadAOffset: 1
HheadDescent: 0
HheadDOffset: 1
MarkAttachClasses: 1
DEI: 91125
Encoding: UnicodeFull
UnicodeInterp: none
NameList: Adobe Glyph List
DisplaySize: -96
AntiAlias: 1
FitToEm: 0
WinInfo: 62234 29 11
BeginPrivate: 0
EndPrivate
Grid
418 832 m 1028
EndSplineSet
BeginChars: 1114112 144

StartChar: uniF3D3
Encoding: 62419 62419 0
Width: 1038
VWidth: 524
Flags: HMW
LayerCount: 2
Fore
SplineSet
517 -197 m 0
 504 -197 490 -193 478 -186 c 2
 355 -113 l 2
 337 -103 345 -99 351 -97 c 0
 376 -88 381 -87 407 -72 c 0
 410 -70 413 -71 416 -73 c 2
 511 -129 l 2
 514 -131 520 -131 523 -129 c 2
 892 84 l 2
 895 86 898 90 898 94 c 2
 898 521 l 2
 898 525 896 529 892 531 c 2
 523 744 l 2
 520 746 514 746 511 744 c 2
 142 531 l 2
 138 529 136 524 136 520 c 2
 136 94 l 2
 136 90 138 86 142 84 c 2
 243 26 l 2
 257.697895946 18.7846692631 270.896092371 15.7113657735 282.346492688 15.7113657735 c 0
 313.74385914 15.7113657735 332 38.8187375673 332 63 c 2
 332 484 l 2
 332 490 337 495 343 495 c 2
 390 495 l 2
 396 495 400 490 400 484 c 2
 400 63 l 2
 400 -10 360 -52 291 -52 c 0
 270 -52 253 -52 206 -29 c 2
 109 27 l 2
 85 41 70 66 70 94 c 2
 70 521 l 2
 70 549 85 574 109 588 c 2
 478 801 l 2
 489.5 807.5 503.25 810.75 517 810.75 c 0
 530.75 810.75 544.5 807.5 556 801 c 2
 925 588 l 2
 949 574 964 548 964 520 c 2
 964 94 l 2
 964 66 949 41 925 27 c 2
 556 -186 l 2
 544 -193 531 -197 517 -197 c 0
815 223 m 0
 815 143 748 97 631 97 c 0
 469 97 436 171 436 233 c 0
 436 239 440 244 446 244 c 2
 494 244 l 2
 499 244 504 240 505 235 c 0
 512 186 533 161 631 161 c 0
 709 161 742 179 742 220 c 0
 742 244 733 262 612 274 c 0
 511 284 448 306 448 387 c 0
 448 462 511 506 616 506 c 0
 734 506 794 465 801 377 c 0
 801 374 800 370 798 368 c 0
 796 366 793 365 790 365 c 2
 742 365 l 2
 737 365 733 368 732 373 c 0
 720 424 692 441 616 441 c 0
 531 441 521 411 521 389 c 0
 521 362 533 354 648 339 c 0
 761 324 815 303 815 223 c 0
EndSplineSet
Validated: 1
EndChar

StartChar: uniF3D2
Encoding: 62418 62418 1
Width: 1055
VWidth: 524
Flags: W
HStem: -141 70<351.849 511.08 664.007 843.184> 4 97<750 793.123>
VStem: 69 403<48.7143 344> 557 71<165.088 304.503> 895 70<-21.3929 119.746>
LayerCount: 2
Fore
SplineSet
869 755 m 2
 922 755 965 712 965 659 c 2
 965 -45 l 2
 965 -98 922 -141 869 -141 c 2
 165 -141 l 2
 112 -141 69 -98 69 -45 c 2
 69 659 l 2
 69 712 112 755 165 755 c 2
 869 755 l 2
557 56 m 1
 557 344 l 1
 472 344 l 1
 472 58 l 2
 472 16 455 5 427 5 c 0
 398 5 386 25 373 48 c 1
 304 6 l 1
 324 -36 364 -71 431 -71 c 0
 506 -71 557 -31 557 56 c 1
756 -71 m 0
 836 -71 895 -29 895 47 c 0
 895 117 855 148 783 179 c 2
 762 188 l 2
 726 204 711 214 711 239 c 0
 711 259 726 275 751 275 c 0
 775 275 791 265 805 239 c 1
 871 281 l 1
 843 330 805 349 751 349 c 0
 676 349 628 300 628 237 c 0
 628 168 668 136 729 110 c 2
 750 101 l 2
 789 84 811 74 811 45 c 0
 811 21 789 4 754 4 c 0
 713 4 689 26 671 55 c 1
 602 15 l 1
 627 -34 678 -71 756 -71 c 0
EndSplineSet
Validated: 1
EndChar

StartChar: uniF3D4
Encoding: 62420 62420 2
Width: 1195
VWidth: 524
Flags: W
HStem: 51 64<406 534> 115 64<86 214 278 342 598 662 726 854 918 982 1046 1110> 243 128<534 598> 435 64<86 342 406 662 726 1110>
VStem: 22 64<179 435> 214 64<179 371> 342 64<179 435> 534 64<243 371> 662 64<179 435> 854 64<179 371> 982 64<179 371> 1110 64<179 435>
LayerCount: 2
Fore
SplineSet
598 243 m 1x3ff0
 534 243 l 1
 534 371 l 1
 598 371 l 1
 598 243 l 1x3ff0
1174 499 m 1
 1174 115 l 1
 598 115 l 1x7ff0
 598 51 l 1
 342 51 l 1xbff0
 342 115 l 1
 22 115 l 1x7ff0
 22 499 l 1
 1174 499 l 1
342 435 m 1
 86 435 l 1
 86 179 l 1
 214 179 l 1
 214 371 l 1
 278 371 l 1
 278 179 l 1
 342 179 l 1
 342 435 l 1
662 435 m 1
 406 435 l 1
 406 115 l 1
 534 115 l 1xbff0
 534 179 l 1
 662 179 l 1
 662 435 l 1
1110 435 m 1
 726 435 l 1
 726 179 l 1
 854 179 l 1
 854 371 l 1
 918 371 l 1
 918 179 l 1
 982 179 l 1
 982 371 l 1
 1046 371 l 1
 1046 179 l 1
 1110 179 l 1x7ff0
 1110 435 l 1
EndSplineSet
Validated: 1
EndChar

StartChar: uniF3CD
Encoding: 62413 62413 3
Width: 871
VWidth: 524
Flags: W
HStem: 255 49<223 318> 401 98<306 657> 595 160<192 674>
LayerCount: 2
Fore
SplineSet
49 755 m 5
 817 755 l 5
 747 -36 l 5
 432 -141 l 5
 119 -36 l 5
 49 755 l 5
665 499 m 5
 674 595 l 5
 192 595 l 5
 218 304 l 5
 551 304 l 5
 539 179 l 5
 432 150 l 5
 325 179 l 5
 318 255 l 5
 223 255 l 5
 235 104 l 5
 432 49 l 5
 434 49 l 5
 434 50 l 5
 630 104 l 5
 657 401 l 5
 306 401 l 5
 298 499 l 5
 665 499 l 5
EndSplineSet
Validated: 1
EndChar

StartChar: uniF3CE
Encoding: 62414 62414 4
Width: 897
VWidth: 524
Flags: W
HStem: 257 52<242 340> 595 160<208 692>
LayerCount: 2
Fore
SplineSet
66 755 m 5
 834 755 l 5
 764 -36 l 5
 450 -141 l 5
 136 -36 l 5
 66 755 l 5
692 595 m 5
 208 595 l 5
 219 501 l 5
 465 501 l 5
 452 495 l 5
 228 402 l 5
 235 309 l 5
 236 309 l 5
 568 308 l 5
 561 185 l 5
 451 154 l 5
 346 181 l 5
 340 257 l 5
 242 257 l 5
 255 110 l 5
 452 51 l 5
 649 109 l 5
 674 402 l 5
 451 402 l 5
 452 402 l 5
 683 501 l 5
 692 595 l 5
EndSplineSet
Validated: 5
EndChar

StartChar: uniF3D8
Encoding: 62424 62424 5
Width: 950
VWidth: 524
Flags: W
HStem: -141 188<429.263 516.508> 557.684 197.316<439.278 514.235>
VStem: 504 87.5801<253.429 330.836> 729.146 190.854<262.543 349.497>
LayerCount: 2
Fore
SplineSet
903 347 m 2
 912 338 920 319 920 306 c 0
 920 293 912 274 903 265 c 2
 514 -124 l 2
 505 -133 486 -141 473 -141 c 0
 460 -141 441 -133 432 -124 c 2
 41 267 l 2
 32 276 24 295 24 308 c 0
 24 321 32 340 41 349 c 2
 309 617 l 1
 411 516 l 1
 407.613035976 507.814836941 405.739675984 498.434723329 405.739675984 488.804018556 c 0
 405.739675984 464.313174815 417.854374086 438.201800965 448 426 c 1
 448 180 l 1
 420.804491447 169.121796579 405.661653323 143.269063229 405.661653323 116.7890071 c 0
 405.661653323 99.4529116213 412.152062208 81.8479377919 426 68 c 0
 437 57 458 47 474 47 c 0
 490 47 512 57 523 68 c 0
 534.879388879 79.8793888794 542.583633376 98.6477659908 542.583633376 117.914598697 c 0
 542.583633376 140.816404078 531.698121814 164.422489307 504 178 c 1
 504 421 l 1
 597 329 l 1
 593.269282686 319.80644662 591.580145657 310.790421961 591.580145657 302.1931959 c 0
 591.580145657 263.670722471 625.493950629 233.556716654 661.614450839 233.556716654 c 0
 677.93393286 233.556716654 694.703865913 239.703865913 709 254 c 0
 723.067068038 268.067068038 729.145803768 284.796913513 729.145803768 301.146772643 c 0
 729.145803768 337.059728607 699.817459965 371.139347731 661.398094345 371.139347731 c 0
 653.895200333 371.139347731 646.045593467 369.839621224 638 367 c 1
 539 467 l 1
 541.733321843 474.768388396 542.997268536 482.474690518 542.997268536 489.922409581 c 0
 542.997268536 527.009139502 511.655805276 557.683912746 474.338550624 557.683912746 c 0
 467.057071069 557.683912746 459.548073744 556.516024581 452 554 c 1
 349 657 l 1
 430 738 l 2
 439 747 458 755 471 755 c 0
 484 755 503 747 512 738 c 2
 903 347 l 2
EndSplineSet
Validated: 1
EndChar

StartChar: uniF330
Encoding: 62256 62256 6
Width: 779
VWidth: 524
Flags: W
VStem: 32 101<174 819> 233 101<-205 667> 434 101<-205 667> 635 101<173 667>
LayerCount: 2
Fore
SplineSet
133 174 m 1
 32 174 l 1
 32 819 l 1
 133 819 l 1
 133 174 l 1
334 667 m 1
 334 -205 l 1
 233 -205 l 1
 233 667 l 1
 334 667 l 1
535 667 m 1
 535 -205 l 1
 434 -205 l 1
 434 667 l 1
 535 667 l 1
736 667 m 1
 736 173 l 1
 635 173 l 1
 635 667 l 1
 736 667 l 1
EndSplineSet
Validated: 1
EndChar

StartChar: uniF331
Encoding: 62257 62257 7
Width: 962
VWidth: 524
Flags: W
HStem: -141 305<274 400 556 671> 307 171<575.138 693> 609 146<490.347 698.958>
VStem: 30 370<-106.057 164 307 514.38> 556 370<-106.057 164 307 458.871> 699 227<270.392 307 478 600>
LayerCount: 2
Fore
SplineSet
830 755 m 2xf4
 883 755 926 712 926 659 c 2xf4
 926 -45 l 2
 926 -98 883 -141 830 -141 c 2
 556 -141 l 1
 556 164 l 1
 671 164 l 1
 693 307 l 1
 556 307 l 1
 556 400 l 2xf8
 556 439 574 478 636 478 c 2
 699 478 l 1
 699 600 l 1
 699 600 642 609 588 609 c 0
 475 609 400 537 400 416 c 2
 400 307 l 1
 274 307 l 1
 274 164 l 1
 400 164 l 1
 400 -141 l 1
 126 -141 l 2
 73 -141 30 -98 30 -45 c 2
 30 659 l 2
 30 712 73 755 126 755 c 2
 830 755 l 2xf4
EndSplineSet
Validated: 1
EndChar

StartChar: uniF332
Encoding: 62258 62258 8
Width: 977
VWidth: 524
Flags: W
HStem: -141 188<242.732 492.007> 252 2<239 260.02> 567 188<538.028 683.51>
VStem: 39 154<310.126 384 408.458 542.106> 742 193<297.693 456.954>
LayerCount: 2
Fore
SplineSet
839 755 m 2
 892 755 935 712 935 659 c 2
 935 -45 l 2
 935 -98 892 -141 839 -141 c 2
 135 -141 l 2
 82 -141 39 -98 39 -45 c 2
 39 659 l 2
 39 712 82 755 135 755 c 2
 839 755 l 2
741 438 m 0
 767 457 789 480 807 506 c 1
 783 496 757 488 731 485 c 1
 758 501 779 527 789 557 c 1
 764 542 736 532 706 526 c 1
 682 552 648 567 610 567 c 0
 530 567 463 495 482 406 c 1
 373 412 277 463 212 543 c 1
 201 524 194 501 194 477 c 0
 194 438 220 389 252 368 c 1
 231 369 210 374 193 384 c 1
 193 383 l 2
 193 319 238 266 298 254 c 1
 277 249 259 249 239 252 c 1
 256 200 303 162 361 161 c 1
 316 126 260 105 199 105 c 0
 188 105 178 105 167 106 c 1
 225 69 294 47 368 47 c 0
 609 47 742 248 742 421 c 0
 742 427 741 432 741 438 c 0
EndSplineSet
Validated: 33
EndChar

StartChar: uniF3CF
Encoding: 62415 62415 9
Width: 1348
VWidth: 524
Flags: W
HStem: 16 14<1241.27 1259.82> 191 44<1034.52 1227.8>
VStem: 637 1<62.1709 62.9906> 754 79<273.609 346.642> 817 54<44.6013 95.5623> 927 79<309.891 384.726>
LayerCount: 2
Fore
SplineSet
637 61 m 1xe4
 636 60 636 59 637 61 c 1xe4
1135 235 m 0
 1251 236 1316 161 1313 93 c 0
 1311 39 1261 18 1252 16 c 0
 1245 15 1242 15 1241 20 c 0
 1240 24 1243 25 1251 30 c 0
 1259 35 1282 51 1286 80 c 0
 1290 109 1268 178 1157 191 c 0
 1105 197 1064 190 1033 177 c 1
 1039 162 1043 146 1044 130 c 0
 1046 95 1021 69 996 51 c 0
 985 43 966 33 953 29 c 0
 943 25 929 20 919 22 c 0
 897 26 885 45 900 88 c 0
 908 111 931 146 968 176 c 1
 959 193 951 212 946 228 c 0
 942 242 935 265 933 279 c 1
 933 279 903 216 863 158 c 0
 861 155 858 151 856 148 c 0
 864 130 870 111 871 92 c 0xec
 872 57 857 30 832 12 c 0
 822 5 804 -5 792 -9 c 0
 784 -13 768 -18 745 -20 c 0
 732 -21 720 -20 713 -15 c 0
 704 -8 703 0 708 12 c 0
 712 22 742 58 768 88 c 0
 775 96 781 105 787 113 c 0
 787 113 791 119 799 129 c 1
 790 149 779 170 773 189 c 0
 769 203 762 227 760 241 c 1
 760 241 729 162 697 98 c 0
 672 49 656 19 648 6 c 2
 648 5 l 1
 648 5 647 4 645 1 c 0
 644 -1 643 -2 643 -2 c 1
 635 -14 616 -38 597 -38 c 0
 546 -38 565 66 565 66 c 1
 565 66 550 27 533 -6 c 0
 519 -33 507 -56 479 -56 c 0
 471 -56 458 -56 448 -46 c 0
 424 -24 406 34 410 78 c 0
 413 116 419 141 427 163 c 1
 413 155 397 146 380 136 c 0
 371 131 362 126 354 121 c 0
 354 120 355 121 355 120 c 0
 376 79 382 -10 336 -79 c 0
 290 -148 205 -189 121 -166 c 0
 94 -158 53 -104 88 -26 c 0
 119 42 242 108 275 124 c 0
 278 126 281 127 284 129 c 1
 219 186 57 262 34 380 c 0
 28 413 44 493 141 584 c 0
 223 661 337 720 442 757 c 0
 619 820 806 783 835 670 c 0
 863 559 767 427 643 379 c 0
 533 336 442 343 405 355 c 0
 362 369 337 397 331 413 c 0
 329 419 324 429 331 433 c 0
 335 435 336 435 347 423 c 0
 357 412 398 381 476 390 c 0
 680 413 802 571 763 656 c 0
 736 716 580 743 384 645 c 0
 145 526 132 427 130 390 c 0
 124 287 256 233 328 157 c 0
 329 156 330 155 331 154 c 0
 344 161 358 169 372 177 c 0
 408 197 442 215 458 224 c 1
 483 261 534 301 571 301 c 0
 630 301 610 216 610 216 c 1
 610 216 611 220 613 220 c 0
 615 220 621 232 639 225 c 0
 658 218 654 204 654 203 c 0
 654 200 631 125 622 77 c 0
 618 54 621 37 622 37 c 0
 624 37 628 43 631 49 c 2
 631 50 l 1
 631 50 634 54 638 63 c 0
 638 63 638 62 637 61 c 1
 637 62 637 63 638 65 c 0
 643 75 651 90 659 108 c 0
 675 144 738 284 743 299 c 0
 748 314 751 330 754 337 c 0
 757 344 779 349 805 349 c 0
 831 349 833 337 833 335 c 0xf4
 833 333 821 303 818 281 c 0
 815 259 818 248 820 230 c 0
 822 218 829 203 838 186 c 1
 865 230 911 314 916 337 c 0
 918 348 923 365 927 375 c 0
 930 382 951 387 977 387 c 0
 1003 387 1006 376 1006 374 c 0
 1006 372 994 341 991 319 c 0
 988 297 991 287 993 269 c 0
 995 253 1007 232 1019 208 c 1
 1049 223 1101 235 1135 235 c 0
277 -54 m 1
 316 -12 332 42 315 103 c 1
 313 102 311 100 309 99 c 2
 309 99 309 99 307 98 c 0
 297 92 289 87 284 84 c 0
 260 69 225 45 197 19 c 0
 152 -24 142 -83 166 -97 c 0
 188 -110 240 -94 277 -54 c 1
545 129 m 0
 553 149 585 235 578 247 c 0
 573 256 550 249 530 226 c 0
 517 212 496 176 486 146 c 0
 466 86 475 26 489 22 c 0
 505 18 532 98 545 129 c 0
767 23 m 2
 783 33 817 56 817 92 c 0
 817 93 817 95 817 96 c 1
 809 86 801 76 795 68 c 0
 784 54 757 24 757 24 c 1
 757 24 753 21 755 20 c 0
 757 19 762 20 767 23 c 2
938 62 m 2
 957 69 990 86 990 131 c 0
 990 137 988 146 986 152 c 1
 965 134 953 114 948 103 c 0
 935 74 934 65 938 62 c 2
EndSplineSet
Validated: 37
EndChar

StartChar: uniF334
Encoding: 62260 62260 10
Width: 971
VWidth: 524
Flags: W
LayerCount: 2
Fore
SplineSet
928 278 m 0
 940 240 921 199 883 187 c 2
 792 157 l 1
 823 63 l 2
 835 25 815 -17 777 -29 c 0
 734 -41 697 -17 685 17 c 2
 654 111 l 1
 467 48 l 1
 498 -46 l 2
 510 -84 490 -126 452 -138 c 0
 409 -150 372 -126 360 -92 c 2
 329 2 l 1
 238 -28 227 -33 213 -31 c 0
 184 -30 156 -11 146 18 c 0
 134 56 154 98 192 110 c 2
 283 140 l 1
 222 320 l 1
 131 290 121 284 107 286 c 0
 78 287 50 306 40 335 c 0
 28 373 48 415 86 427 c 2
 176 457 l 1
 145 551 l 2
 133 589 153 631 191 643 c 0
 229 655 271 635 283 597 c 2
 314 503 l 1
 501 566 l 1
 470 660 l 2
 458 698 478 739 516 751 c 0
 554 763 596 744 608 706 c 2
 639 612 l 1
 730 642 l 2
 768 654 810 634 822 596 c 0
 834 558 814 516 776 504 c 2
 685 474 l 1
 746 294 l 1
 836 324 l 2
 874 336 916 316 928 278 c 0
420 184 m 1
 607 247 l 1
 547 427 l 1
 360 364 l 1
 420 184 l 1
EndSplineSet
Validated: 33
EndChar

StartChar: uniF3DC
Encoding: 62428 62428 11
Width: 971
VWidth: 524
Flags: W
HStem: -141.145 71.1446<474.664 619.355> 11 54<577.96 650.395> 93 203<494 671.895> 323 204<306.221 485> 554 54<328.846 399.154> 690 65.1615<328.612 505.562>
VStem: 42 202<178.271 260.6> 271 53<612.605 684.995> 655 53<-65.1233 6.15381> 735 203.127<359.189 440.484>
LayerCount: 2
Fore
SplineSet
922 418 m 0
 932.622043539 374.500202648 938.127179643 336.629003475 938.127179643 301.151163578 c 0
 938.127179643 266.488579454 932.872144863 234.110622993 922 201 c 0
 900 136 877 93 815 93 c 2
 494 93 l 1
 494 65 l 1
 708 65 l 1
 708 -16 l 2
 708 -78 655 -109 601 -125 c 0
 561.907670449 -136.100291107 526.542114817 -141.144574597 492.767471058 -141.144574597 c 0
 456.560454068 -141.144574597 422.181748032 -135.34757295 387 -125 c 0
 331 -108 281 -74 281 -16 c 2
 281 188 l 2
 281 247 329 296 387 296 c 2
 601 296 l 2
 672 296 735 358 735 432 c 2
 735 527 l 1
 815 527 l 2
 877 527 907 480 922 418 c 0
614 11 m 0
 592 11 574 -6 574 -29 c 0
 574 -51 592 -70 614 -70 c 0
 636 -70 655 -52 655 -29 c 0
 655 -7 636 11 614 11 c 0
378 323 m 2
 305 323 244 261 244 190 c 2
 244 93 l 1
 171 93 l 2
 109 93 72 138 57 201 c 0
 47 243.5 42 277.5 42 311 c 0
 42 344.5 47 377.5 57 418 c 0
 74 489 129 527 191 527 c 2
 485 527 l 1
 485 554 l 1
 271 554 l 1
 271 635 l 2
 271 697 288 730 378 746 c 0
 412.072368508 751.856188337 449.829317545 755.161513232 488.554785883 755.161513232 c 0
 522.569490365 755.161513232 557.331414572 752.611430905 591 747 c 0
 649 737 698 693 698 635 c 2
 698 432 l 2
 698 372 650 323 591 323 c 2
 378 323 l 2
364 608 m 0
 386 608 404 627 404 649 c 0
 404 671 386 690 364 690 c 0
 342 690 324 672 324 649 c 0
 324 627 342 608 364 608 c 0
EndSplineSet
Validated: 1
EndChar

StartChar: uniF3E4
Encoding: 62436 62436 12
Width: 393
VWidth: 524
Flags: W
HStem: -205.254 16.3613<237.107 511.997> -155.578 27.3105<143.843 534.406> -57.658 49.0419<238.523 497.245> -52.9184 5.87755<140.639 168.454> 56.684 37.3799<213.473 511.886> 165.474 25.2466<169.962 480.28> 253.186 11.6926<640.208 680.542>
VStem: 5.60276 64.6881<-112.062 -81.0878> 168.609 41.8052<88.5699 124.435> 199.98 37.735<-19.1908 15.4262> 248.732 53.2979<381.405 487.171> 385.847 57.5795<396.447 493.336> 449.852 51.4098<271.348 333.755> 492.126 21.0097<719.475 792.957> 702.889 12.824<-81.3803 -60.1796> 718.57 42.1878<142.057 236.938>
LayerCount: 2
Fore
SplineSet
555 193 m 0xcf33
 482.25769204 173.756003185 383.444052575 165.473816207 295.389642606 165.473816207 c 0
 182.552625041 165.473816207 87.383394108 179.074038457 87.383394108 200.635832985 c 0
 87.383394108 205.965786692 93.1987142407 211.782232631 106 218 c 0
 178.20754717 252.886792453 239.883232467 256.177999288 260.586497579 256.177999288 c 0
 265.401210395 256.177999288 268 256 268 256 c 1
 268 256 161.666864961 230.274241523 161.666864961 210.809114784 c 0
 161.666864961 204.530041642 172.731707317 198.902439024 202 195 c 0
 223.318566229 192.073922282 253.37379655 190.720444101 288.00238521 190.720444101 c 0
 336.215109738 190.720444101 393.293043638 193.34408882 448 198 c 0
 525 204 602 218 602 218 c 1
 602 218 575 206 555 193 c 0xcf33
385 258 m 1
 309.241188509 326.729643415 248.732131291 388.139404778 248.732131291 446.040593812 c 0
 248.732131291 462.274877942 253.488896408 478.233344612 264 494 c 0
 327.167956653 588.75193498 492.126493606 639.53033927 492.126493606 772.728733994 c 0
 492.126493606 787.13504464 490.196826627 802.505495349 486 819 c 1
 486 819 513.136231851 791.863768149 513.136231851 743.80867499 c 0xcf37
 513.136231851 696.88695667 487.264916468 630.021479714 385 549 c 0
 323.026078949 500.092869532 302.030001772 458.99104266 302.030001772 422.260153231 c 0
 302.030001772 360.605664717 361.186801204 311.266365727 385 258 c 1
614 610 m 0
 483.527416793 534.524828548 443.42658994 490.200527658 443.42658994 451.190643522 c 0
 443.42658994 423.525951678 463.594257817 398.534007517 486 367 c 0
 496.851612903 351.84516129 501.26226847 337.28541103 501.26226847 323.628569165 c 0
 501.26226847 264.29194589 418 222 418 222 c 1
 418 222 449.8524508 248.201209529 449.8524508 284.032989443 c 0xcf3b
 449.8524508 298.192321828 444.878612717 313.855491329 431 330 c 0
 398.832756632 367.175317186 385.847133588 400.417845678 385.847133588 429.863368578 c 0
 385.847133588 553.287716063 614 610 614 610 c 0
602 69 m 0
 689.396605671 114.519065453 718.570423856 159.209336779 718.570423856 193.167756261 c 0
 718.570423856 229.227492001 685.674399547 253.186128841 654.664462221 253.186128841 c 0
 650.721997344 253.186128841 646.810018127 252.798874769 643 252 c 0
 637 251 627 248 621 246 c 1
 624 251 631 256 637 258 c 0
 650.517441666 262.725609688 663.696711978 264.878701575 676.107766644 264.878701575 c 0
 724.200602386 264.878701575 760.75820058 232.548682674 760.75820058 192.293169451 c 0
 760.75820058 148.408373402 717.311671352 95.1045991462 598 64 c 1
 599 65 601 67 602 69 c 0
696 -56 m 1
 709.392113338 -62.0643532098 715.713073779 -68.8789190294 715.713073779 -76.0242350104 c 0
 715.713073779 -111.682494981 558.292863464 -155.577914551 336.689555577 -155.577914551 c 0
 251.223570966 -155.577914551 156.21085293 -149.048814445 57 -133 c 0
 19.9595644448 -127.073530311 5.6027608094 -117.427432807 5.6027608094 -106.696779731 c 0
 5.6027608094 -80.1801549374 93.2709303218 -47.0408163265 142.959183673 -47.0408163265 c 0
 154.591836735 -47.0408163265 164.142857143 -48.8571428571 170 -53 c 1
 170 -53 168.93877551 -52.9183673469 166.909620991 -52.9183673469 c 0xdf33
 161.836734694 -52.9183673469 150.714285714 -53.4285714286 135 -57 c 0
 117.505553611 -60.976010543 70.2908267264 -75.0695633822 70.2908267264 -88.7209516225 c 0
 70.2908267264 -92.2367565935 73.4224780181 -95.7232337376 81 -99 c 0
 128.493614718 -119.487441643 233.007051085 -128.267391388 342.854047653 -128.267391388 c 0
 468.92073583 -128.267391388 602.012346149 -116.70317142 664 -98 c 0
 695.268907563 -88.2605042017 702.889061507 -77.469952687 702.889061507 -69.2650865586 c 0
 702.889061507 -61.4637384366 696 -56 696 -56 c 1
249 27 m 1
 249 27 237.714577883 20.6338644471 237.714577883 13.5053891508 c 0
 237.714577883 7.38221165279 246.04137931 0.696551724138 277 -3 c 0
 309.530594221 -6.61451046899 335.770784105 -8.61609674903 361.291392958 -8.61609674903 c 0
 399.316174732 -8.61609674903 435.743492416 -4.17259133636 489 6 c 1
 504 -3 529 -16 545 -22 c 1
 485.036423106 -47.7843380643 420.308635729 -57.6580109276 363.294885422 -57.6580109276 c 0
 271.677487547 -57.6580109276 199.979588541 -32.161813072 199.979588541 -6.21987444731 c 0xef73
 199.979588541 5.53959428426 214.712106454 17.3906540381 249 27 c 1
608 -167 m 0
 748 -141 761 -108 761 -108 c 1
 755.226575876 -179.755414118 561.703159725 -205.253583824 390.825778979 -205.253583824 c 0
 354.522526631 -205.253583824 319.241423015 -204.102701501 287 -202 c 0
 166 -194 142 -174 142 -174 c 0
 197.729223184 -183.207436874 272.010730603 -188.892288133 351.643321477 -188.892288133 c 0
 436.336508487 -188.892288133 527.082504694 -182.461941778 608 -167 c 0
521 113 m 1
 531 104 550 93 563 88 c 1
 486.534484237 65.6582237893 407.395454481 56.6840175396 340.258615046 56.6840175396 c 0
 241.429881179 56.6840175396 168.609041371 76.1304851572 168.609041371 101.00935383 c 0
 168.609041371 112.938876922 185.352323382 126.117441127 224 139 c 1
 224 139 210.414285104 128.889700543 210.414285104 118.791791158 c 0xcfb3
 210.414285104 110.924815242 218.660130719 103.065359477 248 100 c 0
 282.920740241 96.3875096302 314.780349041 94.0639167095 348.040950621 94.0639167095 c 0
 397.644352422 94.0639167095 450.363762626 99.2319198339 521 113 c 1
EndSplineSet
Validated: 1
EndChar

StartChar: uniF3E8
Encoding: 62440 62440 13
Width: 594
VWidth: 524
Flags: W
HStem: -18 89<677 776.258> -17 114<419.393 479> 115 143.514<679 766.218> 372.995 141.005<679 845.856> 603 152<495.246 768.105>
VStem: 0 228<261.464 415.855> 479 198<-141 -15.5996 97 115 260 372> 854 204<272.253 361.957> 1094 68<260.901 435.978>
LayerCount: 2
Fore
SplineSet
1162 366 m 0x7f80
 1162 256 1094 158 985 87 c 1
 1120 -141 l 1
 896 -141 l 1
 816 10 l 1
 772 -3 726 -13 677 -18 c 1xbf80
 677 -141 l 1
 479 -141 l 1
 479 -17 l 1
 207 15 0 174 0 366 c 0
 0 581 260 755 581 755 c 0
 902 755 1162 581 1162 366 c 0x7f80
228 337 m 0
 228 231 331 140 479 97 c 1x7f80
 479 514 l 1
 877 514 l 1
 877 514 1058 511 1058 338 c 0
 1058 165 885 153 885 153 c 1
 885 153 920 142 940 132 c 0
 943 130 948 127 953 124 c 0
 1041 167 1094 237 1094 337 c 0
 1094 522 914 603 670 603 c 0
 426 603 228 484 228 337 c 0
679 260 m 1
 709.171428571 260 737.206621315 258.513922902 761.605348019 258.513922902 c 0
 817.264943311 258.513922902 854 266.247619048 854 317 c 0
 854 366.191489362 823.12449072 372.994567678 762.130606898 372.994567678 c 0
 738.809416025 372.994567678 711.085106383 372 679 372 c 1
 679 260 l 1
677 115 m 1
 677 71 l 1xbf80
 712 71 746 73 778 77 c 1
 768 92 752 115 730 115 c 2
 677 115 l 1
EndSplineSet
Validated: 1
EndChar

StartChar: uniF28C
Encoding: 62092 62092 14
Width: 1196
VWidth: 524
Flags: W
HStem: -205 96<560 656> 723 96<560 656>
VStem: 464 96<-109 60 554 723> 656 96<-109 60 554 723>
LayerCount: 2
Fore
SplineSet
672 -205 m 2
 544 -205 l 2
 500 -205 464 -169 464 -125 c 2
 464 60 l 1
 282 -34 l 2
 244 -56 195 -43 173 -5 c 2
 107 106 l 2
 96 125 93 146 99 167 c 0
 105 188 118 205 137 216 c 2
 298 307 l 1
 137 398 l 2
 118 409 105 426 99 447 c 0
 93 468 96 489 107 508 c 2
 173 619 l 2
 195 657 244 670 282 648 c 2
 464 554 l 1
 464 739 l 2
 464 783 500 819 544 819 c 2
 672 819 l 2
 716 819 752 783 752 739 c 2
 752 554 l 1
 934 648 l 2
 972 670 1021 657 1043 619 c 2
 1109 508 l 2
 1120 489 1123 468 1117 447 c 0
 1111 426 1098 409 1079 398 c 2
 918 307 l 1
 1079 216 l 2
 1098 205 1111 188 1117 167 c 0
 1123 146 1120 125 1109 106 c 2
 1043 -5 l 2
 1021 -43 972 -56 934 -34 c 2
 752 60 l 1
 752 -125 l 2
 752 -169 716 -205 672 -205 c 2
560 -109 m 1
 656 -109 l 1
 656 224 l 1
 968 57 l 1
 1018 141 l 1
 707 307 l 1
 1018 474 l 1
 968 557 l 1
 656 390 l 1
 656 723 l 1
 560 723 l 1
 560 390 l 1
 248 557 l 1
 198 474 l 1
 509 307 l 1
 198 141 l 1
 248 57 l 1
 560 224 l 1
 560 -109 l 1
EndSplineSet
Validated: 33
EndChar

StartChar: uniF28D
Encoding: 62093 62093 15
Width: 1117
VWidth: 524
Flags: W
VStem: 468 192<-203.589 141 474 817.589>
LayerCount: 2
Fore
SplineSet
1028 150 m 2
 1043 141 1049 122 1040 107 c 2
 976 -4 l 2
 967 -19 947 -25 932 -16 c 2
 660 141 l 1
 660 -173 l 2
 660 -191 646 -205 628 -205 c 2
 500 -205 l 2
 482 -205 468 -191 468 -173 c 2
 468 141 l 1
 196 -16 l 2
 181 -25 161 -19 152 -4 c 2
 88 107 l 2
 79 122 85 141 100 150 c 2
 372 307 l 1
 100 464 l 2
 85 473 79 493 88 508 c 2
 152 619 l 2
 161 634 181 639 196 630 c 2
 468 473 l 1
 468 787 l 2
 468 805 482 819 500 819 c 2
 628 819 l 2
 646 819 660 805 660 787 c 2
 660 474 l 1
 932 630 l 2
 947 639 967 634 976 619 c 2
 1040 508 l 2
 1049 493 1043 473 1028 464 c 2
 756 307 l 1
 1028 150 l 2
EndSplineSet
Validated: 33
EndChar

StartChar: uniF338
Encoding: 62264 62264 16
Width: 840
VWidth: 524
Flags: W
HStem: -71 118<69 173.618 343 417.698> 260 97<343 520.039> 557 103<50 168.582 343 415.146>
VStem: 176 167<49.9135 260 357 548.598> 244 97<-205 -71 664 819> 418 97<-205 -71 665 819>
LayerCount: 2
Fore
SplineSet
662 334 m 1xec
 754 312 812 257 801 134 c 0
 787 -19 678 -60 515 -69 c 1
 515 -205 l 1
 418 -205 l 1
 418 -71 l 1
 393 -71 367 -72 341 -71 c 1
 341 -205 l 1
 244 -205 l 1
 244 -69 l 1xec
 244 -69 227 -68 50 -68 c 1
 69 47 l 1
 138 46 170 40 176 79 c 2
 176 514 l 1xf4
 167 563 127 558 50 557 c 1
 50 660 l 1
 167 659 208 659 244 660 c 1
 244 819 l 1
 341 819 l 1
 341 664 l 1
 367 665 393 665 418 665 c 1
 418 819 l 1
 515 819 l 1
 515 660 l 1
 640 649 734 612 745 497 c 0
 753 413 717 362 662 334 c 1xec
343 550 m 1xf4
 343 357 l 1
 398 357 569 344 569 453 c 0
 569 567 398 550 343 550 c 1xf4
343 47 m 1
 409 47 609 33 609 153 c 0
 609 278 409 260 343 260 c 1
 343 47 l 1
EndSplineSet
Validated: 33
EndChar

StartChar: uniF3EC
Encoding: 62444 62444 17
Width: 1152
VWidth: 0
Flags: W
HStem: 70 82<220.892 379.889 768.111 927.108> 266 82<205 410 738 799 881 943> 463 82<222.502 381.255 768.111 925.498>
VStem: 62 82<228.892 385.299> 799 82<205 266 348 410> 1004 82<228.892 385.299>
LayerCount: 2
Fore
SplineSet
299 545 m 0
 396 545 473 487 526 434 c 0
 546 414 561 395 574 378 c 1
 587 395 603 415 623 435 c 0
 676 488 753 545 849 545 c 0
 979 545 1086 437 1086 307 c 0
 1086 177 979 70 849 70 c 0
 753 70 676 127 623 180 c 0
 603 200 587 219 574 236 c 1
 561 219 545 200 525 180 c 0
 472 127 395 70 299 70 c 0
 169 70 62 177 62 307 c 0
 62 437 169 545 299 545 c 0
299 463 m 0
 213 463 144 393 144 307 c 0
 144 221 213 152 299 152 c 0
 360 152 421 193 466 238 c 0
 495 267 513 291 525 308 c 0
 513 325 496 348 468 376 c 0
 423 421 363 463 299 463 c 0
849 463 m 0
 788 463 727 421 682 376 c 0
 654 348 636 324 624 307 c 0
 636 290 654 266 682 238 c 0
 727 193 788 152 849 152 c 0
 935 152 1004 221 1004 307 c 0
 1004 393 935 463 849 463 c 0
799 410 m 1
 881 410 l 1
 881 348 l 1
 943 348 l 1
 943 266 l 1
 881 266 l 1
 881 205 l 1
 799 205 l 1
 799 266 l 1
 738 266 l 1
 738 348 l 1
 799 348 l 1
 799 410 l 1
205 348 m 1
 410 348 l 1
 410 266 l 1
 205 266 l 1
 205 348 l 1
EndSplineSet
Validated: 1
EndChar

StartChar: uniF3F0
Encoding: 62448 62448 18
Width: 1198
VWidth: 0
Flags: W
HStem: 27 39<360.583 397.248 786.026 819.317> 91 118<296 343 509 603 832.139 890.156> 273 100<509 649.965> 443 114<318 343 509 675.669> 617 47<563.32 615.663> 723 90<570.946 614.719>
VStem: 264 42<392.306 439.194> 343 166<209 273 373 443> 876 44<391.27 439.804>
LayerCount: 2
Fore
SplineSet
1092 320 m 1
 1096 318 1099 312 1099 307 c 0
 1099 302 1096 297 1092 295 c 2
 1049 269 l 2
 1049 265 1048 260 1048 256 c 2
 1084 222 l 2
 1087 220 1089 215 1089 211 c 0
 1089 205 1085 200 1080 198 c 2
 1033 180 l 1
 1029 168 l 1
 1058 128 l 2
 1059 126 1061 122 1061 119 c 0
 1061 112 1056 106 1049 105 c 2
 1000 97 l 2
 998 93 996 90 994 86 c 2
 1014 40 l 2
 1015 38 1016 36 1016 34 c 0
 1016 26 1009 20 1001 20 c 0
 951 22 l 2
 948 19 946 15 943 12 c 2
 954 -37 l 2
 954 -38 955 -39 955 -40 c 0
 955 -48 948 -55 940 -55 c 0
 939 -55 938 -54 937 -54 c 2
 888 -43 l 2
 885 -46 882 -48 879 -51 c 2
 880 -101 l 2
 880 -109 874 -116 866 -116 c 0
 864 -116 862 -115 860 -114 c 2
 814 -94 l 2
 810 -96 807 -98 803 -100 c 2
 795 -149 l 2
 794 -156 788 -161 781 -161 c 0
 778 -161 774 -160 772 -158 c 2
 732 -129 l 2
 728 -130 724 -132 720 -133 c 2
 702 -179 l 2
 700 -184 695 -189 689 -189 c 0
 686 -189 680 -187 678 -184 c 2
 644 -148 l 2
 640 -148 636 -149 632 -149 c 2
 605 -192 l 2
 603 -196 597 -198 593 -198 c 0
 589 -198 582 -196 580 -192 c 2
 554 -149 l 2
 550 -149 546 -148 542 -148 c 2
 508 -184 l 2
 506 -187 501 -189 497 -189 c 0
 491 -189 485 -184 483 -179 c 2
 466 -133 l 2
 462 -132 458 -130 454 -129 c 2
 414 -158 l 2
 412 -159 408 -161 405 -161 c 0
 398 -161 392 -156 391 -149 c 2
 383 -100 l 2
 379 -98 376 -96 372 -94 c 2
 326 -114 l 2
 324 -115 322 -116 320 -116 c 0
 312 -116 305 -109 305 -101 c 0
 306 -101 l 2
 307 -51 l 2
 304 -48 301 -46 298 -43 c 2
 249 -54 l 2
 248 -54 247 -55 246 -55 c 0
 238 -55 231 -48 231 -40 c 0
 231 -39 231 -38 231 -37 c 2
 243 12 l 2
 240 15 238 19 235 22 c 2
 185 20 l 2
 177 20 170 26 170 34 c 0
 170 36 170 38 171 40 c 2
 192 86 l 2
 190 90 188 93 186 97 c 2
 137 105 l 2
 130 106 125 112 125 119 c 0
 125 122 125 126 127 128 c 2
 156 168 l 2
 155 172 154 176 153 180 c 2
 106 198 l 2
 101 200 97 205 97 211 c 0
 97 215 98 220 101 222 c 2
 138 256 l 2
 138 260 137 265 137 269 c 2
 94 295 l 2
 90 297 87 302 87 307 c 0
 87 312 90 318 94 320 c 2
 137 346 l 2
 137 349 138 355 138 358 c 2
 101 392 l 2
 98 394 97 400 97 403 c 0
 97 409 101 415 106 417 c 2
 153 434 l 2
 154 438 155 442 156 446 c 2
 127 487 l 2
 126 489 125 492 125 495 c 0
 125 502 130 508 137 509 c 2
 186 517 l 2
 188 520 190 526 192 529 c 2
 171 574 l 2
 170 576 170 578 170 580 c 0
 170 588 177 595 185 595 c 0
 235 593 l 2
 238 596 240 599 243 602 c 2
 231 651 l 2
 231 652 231 653 231 654 c 0
 231 662 238 669 246 669 c 0
 247 669 248 669 249 669 c 2
 298 657 l 2
 301 660 304 662 307 665 c 2
 305 715 l 2
 305 723 312 730 320 730 c 0
 322 730 324 730 326 729 c 2
 371 708 l 2
 374 710 380 712 383 714 c 2
 391 763 l 2
 392 770 398 775 405 775 c 0
 408 775 412 774 414 773 c 2
 454 744 l 2
 458 745 462 746 466 747 c 2
 483 794 l 2
 485 799 491 803 497 803 c 0
 501 803 506 802 508 799 c 2
 542 762 l 2
 546 762 550 763 554 763 c 2
 580 806 l 2
 582 810 589 813 593 813 c 0
 597 813 603 810 605 806 c 2
 632 763 l 2
 635 763 641 762 644 762 c 2
 678 799 l 2
 680 802 686 803 689 803 c 0
 695 803 700 799 702 794 c 2
 720 747 l 2
 723 746 729 745 732 744 c 2
 772 773 l 2
 774 774 778 775 781 775 c 0
 788 775 794 770 795 763 c 2
 803 714 l 2
 807 712 810 710 814 708 c 2
 860 729 l 2
 862 730 864 730 866 730 c 0
 874 730 880 724 880 716 c 0
 880 715 l 2
 879 665 l 2
 882 663 885 659 888 657 c 2
 937 669 l 2
 938 669 939 669 940 669 c 0
 948 669 955 662 955 654 c 0
 955 653 954 652 954 651 c 2
 943 602 l 2
 945 599 949 596 951 593 c 2
 1001 595 l 2
 1006 595 1010 592 1013 588 c 0
 1016 584 1016 579 1014 574 c 2
 994 529 l 2
 996 526 998 520 1000 517 c 2
 1049 509 l 2
 1056 508 1061 502 1061 495 c 0
 1061 492 1060 489 1058 487 c 2
 1029 446 l 2
 1030 443 1032 437 1033 434 c 2
 1080 417 l 2
 1085 415 1089 409 1089 403 c 0
 1089 400 1087 394 1084 392 c 2
 1048 358 l 2
 1048 355 1049 349 1049 346 c 2
 1092 320 l 1
808 -33 m 2
 807 -33 l 2
 809 -33 812 -33 814 -33 c 0
 831 -33 844 -20 844 -3 c 0
 844 10 833 23 820 26 c 0
 818 26 816 27 814 27 c 0
 797 27 784 14 784 -3 c 0
 784 -16 795 -30 808 -33 c 2
793 65 m 2
 857 51 l 2
 867 61 882 80 891 92 c 1
 890 92 887 91 885 91 c 2
 735 91 l 2
 710 91 687 126 681 143 c 0
 675 159 668 207 664 222 c 0
 652 270 614 273 605 273 c 2
 509 273 l 1
 509 205 l 1
 598 205 l 2
 601 205 603 205 603 202 c 2
 603 95 l 2
 603 92 601 91 598 91 c 2
 296 91 l 2
 304 80 318 63 328 53 c 2
 390 66 l 2
 392 66 393 67 395 67 c 0
 407 67 419 57 422 45 c 2
 437 -25 l 2
 478 -44 547 -59 592 -59 c 0
 593 -59 l 0
 647 -59 699 -47 746 -26 c 2
 761 44 l 2
 764 56 775 66 787 66 c 0
 789 66 791 65 793 65 c 2
375 -31 m 0
 388 -28 399 -15 399 -2 c 0
 399 15 386 28 369 28 c 0
 367 28 365 28 363 28 c 0
 350 25 339 11 339 -2 c 0
 339 -19 352 -32 369 -32 c 0
 371 -32 373 -31 375 -31 c 0
261 434 m 0
 256 443 244 451 234 451 c 0
 217 451 203 438 203 421 c 0
 203 418 205 412 206 409 c 0
 210 399 223 391 234 391 c 0
 251 391 264 404 264 421 c 0
 264 425 263 431 261 434 c 0
225 350 m 1
 226 350 l 2
 225 339 223 321 223 310 c 0
 223 282 229 236 237 209 c 2
 343 209 l 1
 343 445 l 1
 291 445 l 1
 304 415 l 2
 305 412 306 407 306 404 c 0
 306 394 299 383 290 379 c 2
 225 350 l 1
509 373 m 1
 625 373 l 2
 650 373 680 382 680 406 c 0
 680 435 640 443 634 443 c 2
 509 443 l 1
 509 373 l 1
963 310 m 2
 963 322 962 335 961 347 c 2
 893 377 l 2
 884 381 876 393 876 403 c 0
 876 406 878 411 879 414 c 2
 914 494 l 2
 867 576 754 657 661 674 c 2
 609 624 l 2
 605 620 596 617 590 617 c 0
 584 617 575 620 571 625 c 2
 524 674 l 2
 456 661 364 609 318 557 c 2
 710 557 l 2
 720 557 756 553 789 531 c 0
 813 515 847 483 847 433 c 0
 847 386 808 352 771 328 c 1
 801 304 821 291 832 227 c 0
 834.740658618 216.037365529 852.503736553 206.74388876 870.040595672 206.74388876 c 0
 871.700062946 206.74388876 873.357504579 206.827105745 875 207 c 0
 895 209 918 218 918 259 c 2
 918 277 l 2
 918 281 920 283 924 283 c 2
 962 283 l 2
 963 292 963 301 963 310 c 2
571 715 m 0
 566 710 562 701 562 694 c 0
 562 677 576 664 593 664 c 0
 599 664 607 668 612 672 c 0
 617 677 621 686 621 693 c 0
 621 710 608 723 591 723 c 0
 584 723 576 720 571 715 c 0
922 432 m 2
 921 429 920 424 920 420 c 0
 920 403 933 390 950 390 c 0
 967 390 980 403 980 420 c 0
 980 431 972 443 962 447 c 0
 958.024184115 448.855380746 953.837606737 449.72720786 949.700963077 449.72720786 c 0
 938.230834016 449.72720786 927.144619254 443.024184115 922 432 c 2
EndSplineSet
Validated: 5
EndChar

StartChar: uniF3E0
Encoding: 62432 62432 19
Width: 1024
VWidth: 0
Flags: W
HStem: -164.25 41.25<466.523 557.477> 41 41<420.011 603.383> 143 41<445.214 578.996> 246 41<676 717 758 799 840 881> 328 41<676 717 758 799 840 881> 430 41<445.214 578.996> 532 41<420.011 603.383> 737 41<463.828 560.172>
VStem: 82 41<78.5263 536.691> 246 41<215.011 398.989> 348 41<240.214 373.786> 717 41<205 246 287 328 369 410> 799 41<205 246 287 328 369 410> 901 41<78.5263 536.691>
LayerCount: 2
Fore
SplineSet
512 778 m 0
 527 778 541 774 554 767 c 2
 899 573 l 2
 925 558 942 531 942 501 c 2
 942 113 l 2
 942 83 925 56 899 41 c 2
 554 -153 l 2
 541 -160.5 526.5 -164.25 512 -164.25 c 0
 497.5 -164.25 483 -160.5 470 -153 c 2
 125 41 l 2
 99 56 82 83 82 113 c 2
 82 501 l 2
 82 531 99 558 125 573 c 2
 470 767 l 2
 483 774 497 778 512 778 c 0
512 737 m 0
 504 737 497 736 490 732 c 2
 145 538 l 2
 131 530 123 516 123 501 c 2
 123 113 l 2
 123 98 131 85 145 77 c 2
 490 -117 l 2
 497 -121 504.5 -123 512 -123 c 0
 519.5 -123 527 -121 534 -117 c 2
 879 77 l 2
 893 85 901 98 901 113 c 2
 901 501 l 2
 901 516 893 530 879 538 c 2
 534 732 l 2
 527 736 520 737 512 737 c 0
512 573 m 0
 596 573 674 534 724 468 c 2
 738 450 l 1
 614 378 l 1
 603 390 l 2
 580 415 547 430 512 430 c 0
 444 430 389 375 389 307 c 0
 389 239 444 184 512 184 c 0
 547 184 580 199 603 224 c 2
 614 236 l 1
 738 165 l 1
 724 146 l 2
 674 80 596 41 512 41 c 0
 365 41 246 160 246 307 c 0
 246 454 365 573 512 573 c 0
512 532 m 0
 388 532 287 431 287 307 c 0
 287 183 388 82 512 82 c 0
 575 82 633 109 675 154 c 2
 619 186 l 2
 589 160 552 143 512 143 c 0
 422 143 348 217 348 307 c 0
 348 397 422 471 512 471 c 0
 552 471 589 454 619 428 c 2
 675 461 l 2
 633 506 575 532 512 532 c 0
717 410 m 1
 758 410 l 1
 758 369 l 1
 799 369 l 1
 799 410 l 1
 840 410 l 1
 840 369 l 1
 881 369 l 1
 881 328 l 1
 840 328 l 1
 840 287 l 1
 881 287 l 1
 881 246 l 1
 840 246 l 1
 840 205 l 1
 799 205 l 1
 799 246 l 1
 758 246 l 1
 758 205 l 1
 717 205 l 1
 717 246 l 1
 676 246 l 1
 676 287 l 1
 717 287 l 1
 717 328 l 1
 676 328 l 1
 676 369 l 1
 717 369 l 1
 717 410 l 1
758 328 m 1
 758 287 l 1
 799 287 l 1
 799 328 l 1
 758 328 l 1
EndSplineSet
Validated: 1
EndChar

StartChar: uniF3E1
Encoding: 62433 62433 20
Width: 1024
VWidth: 0
Flags: W
HStem: -164 225<452.151 571.04> 164 287<437.839 587.935> 287 41<676 717 758 799 840 881> 553 225<452.151 571.04>
VStem: 82 184<205.703 408.297> 758 41<205 246 287 328 369 410> 840 102<205 246 287 328 369 410> 881 61<246 287 328 369>
LayerCount: 2
Fore
SplineSet
512 778 m 0x9d
 527 778 541 774 554 767 c 2
 899 573 l 2
 925 558 942 531 942 501 c 2
 942 113 l 2
 942 83 925 56 899 41 c 2
 554 -153 l 2
 541 -160 527 -164 512 -164 c 0
 497 -164 483 -160 470 -153 c 2
 125 41 l 2
 99 56 82 83 82 113 c 2
 82 501 l 2
 82 531 99 558 125 573 c 2
 470 767 l 2
 483 774 497 778 512 778 c 0x9d
512 553 m 0
 376 553 266 443 266 307 c 0
 266 171 376 61 512 61 c 0
 589 61 661 97 707 158 c 2
 618 210 l 2
 591 180 552 164 512 164 c 0
 433 164 369 228 369 307 c 0
 369 386 433 451 512 451 c 0xdc
 552 451 591 434 618 404 c 2
 707 456 l 2
 661 517 589 553 512 553 c 0
717 410 m 1
 717 369 l 1
 676 369 l 1
 676 328 l 1
 717 328 l 1
 717 287 l 1
 676 287 l 1
 676 246 l 1
 717 246 l 1
 717 205 l 1
 758 205 l 1
 758 246 l 1
 799 246 l 1
 799 205 l 1
 840 205 l 1
 840 246 l 1xbe
 881 246 l 1
 881 287 l 1xbd
 840 287 l 1
 840 328 l 1xbe
 881 328 l 1
 881 369 l 1xbd
 840 369 l 1
 840 410 l 1xbe
 799 410 l 1
 799 369 l 1
 758 369 l 1
 758 410 l 1
 717 410 l 1
758 328 m 1
 799 328 l 1
 799 287 l 1
 758 287 l 1
 758 328 l 1
EndSplineSet
Validated: 1
EndChar

StartChar: uniF333
Encoding: 62259 62259 21
Width: 1066
VWidth: 0
Flags: W
HStem: -189 128<401.793 652.006> 52 142<372 513.013> 60 128<692 832.175> 421 146<467.045 581.068> 675 128<401.793 666.196>
VStem: 31 128<181.793 432.207> 239 172<215.466 358.301> 895 128<262.499 472.035>
LayerCount: 2
Fore
SplineSet
527 803 m 0xbf
 803 803 1023 628 1023 355 c 0
 1023 203 940 60 722 60 c 0xbf
 662 60 600 61 581 129 c 1
 546 84 485 52 431 52 c 0xdf
 313 52 239 133 239 264 c 0
 239 442 366 567 515 567 c 0
 554 567 606 559 635 523 c 1
 637 536 648 547 661 547 c 0
 751 547 l 2
 781 547 805 520 799 490 c 2
 752 248 l 2
 745 214 744 189 779 188 c 0
 853 196 895 277 895 355 c 0
 895 560 727 675 527 675 c 0
 324 675 159 510 159 307 c 0
 159 104 324 -61 527 -61 c 0
 598 -61 667 -40 726 -2 c 0
 746 11 774 6 789 -13 c 2
 809 -38 l 2
 827 -60 822 -92 798 -108 c 0
 718 -160 623 -189 527 -189 c 0
 253 -189 31 33 31 307 c 0
 31 581 253 803 527 803 c 0xbf
484 194 m 0xdf
 533 194 600 250 600 340 c 0
 600 391 574 421 529 421 c 0
 473 421 411 366 411 276 c 0
 411 226 440 194 484 194 c 0xdf
EndSplineSet
Validated: 33
EndChar

StartChar: uniF28E
Encoding: 62094 62094 22
Width: 916
VWidth: 0
Flags: W
HStem: -141 640<429.632 679.5>
VStem: 83 629<192.841 371.036>
LayerCount: 2
Fore
SplineSet
712 282 m 0
 712 278 706 159 836 98 c 1
 812 24 728 -140 631 -141 c 0
 575 -141 542 -105 478 -105 c 0
 412 -105 376 -140 326 -141 c 0
 230 -144 138 37 112 110 c 0
 93 166 83 220 83 272 c 0
 83 449 201 537 313 539 c 0
 367 539 436 499 466 499 c 0
 494 499 572 547 643 541 c 0
 718 535 774 505 812 451 c 1
 745 410 712 355 712 282 c 0
599 610 m 0
 560 564 512 538 460 542 c 1
 456 597 476 645 511 685 c 0
 543 722 599 752 647 755 c 1
 649 734 654 675 599 610 c 0
EndSplineSet
Validated: 33
EndChar

StartChar: uniF339
Encoding: 62265 62265 23
Width: 1024
VWidth: 0
Flags: W
HStem: 182 119<461.193 543.001> 356 109<501.224 576.516> 366 1<379 380.934>
VStem: 16 992<33 581>
LayerCount: 2
Fore
SplineSet
1008 307 m 0x90
 1008 33 786 -189 512 -189 c 0
 238 -189 16 33 16 307 c 0
 16 581 238 803 512 803 c 0
 786 803 1008 581 1008 307 c 0x90
725 378 m 0
 735 444 685 479 616 503 c 1
 638 592 l 1
 583 606 l 1
 562 519 l 1
 548 523 533 526 518 529 c 1
 540 617 l 1
 486 630 l 1
 463 541 l 1
 451 544 440 546 429 549 c 1
 354 568 l 1
 339 510 l 1
 339 510 380 501 379 500 c 1
 401 494 405 481 404 469 c 2
 379 367 l 2
 381 367 382 366 384 365 c 1
 382 365 380 366 378 366 c 2xb0
 343 224 l 2
 340 217 333 207 318 211 c 1
 319 210 278 221 278 221 c 1
 251 158 l 1
 322 141 l 2
 335 138 348 134 361 131 c 1
 338 40 l 1
 393 27 l 1
 415 116 l 1
 427 113 447 108 459 105 c 1
 436 16 l 1
 491 2 l 1
 513 93 l 1
 606 75 676 82 705 166 c 0
 729 234 704 273 655 298 c 1
 691 306 718 330 725 378 c 0
600 204 m 0
 583 136 470 173 433 182 c 1
 463 301 l 1
 500 292 618 274 600 204 c 0
617 379 m 0
 602 318 507 348 476 356 c 1
 503 465 l 1xd0
 534 457 633 443 617 379 c 0
EndSplineSet
Validated: 37
EndChar

StartChar: uniF33A
Encoding: 62266 62266 24
Width: 829
VWidth: 0
Flags: W
LayerCount: 2
Fore
SplineSet
723 298 m 1
 419 112 l 1
 115 298 l 1
 419 819 l 1
 723 298 l 1
419 52 m 1
 723 238 l 1
 419 -205 l 1
 115 238 l 1
 419 52 l 1
EndSplineSet
Validated: 1
EndChar

StartChar: uniF33B
Encoding: 62267 62267 25
Width: 1024
VWidth: 0
Flags: W
VStem: 512 41<-102 50 199 420 464 708>
LayerCount: 2
Fore
SplineSet
532 799 m 0
 539 799 548 794 551 788 c 2
 836 340 l 1
 836 339 l 2
 837 339 l 0
 837 338 l 0
 838 337 l 0
 838 336 l 0
 838 335 l 0
 839 334 l 0
 839 333 l 0
 839 331 l 0
 840 329 l 0
 840 328 l 0
 840 326 l 0
 839 325 l 0
 839 324 839 324 839 323 c 0
 839 322 l 0
 839 321 l 0
 838 321 l 0
 838 320 l 0
 838 319 l 0
 837 317 l 0
 835 315 l 0
 834 314 l 0
 833 312 l 0
 831 311 l 0
 829 310 l 0
 545 147 l 2
 542 145 536 143 532 143 c 0
 528 143 523 145 520 147 c 2
 236 310 l 2
 235 310 l 0
 234 311 233 311 232 312 c 0
 232 313 l 0
 231 314 l 0
 230 315 l 0
 229 316 l 0
 228 317 l 0
 227 319 l 0
 227 320 226 320 226 321 c 0
 226 322 l 0
 226 323 226 324 226 325 c 0
 225 325 l 0
 225 326 225 326 225 327 c 0
 225 328 l 0
 225 329 226 330 226 331 c 0
 226 332 227 334 227 335 c 0
 227 336 227 337 227 337 c 0
 227 338 229 338 229 339 c 2
 514 787 l 2
 517 793 525 799 532 799 c 0
512 708 m 1
 299 373 l 1
 512 464 l 1
 512 708 l 1
553 708 m 1
 553 464 l 1
 766 373 l 1
 553 708 l 1
512 420 m 1
 292 325 l 1
 512 199 l 1
 512 420 l 1
553 420 m 1
 553 199 l 1
 773 325 l 1
 553 420 l 1
819 246 m 0
 830 246 840 236 840 225 c 0
 840 221 838 216 836 213 c 2
 550 -174 l 2
 547 -180 539 -185 532 -185 c 0
 525 -185 518 -180 515 -174 c 2
 229 213 l 2
 227 216 225 221 225 225 c 0
 225 236 235 246 246 246 c 0
 249 246 253 244 256 243 c 2
 532 85 l 1
 809 243 l 2
 812 245 816 246 819 246 c 0
320 159 m 1
 512 -102 l 1
 512 50 l 1
 320 159 l 1
745 159 m 1
 553 50 l 1
 553 -102 l 1
 745 159 l 1
EndSplineSet
Validated: 5
EndChar

StartChar: uniF3D7
Encoding: 62423 62423 26
Width: 1354
VWidth: 0
Flags: W
HStem: -141 160<610.44 1299.56>
LayerCount: 2
Fore
SplineSet
543 273 m 2
 154 -115 l 2
 144.5 -124.5 132.25 -129.25 120 -129.25 c 0
 107.75 -129.25 95.5 -124.5 86 -115 c 2
 41 -70 l 2
 31.5 -60.5 26.75 -48.25 26.75 -36 c 0
 26.75 -23.75 31.5 -11.5 41 -2 c 2
 349 307 l 1
 41 617 l 2
 31.5 626.5 26.75 638.5 26.75 650.5 c 0
 26.75 662.5 31.5 674.5 41 684 c 2
 86 730 l 2
 95.5 739.5 107.75 744.25 120 744.25 c 0
 132.25 744.25 144.5 739.5 154 730 c 2
 543 341 l 2
 552.5 331.5 557.25 319.25 557.25 307 c 0
 557.25 294.75 552.5 282.5 543 273 c 2
1307 -93 m 2
 1307 -120 1286 -141 1259 -141 c 2
 651 -141 l 2
 624 -141 603 -120 603 -93 c 2
 603 -29 l 2
 603 -2 624 19 651 19 c 2
 1259 19 l 2
 1286 19 1307 -2 1307 -29 c 2
 1307 -93 l 2
EndSplineSet
Validated: 1
EndChar

StartChar: uniF3F5
Encoding: 62453 62453 27
Width: 1024
VWidth: 0
Flags: W
LayerCount: 2
Fore
SplineSet
733 413 m 0
 775 170 653 22 588 -39 c 0
 587 -40 588 -40 587 -41 c 0
 571 -56 558 -66 553 -69 c 0
 546 -77 540 -86 538 -97 c 0
 530 -132 535 -205 535 -205 c 1
 508 -196 l 1
 508 -196 510 -121 491 -77 c 0
 479 -68 431 -31 384 31 c 2
 370 49 356 69 344 91 c 2
 313 146 288 214 283 294 c 2
 282 310 282 326 283 343 c 0
 293 545 384 670 442 730 c 2
 443 731 l 2
 453 741 461 749 468 755 c 2
 471 758 474 760 476 762 c 2
 477 763 478 764 479 765 c 2
 480 766 481 765 482 766 c 2
 483 767 l 0
 484 767 483 768 484 768 c 0
 485 769 l 0
 485 770 l 2
 486 770 l 1
 486 771 l 1
 487 771 l 1
 487 772 l 1
 488 772 l 1
 488 773 l 1
 489 773 l 1
 489 774 l 1
 490 774 l 1
 490 775 l 1
 491 775 l 1
 491 776 l 1
 492 776 l 1
 492 777 l 1
 492 778 l 1
 493 778 l 1
 493 779 l 1
 494 779 l 1
 494 780 l 1
 494 779 l 1
 494 780 l 1
 495 780 l 1
 495 781 l 2
 496 781 l 1
 496 782 l 2
 497 783 l 2
 497 784 l 1
 498 784 l 1
 498 785 l 1
 498 786 l 1
 499 786 l 1
 499 787 l 1
 500 787 l 1
 500 788 l 1
 500 789 l 1
 501 789 l 1
 501 790 l 1
 501 791 l 1
 502 791 l 1
 502 792 l 1
 502 793 l 1
 503 794 l 0
 503 795 l 2
 503 796 l 2
 503 797 l 1
 504 797 l 1
 504 798 l 1
 504 799 l 1
 504 800 l 1
 505 800 l 1
 505 801 l 1
 505 802 l 1
 505 803 l 1
 505 804 l 2
 506 804 l 1
 506 805 l 2
 506 806 506 806 506 807 c 2
 506 808 l 2
 506 809 l 2
 506 810 l 2
 506 811 l 2
 506 812 l 2
 506 813 l 2
 507 814 l 2
 507 815 l 2
 507 816 507 816 507 817 c 2
 507 818 507 818 507 819 c 2
 507 819 523 779 538 758 c 0
 552 728 679 650 733 413 c 0
EndSplineSet
Validated: 37
EndChar

StartChar: uniF3F4
Encoding: 62452 62452 28
Width: 1141
VWidth: 0
Flags: W
HStem: -205 255<329.312 800.688> 115 255<329.312 800.688> 435 384<332.884 797.116>
LayerCount: 2
Fore
SplineSet
1013 673 m 2
 1013 581 l 2
 1013 500 812 435 565 435 c 0
 318 435 117 500 117 581 c 2
 117 673 l 2
 117 754 318 819 565 819 c 0
 812 819 1013 754 1013 673 c 2
1013 467 m 1
 1013 261 l 2
 1013 180 812 115 565 115 c 0
 318 115 117 180 117 261 c 2
 117 467 l 1
 213 401 389 370 565 370 c 0
 741 370 917 401 1013 467 c 1
1013 147 m 1
 1013 -59 l 2
 1013 -140 812 -205 565 -205 c 0
 318 -205 117 -140 117 -59 c 2
 117 147 l 1
 213 81 389 50 565 50 c 0
 741 50 917 81 1013 147 c 1
EndSplineSet
Validated: 1
EndChar

StartChar: uniF3F3
Encoding: 62451 62451 29
Width: 1132
VWidth: 0
Flags: W
HStem: -205 96<357.838 754.162> -13 97<358.061 753.939> 179 98<358.061 753.939> 371 96<358.061 753.939> 723 96<357.838 754.162>
VStem: 108 96<-23.2774 69 164.681 261 357.681 453 548.558 638.26> 908 96<-23.2774 69 164.681 261 357.681 453 548.558 638.26>
LayerCount: 2
Fore
SplineSet
556 723 m 0
 362 723 204 668 204 600 c 2
 204 591 l 2
 204 523 362 467 556 467 c 0
 750 467 908 523 908 591 c 2
 908 600 l 2
 908 668 750 723 556 723 c 0
908 453 m 1
 832 397 694 371 556 371 c 0
 418 371 280 397 204 453 c 1
 204 400 l 2
 204 332 362 277 556 277 c 0
 750 277 908 332 908 400 c 2
 908 453 l 1
908 261 m 1
 832 205 694 179 556 179 c 0
 418 179 280 205 204 261 c 1
 204 207 l 2
 204 139 362 84 556 84 c 0
 750 84 908 139 908 207 c 2
 908 261 l 1
908 69 m 1
 832 13 694 -13 556 -13 c 0
 418 -13 280 13 204 69 c 1
 204 15 l 2
 204 -53 362 -109 556 -109 c 0
 750 -109 908 -53 908 15 c 2
 908 69 l 1
556 819 m 0
 730 819 1004 773 1004 600 c 2
 1004 15 l 2
 1004 -158 730 -205 556 -205 c 0
 382 -205 108 -158 108 15 c 2
 108 600 l 2
 108 773 382 819 556 819 c 0
EndSplineSet
Validated: 1
EndChar

StartChar: uniF2B7
Encoding: 62135 62135 30
Width: 889
VWidth: 0
Flags: W
HStem: 563 35<492 532.862> 669 98<471.24 523>
VStem: 542 72.5996<599.555 632.736>
LayerCount: 2
Back
SplineSet
-51 817.15234375 m 25
 973 821.248046875 l 25
 973 -206.84765625 l 25
 -51 -202.751953125 l 25
 -51 817.15234375 l 25
EndSplineSet
Fore
SplineSet
171 -19 m 29
 178 -22 187 -27 188 -27 c 4
 189 -27 212 -27 212 -27 c 29
 229 -21 l 29
 231 -23 l 29
 238 -46 l 29
 245 -62 l 29
 265 -75 l 29
 282 -81 l 29
 282 -81 298 -80 299 -80 c 4
 300 -80 317 -76 317 -76 c 29
 317 -76 321 -92 322 -93 c 4
 323 -94 326 -107 326 -107 c 29
 339 -120 l 29
 348 -127 l 29
 329 -148 l 29
 310 -163 l 29
 291 -171 l 29
 268 -178 l 29
 243 -177 l 29
 222 -173 l 29
 206 -164 l 29
 187 -151 l 29
 174 -137 l 29
 174 -137 163 -119 163 -118 c 4
 163 -117 155 -96 156 -96 c 4
 157 -96 153 -72 154 -71 c 4
 155 -70 160 -40 160 -40 c 29
 171 -19 l 29
700 -16 m 29
 707 -29 l 29
 715 -50 l 29
 716 -79 l 29
 712 -108 l 29
 695 -140 l 29
 695 -140 676 -159 672 -160 c 4
 668 -161 657 -169 655 -170 c 4
 653 -171 630 -175 629 -175 c 4
 628 -175 600 -176 600 -176 c 29
 600 -176 579 -172 578 -171 c 4
 577 -170 559 -162 558 -161 c 4
 557 -160 544 -151 543 -150 c 4
 542 -149 532 -139 532 -139 c 29
 520 -123 l 29
 527 -120 l 29
 541 -106 l 29
 548 -89 l 29
 553 -72 l 29
 553 -72 569 -74 570 -74 c 4
 571 -74 585 -77 585 -77 c 29
 585 -77 600 -74 601 -74 c 4
 602 -74 615 -68 615 -68 c 29
 615 -68 629 -50 630 -50 c 4
 631 -50 634 -36 634 -36 c 29
 640 -18 l 29
 653 -21 l 29
 671 -24 l 29
 689 -22 l 29
 700 -16 l 29
648 502 m 29
 639 507 l 29
 640 538 l 29
 648 560 l 29
 660 581 l 29
 679 595 l 29
 706 609 l 29
 723 615 l 29
 736 615 l 29
 757 615 l 29
 776 610 l 29
 776 610 797 600 796 600 c 4
 795 600 811 589 811 589 c 29
 822 578 l 29
 831 564 l 29
 840 544 l 29
 844 520 l 29
 844 496 l 29
 843 478 l 29
 839 455 l 29
 832 434 l 29
 825 414 l 29
 815 393 l 29
 803 374 l 29
 787 352 l 29
 783 346 l 29
 778 351 l 29
 778 379 l 29
 773 395 l 29
 765 406 l 29
 756 415 l 29
 743 421 l 29
 733 424 l 29
 713 425 l 29
 711 426 l 29
 711 448 l 29
 708 465 l 29
 708 465 703 480 702 480 c 4
 701 480 685 494 685 494 c 29
 668 499 l 29
 648 502 l 29
102 358 m 29
 107 353 l 29
 107 344 l 29
 111 316 l 29
 123 298 l 29
 123 298 139 286 140 286 c 4
 141 286 157 284 159 283 c 4
 161 282 178 282 178 282 c 29
 179 270 l 29
 183 241 l 29
 200 220 l 29
 218 212 l 29
 240 211 l 29
 246 205 l 29
 250 190 l 29
 248 166 l 29
 238 145 l 29
 238 145 219 126 219 125 c 4
 219 124 193 109 193 108 c 4
 193 107 173 104 173 104 c 29
 143 105 l 29
 125 107 l 29
 107 113 l 29
 83 130 l 29
 63 160 l 29
 53 188 l 29
 52 230 l 29
 57 260 l 29
 65 286 l 29
 80 322 l 29
 102 358 l 29
285.896484375 458.776367188 m 21
 288.286132812 460.54296875 290.674804688 461.926757812 293.064453125 465.944335938 c 5
 294.344726562 469.349609375 294.271484375 472.754882812 293.087890625 476.16015625 c 13
 286.919921875 484.328125 l 29
 277.704101562 497.711914062 l 29
 265.416015625 524.3359375 l 29
 259.248046875 548.864257812 l 29
 255.15234375 584.704101562 l 29
 257.223632812 620.568359375 l 29
 265.416015625 650.263671875 l 29
 280.776367188 678.935546875 l 29
 301.232421875 708.631835938 l 29
 301.232421875 708.631835938 328.904296875 731.135742188 328.904296875 732.16015625 c 4
 328.904296875 733.18359375 356.551757812 749.543945312 356.551757812 749.543945312 c 29
 388.3203125 760.856445312 l 29
 412.872070312 767 l 29
 435.400390625 767 l 29
 471.240234375 764.975585938 l 29
 498.887695312 756.759765625 l 29
 530.65625 741.375976562 l 29
 555.232421875 722.944335938 l 29
 578.807617188 697.3203125 l 29
 594.16796875 673.767578125 l 29
 606.408203125 647.120117188 l 29
 610.50390625 632.736328125 l 29
 614.624023438 606.015625 l 29
 614.599609375 562.127929688 l 29
 609.528320312 538.624023438 l 29
 600.263671875 512 l 29
 585.927734375 487.400390625 l 29
 578.759765625 479.208007812 l 5
 579 468 l 29
 580.83203125 462.84765625 l 5
 590.024414062 458.751953125 l 29
 606.408203125 461.84765625 l 29
 611.599609375 464.967773438 l 29
 615.624023438 469.040039062 l 29
 620.791992188 461.82421875 l 29
 633.055664062 455.704101562 l 5
 646.34375 452.631835938 l 5
 666 452 l 5
 663.751953125 436.223632812 l 5
 666 416 l 5
 672.967773438 400.383789062 l 5
 686 387 l 5
 706.759765625 378.879882812 l 5
 732 376 l 5
 731 365 l 5
 733.360351562 338.944335938 l 5
 739 326 l 5
 752 314 l 5
 732.360351562 300.032226562 l 5
 710.856445312 286.744140625 l 29
 684.232421875 275.456054688 l 29
 665.799804688 268.240234375 l 29
 648.391601562 264.240234375 l 21
 640.862304688 259.705078125 631.99609375 256.127929688 626.887695312 249.856445312 c 13
 615.6484375 230.328125 l 29
 614.599609375 206.84765625 l 29
 614.599609375 176.127929688 l 29
 614.599609375 150.528320312 l 29
 616.6484375 121.856445312 l 29
 616.6484375 121.856445312 620.4609375 96.310546875 620.791992188 97.2802734375 c 4
 621.141601562 98.3037109375 638.776367188 57.34375 638.15234375 57.34375 c 13
 659.65625 23.599609375 l 29
 643.272460938 28.6484375 l 29
 630.984375 26.6240234375 l 29
 616.6484375 20.48046875 l 29
 606.408203125 12.2880859375 l 29
 598.263671875 1 l 29
 598.263671875 1 590.024414062 -18.431640625 590.024414062 -19.4560546875 c 4
 590.024414062 -27.6484375 l 29
 584.904296875 -30.7197265625 l 29
 575.688476562 -28.671875 l 29
 555.208007812 -24.576171875 l 29
 542.919921875 -26.6240234375 l 29
 527.559570312 -33.7919921875 l 21
 521.115234375 -37.9853515625 517.041992188 -43.01171875 513.223632812 -48.1279296875 c 13
 509.103515625 -60.4404296875 l 29
 503.0078125 -77.82421875 l 29
 500.984375 -81.919921875 l 29
 491.719726562 -91.1357421875 l 29
 476.360351562 -68.6083984375 l 29
 466.095703125 -53.248046875 l 29
 455.879882812 -31.744140625 l 29
 444.616210938 -10.240234375 l 29
 436.400390625 12.2880859375 l 29
 429.255859375 -1.0244140625 l 29
 414.919921875 -28.671875 l 29
 399.559570312 -59.3916015625 l 29
 378.080078125 -93.16015625 l 29
 366.744140625 -81.919921875 l 29
 361.6484375 -60.416015625 l 29
 361.6484375 -60.416015625 355.528320312 -47.0556640625 354.50390625 -47.0556640625 c 4
 353.48046875 -47.0556640625 341.16796875 -35.83984375 341.16796875 -35.83984375 c 29
 331.927734375 -30.7197265625 l 29
 331.927734375 -30.7197265625 313.543945312 -27.6962890625 312.51953125 -27.6962890625 c 4
 311.49609375 -27.6962890625 280.84765625 -34.767578125 280.84765625 -34.767578125 c 29
 276.65625 -10.2880859375 l 29
 268.48828125 5.1201171875 l 29
 255.15234375 17.408203125 l 29
 241.864257812 23.5283203125 l 29
 226.50390625 23.576171875 l 5
 209 22 l 29
 231.624023438 54.2724609375 l 5
 242.912109375 79.9677734375 l 29
 253.127929688 114.736328125 l 29
 257.248046875 147.456054688 l 29
 257.248046875 178.17578125 l 29
 257.248046875 208.896484375 l 29
 257.248046875 243.711914062 l 21
 255.265625 249.08203125 252.982421875 254.295898438 245.935546875 257.047851562 c 13
 225.48046875 256.024414062 l 29
 225.48046875 272.383789062 l 29
 225.431640625 292.864257812 l 29
 215.240234375 308.248046875 l 29
 198.856445312 321.583984375 l 29
 173.255859375 328.704101562 l 29
 153.799804688 329.727539062 l 29
 151.751953125 363.543945312 l 21
 151.185546875 369.346679688 147.693359375 375.149414062 142.536132812 380.952148438 c 13
 131.295898438 390.16796875 l 29
 131.295898438 390.16796875 148.6796875 404.50390625 148.6796875 405.528320312 c 4
 148.6796875 406.551757812 174.280273438 422.959960938 174.280273438 422.959960938 c 29
 203.975585938 438.3203125 l 29
 229.576171875 446.536132812 l 29
 260.295898438 454.704101562 l 29
 285.896484375 458.776367188 l 21
434 212 m 5
 425 211 417 210 413 206 c 13
 413 206 402 196 401 196 c 4
 400 196 392 183 392 183 c 29
 390 172 l 5
 389 166 391 160 392 154 c 13
 399 141 l 29
 413 129 l 29
 429 124 l 29
 448 126 l 21
 455 127 460 131 465 135 c 5
 469 142 474 147 476 156 c 13
 478 180 l 21
 474 185 474 192 467 197 c 5
 469 197 459 207 455 207 c 4
 454 207 447 212 434 212 c 5
434 357 m 29
 422 355 l 29
 408 348 l 29
 398 338 l 29
 390 327 l 29
 389 315 l 29
 390 304 l 29
 396 291 l 29
 403 283 l 29
 413 275 l 29
 425 269 l 29
 443 268 l 29
 462 279 l 29
 474 293 l 29
 478 311 l 29
 477 326 l 29
 470 339 l 29
 463 348 l 29
 452 355 l 29
 434 357 l 29
344 558 m 29
 337 547 l 5
 337 534 l 29
 344 519 l 29
 356 505 l 29
 374 493 l 29
 395 479 l 29
 419 476 l 21
 433 474 443 475 455 475 c 5
 471 479 483 483 493 489 c 13
 517 508 l 29
 535 530 l 5
 533 549 l 21
 530 553 530 556 523 560 c 5
 519 562 515 564 505 563 c 5
 498 560 494 558 493 555 c 13
 485 545 l 29
 473 535 l 29
 457 526 l 29
 438 522 l 29
 419 523 l 29
 400 535 l 29
 383 550 l 29
 373 561 l 29
 363 564 l 29
 350 562 l 5
 344 558 l 29
506 669 m 5
 501 668 495 668 492 667 c 5
 487 664 482 661 479 658 c 13
 473 649 l 29
 469 636 l 21
 470 629 471 620 473 616 c 13
 481 606 l 29
 492 600 l 29
 509 598 l 21
 518 598 525 601 528 605 c 5
 536 611 535 615 539 621 c 5
 541 625 542 631 542 641 c 13
 535 655 l 5
 523 666 l 21
 517 668 510 670 506 669 c 5
365 670 m 21
 357 670 350 668 345 663 c 5
 339 658 336 654 333 651 c 5
 330 637 l 21
 330 631 330 625 332 622 c 5
 334 617 334 609 339 609 c 5
 343 601 347 603 351 600 c 5
 372 597 l 5
 378 597 388 604 386 605 c 5
 394 608 396 616 401 622 c 5
 402 645 l 29
 394 656 l 29
 386 666 l 29
 365 670 l 21
EndSplineSet
Validated: 33
EndChar

StartChar: uniF2B8
Encoding: 62136 62136 31
Width: 1261
VWidth: 0
Flags: W
HStem: -205 64<362 522 778 938> -77 64<586 714> 51 64<1046.1 1130> 243 64<115.307 170 875.411 936.589> 307 64<1092.96 1130> 403 64<114.56 170> 499 64<432.306 745.736> 755 64<507.694 664.306>
VStem: 170 64<140.898 243> 298 64<-141 6.19086> 362 64<557.285 673.306> 522 64<-141 -77> 714 64<-141 -77> 746 64<575 673.306> 874 64<244.411 305.589> 938 64<-141 7.4354 480.108 561> 1130 64<115 307>
LayerCount: 2
Fore
SplineSet
906 307 m 0xf79280
 924 307 938 293 938 275 c 0
 938 257 924 243 906 243 c 0
 888 243 874 257 874 275 c 0
 874 293 888 307 906 307 c 0xf79280
1162 371 m 2xefb580
 1180 371 1194 357 1194 339 c 2
 1194 83 l 2
 1194 65 1180 51 1162 51 c 2
 1065 51 l 1
 1047 27 1025 7 1002 -11 c 1
 1002 -173 l 2
 1002 -191 988 -205 970 -205 c 2
 746 -205 l 2xefb580
 728 -205 714 -191 714 -173 c 2
 714 -77 l 1
 586 -77 l 1
 586 -173 l 2
 586 -191 572 -205 554 -205 c 2
 330 -205 l 2
 312 -205 298 -191 298 -173 c 2
 298 -11 l 1
 221 47 170 139 170 243 c 1
 154 243 l 2
 87 243 34 302 43 370 c 0
 50 426 101 467 158 467 c 0
 165 467 170 462 170 455 c 2
 170 415 l 2
 170 408 165 403 158 403 c 2
 156 403 l 2
 133 403 111 388 107 365 c 0
 101 334 124 307 154 307 c 2xf7d880
 176 307 l 1
 198 413 272 499 370 539 c 1
 365 557 362 576 362 595 c 0
 362 719 462 819 586 819 c 0
 710 819 810 719 810 595 c 0
 810 588 809 582 808 575 c 1
 854 607 909 627 970 627 c 2
 1002 627 l 1
 1002 498 l 1
 1046 465 1081 422 1103 371 c 1
 1162 371 l 2xefb580
586 755 m 0
 498 755 426 683 426 595 c 0
 426 582 428 569 431 557 c 1
 450 561 470 563 490 563 c 2
 743 563 l 1
 745 573 746 584 746 595 c 0
 746 683 674 755 586 755 c 0
1130 115 m 1
 1130 307 l 1
 1061 307 l 1xefd980
 1026 387 1017 406 938 466 c 1
 938 561 l 1
 880 552 847 526 813 499 c 1
 490 499 l 2
 349 499 234 384 234 243 c 0
 234 207 232 119 362 21 c 1xf7b980
 362 -141 l 1
 522 -141 l 1
 522 -13 l 1
 778 -13 l 1
 778 -141 l 1xf7d880
 938 -141 l 1
 938 21 l 1
 999 67 999 70 1033 115 c 1
 1130 115 l 1
EndSplineSet
Validated: 33
EndChar

StartChar: uniF2B9
Encoding: 62137 62137 32
Width: 1231
VWidth: 0
Flags: W
HStem: 243 64<106.307 225> 403 64<105.56 161> 627 192<553.609 728.391>
VStem: 353 192<-203.589 -77> 801 192<-203.589 -77>
LayerCount: 2
Fore
SplineSet
1153 371 m 2
 1171 371 1185 357 1185 339 c 2
 1185 83 l 2
 1185 65 1171 51 1153 51 c 2
 1056 51 l 1
 1038 27 1017 7 993 -11 c 1
 993 -173 l 2
 993 -191 979 -205 961 -205 c 2
 833 -205 l 2
 815 -205 801 -191 801 -173 c 2
 801 -77 l 1
 545 -77 l 1
 545 -173 l 2
 545 -191 531 -205 513 -205 c 2
 385 -205 l 2
 367 -205 353 -191 353 -173 c 2
 353 -11 l 1
 276 47 225 139 225 243 c 1
 145 243 l 2
 78 243 25 302 34 370 c 0
 41 426 92 467 149 467 c 0
 156 467 161 462 161 455 c 2
 161 415 l 2
 161 408 156 403 149 403 c 2
 147 403 l 2
 124 403 102 388 98 365 c 0
 92 334 115 307 145 307 c 2
 231 307 l 1
 261 453 390 563 545 563 c 2
 801 563 l 2
 817 563 832 561 847 559 c 1
 882 601 934 627 993 627 c 2
 1057 627 l 1
 1019 476 l 1
 1051 446 1076 411 1094 371 c 1
 1153 371 l 2
897 243 m 0
 915 243 929 257 929 275 c 0
 929 293 915 307 897 307 c 0
 879 307 865 293 865 275 c 0
 865 257 879 243 897 243 c 0
545 627 m 2
 512 627 480 623 450 615 c 1
 450 619 449 623 449 627 c 0
 449 733 535 819 641 819 c 0
 747 819 833 733 833 627 c 0
 833 626 833 627 833 626 c 1
 823 627 812 627 801 627 c 2
 545 627 l 2
EndSplineSet
Validated: 33
EndChar

StartChar: uniF2BA
Encoding: 62138 62138 33
Width: 1244
VWidth: 0
Flags: W
HStem: 243 64<111.433 230 871.411 932.589> 403 64<110.56 166> 563 256<563.609 738.391>
VStem: 38 64<316.433 394.973> 358 192<-203.589 -77> 459 384<563.832 714.391> 806 192<-203.589 -77> 870 64<244.411 305.589>
LayerCount: 2
Fore
SplineSet
1158 371 m 2xfa
 1176 371 1190 357 1190 339 c 2
 1190 83 l 2
 1190 65 1176 51 1158 51 c 2
 1061 51 l 1
 1046 31 1018 4 998 -11 c 1
 998 -173 l 2
 998 -191 984 -205 966 -205 c 2
 838 -205 l 2
 820 -205 806 -191 806 -173 c 2
 806 -77 l 1
 550 -77 l 1
 550 -173 l 2
 550 -191 536 -205 518 -205 c 2
 390 -205 l 2
 372 -205 358 -191 358 -173 c 2
 358 -13 l 1
 287 40 230 155 230 243 c 0
 230 405 360 563 550 563 c 2
 806 563 l 2
 822 563 837 561 852 559 c 1
 887 601 939 627 998 627 c 2
 1062 627 l 1
 1024 476 l 1
 1051 451 1084 404 1099 371 c 1
 1158 371 l 2xfa
902 243 m 0
 920 243 934 257 934 275 c 0
 934 293 920 307 902 307 c 0
 884 307 870 293 870 275 c 0xf1
 870 257 884 243 902 243 c 0
141 308 m 0
 144 307 147 307 150 307 c 0
 237 307 l 1
 233 290 230 261 230 243 c 1
 150 243 l 2
 88 243 38 293 38 355 c 0
 38 356 l 0
 38 360 38 366 39 370 c 0
 46 426 97 467 154 467 c 0
 161 467 166 462 166 455 c 2
 166 415 l 2
 166 408 161 403 154 403 c 2
 152 403 l 2
 129 403 107 388 103 365 c 0
 102 362 102 358 102 355 c 0
 102 333 120 312 141 308 c 0
902 307 m 0
 920 307 934 293 934 275 c 0
 934 257 920 243 902 243 c 0
 884 243 870 257 870 275 c 0
 870 293 884 307 902 307 c 0
651 819 m 0
 757 819 843 733 843 627 c 0xf4
 843 608 837 579 831 561 c 0
 824 562 813 563 806 563 c 2
 550 563 l 2xfa
 549 563 l 0
 528 563 494 559 473 554 c 1
 465 573 459 606 459 627 c 0xf4
 459 733 545 819 651 819 c 0
EndSplineSet
Validated: 5
EndChar

StartChar: uniF2BB
Encoding: 62139 62139 34
Width: 1099
VWidth: 0
Flags: W
HStem: 415 64<471.954 622.883> 585 64<437.854 654.879> 755 64<398.64 676.203>
VStem: 39 64<250.641 466.235> 169 63<27.9528 284.438> 188 64<68.2104 411.867> 326 62<-47.1121 116.655> 354 64<58.0342 361.125> 464 61<-202.996 -164 -155 -83.5445> 519 64<43.9555 305.351> 663 63<-52.2461 197.848> 685 64<52.362 353.5> 839 63<18.2812 278.469> 851 63<56.3971 395.284> 999 64<235.649 428.838>
CounterMasks: 1 e0
LayerCount: 2
Fore
SplineSet
551 479 m 0xf102
 659 477 747 390 749 284 c 0xf112
 751 179 743 75 726 -27 c 0
 723 -43 709 -54 694 -54 c 0
 692 -54 691 -54 689 -54 c 0
 672 -51 660 -34 663 -17 c 0xf022
 679 81 687 182 685 283 c 0
 684 355 625 414 551 415 c 0
 538 415 491 415 454 378 c 0
 430 354 418 323 418 289 c 0xf112
 420 184 409 78 388 -24 c 0
 384 -41 368 -51 351 -48 c 0
 334 -44 322 -28 326 -11 c 0xf202
 346 87 356 188 354 288 c 0
 353 339 372 387 408 423 c 0
 445 460 494 478 551 479 c 0xf102
551 307 m 0
 567 307 583 294 583 276 c 0xf042
 585 123 566 -27 525 -173 c 2
 523 -181 l 2
 519 -195 506 -205 492 -205 c 0
 465 -205 457 -177 461 -164 c 2
 464 -155 l 2xf082
 503 -15 521 128 519 275 c 0xf042
 519 293 533 307 551 307 c 0
264 520 m 0
 275 534 295 535 309 524 c 0
 323 513 325 493 314 479 c 0
 273 428 251 366 252 300 c 0xf402
 253 217 247 134 232 53 c 0
 229 38 216 26 201 26 c 0
 199 26 197 27 195 27 c 0
 178 30 166 47 169 64 c 0xf802
 183 141 189 220 188 299 c 0xf402
 187 379 214 458 264 520 c 0
1063 314 m 0
 1063 298 1063 282 1063 266 c 0
 1063 248 1049 234 1031 234 c 2
 1013 234 999 249 999 267 c 0
 999 282 999 298 999 313 c 0
 999 342 995 370 989 398 c 0
 985 415 996 432 1013 436 c 0
 1030 440 1047 429 1051 412 c 0
 1058 380 1063 347 1063 314 c 0
544 819 m 0
 714 817 873 732 971 593 c 0
 981 579 977 559 963 549 c 0
 949 539 929 542 919 556 c 0
 833 678 692 753 543 755 c 0
 423 757 309 712 225 628 c 0
 145 548 101 441 103 328 c 0
 103 312 103 296 103 280 c 0
 103 263 88 249 71 249 c 2
 70 249 l 2
 52 249 39 264 39 282 c 0
 39 297 39 312 39 327 c 0
 37 458 87 580 180 673 c 0
 276 769 404 822 544 819 c 0
547 649 m 0
 747 646 911 485 914 290 c 0xf006
 915 208 911 126 902 45 c 0
 900 29 887 16 871 16 c 0
 870 16 868 17 867 17 c 0
 849 19 837 34 839 52 c 0xf00a
 848 130 852 210 851 289 c 0xf006
 849 450 712 583 546 585 c 0
 522 585 495 583 471 577 c 0
 454 573 437 584 433 601 c 0
 429 618 439 635 456 639 c 0
 479 644 517 649 541 649 c 0
 543 649 545 649 547 649 c 0
EndSplineSet
Validated: 33
EndChar

StartChar: uniF2BC
Encoding: 62140 62140 35
Width: 1099
VWidth: 0
Flags: W
HStem: 395 96<477.423 609.759> 559 96<430.29 644.399> 723 96<402.418 666.425>
VStem: 36 96<241.785 459.776> 162 94<25.8906 320.536> 180 96<61.7515 407.005> 313 94<-46.7347 126.294> 340 96<29.2576 352.409> 500 96<16.25 319.312> 639 95<-51.1094 241.974> 660 96<19.0843 345.429> 809 96<16.9393 259.255> 820 97<28.4935 387.326> 954 94<269.063 443.036> 964 96<227.44 432.41>
CounterMasks: 1 e0
LayerCount: 2
Fore
SplineSet
548 327 m 0xf080
 575 327 596 305 596 279 c 0
 599 81 564 -74 537 -170 c 0
 531 -191 512 -205 491 -205 c 0
 449 -205 440 -163 445 -144 c 0
 484 -5 502 135 500 279 c 0
 500 306 522 327 548 327 c 0xf080
547 491 m 0
 661 489 754 397 756 285 c 0xf1a0
 758 183 751 81 734 -19 c 0
 732 -28 719 -65 679 -58 c 0
 653 -54 635 -29 639 -3 c 0xf0c0
 655 91 662 188 660 284 c 0
 659 344 608 394 545 395 c 0
 476 395 435 342 436 290 c 0xf1a0
 438 187 428 84 407 -16 c 0
 402 -42 377 -58 351 -53 c 0
 325 -48 308 -23 313 3 c 0xf280
 332 96 342 193 340 289 c 0xf180
 338 397 424 491 547 491 c 0
325 530 m 0
 346 513 349 484 332 463 c 0
 294 417 275 361 276 301 c 0xf480
 277 220 270 138 256 58 c 0
 254 49 241 12 201 19 c 0
 175 24 157 49 162 75 c 0xf880
 175 149 181 224 180 299 c 0xf480
 179 380 207 460 258 523 c 0
 275 544 304 547 325 530 c 0
544 655 m 0
 746 652 913 489 916 291 c 0
 916 283 917 270 917 262 c 0xf088
 917 204 912 110 905 52 c 0
 903 34 884 5 851 9 c 0
 825 12 806 37 809 63 c 0xf090
 818 138 821 214 820 290 c 0xf088
 818 436 694 557 543 559 c 0
 520 559 497 557 475 552 c 0
 449 546 423 561 417 587 c 0
 411 613 427 639 453 645 c 0
 483 652 513 656 544 655 c 0
1048 412 m 0xf084
 1060 356 1060 311 1060 267 c 0
 1060 241 1038 220 1012 220 c 2
 1011 220 l 2
 985 220 964 241 964 268 c 0xf082
 964 316 963 348 954 391 c 0
 948 417 965 443 991 449 c 0
 1017 455 1042 438 1048 412 c 0xf084
968 594 m 0
 983 572 978 542 956 527 c 0
 934 512 904 516 889 538 c 0
 809 652 679 721 540 723 c 0
 427 725 323 683 245 605 c 0
 171 531 130 432 132 327 c 2
 132 280 l 2
 131 254 110 234 84 234 c 0
 83 234 l 0
 57 235 35 257 36 283 c 2
 36 326 l 2
 34 457 84 580 177 673 c 0
 273 769 402 821 542 819 c 0
 712 816 871 733 968 594 c 0
EndSplineSet
Validated: 33
EndChar

StartChar: uniF2BD
Encoding: 62141 62141 36
Width: 988
VWidth: 0
Flags: W
HStem: -205 60<266.819 736.181> 524 60<142 152 213 790> 641 60<154.264 353 413 579 639 831.999> 759 60<413 579>
VStem: 353 60<701 759> 467 60<-112.082 487.082> 579 60<701 759>
LayerCount: 2
Fore
SplineSet
912 590 m 2
 917 575 915 558 905 545 c 0
 895 532 880 524 864 524 c 2
 851 524 l 1
 799 -120 l 2
 795 -168 754 -205 706 -205 c 2
 297 -205 l 2
 249 -205 208 -168 204 -120 c 2
 152 524 l 1
 129 524 l 2
 113 524 98 532 88 545 c 0
 78 558 76 575 81 590 c 2
 103 658 l 2
 112 684 136 701 163 701 c 2
 353 701 l 1
 353 763 l 2
 353 794 378 819 409 819 c 2
 583 819 l 2
 614 819 639 794 639 763 c 2
 639 701 l 1
 829 701 l 2
 856 701 880 684 889 658 c 2
 912 590 l 2
413 759 m 1
 413 701 l 1
 579 701 l 1
 579 759 l 1
 413 759 l 1
739 -115 m 2
 790 524 l 1
 213 524 l 1
 264 -115 l 2
 265 -132 280 -145 297 -145 c 2
 706 -145 l 2
 723 -145 738 -132 739 -115 c 2
142 584 m 1
 851 584 l 1
 832 639 l 2
 832 640 830 641 829 641 c 2
 163 641 l 2
 162 641 160 640 160 639 c 2
 142 584 l 1
142 584 m 1024
643 -113 m 0
 626 -112 614 -98 615 -81 c 2
 643 460 l 2
 644 477 657 489 674 488 c 0
 691 487 704 473 703 456 c 2
 675 -84 l 2
 674 -100 661 -113 645 -113 c 0
 644 -113 644 -113 643 -113 c 0
643 -113 m 1024
319 -84 m 2
 290 456 l 2
 289 473 301 487 318 488 c 0
 335 489 349 477 350 460 c 2
 379 -81 l 2
 380 -98 368 -112 351 -113 c 0
 350 -113 350 -113 349 -113 c 0
 333 -113 320 -100 319 -84 c 2
319 -84 m 1024
497 -113 m 0
 480 -113 467 -100 467 -83 c 2
 467 458 l 2
 467 475 480 488 497 488 c 0
 514 488 527 475 527 458 c 2
 527 -83 l 2
 527 -100 514 -113 497 -113 c 0
497 -113 m 1024
EndSplineSet
Validated: 33
EndChar

StartChar: uniF2D8
Encoding: 62168 62168 37
Width: 918
VWidth: 0
Flags: W
HStem: -205 96<174 750> 467 96<590 742> 723 96<174 494>
VStem: 78 96<-109 723> 494 96<563 715> 750 96<-109 467>
LayerCount: 2
Fore
SplineSet
378 121 m 2
 385 114 386 103 379 96 c 2
 344 59 l 2
 341 55 336 53 331 53 c 0
 327 53 322 55 319 58 c 2
 204 166 l 2
 197 173 197 185 204 192 c 2
 319 300 l 2
 326 307 337 306 344 299 c 2
 379 262 l 1
 385 255 384 243 377 237 c 2
 312 179 l 1
 377 121 l 1
 378 121 l 2
818 623 m 2
 836 605 846 580 846 555 c 2
 846 -109 l 2
 846 -162 803 -205 750 -205 c 2
 174 -205 l 2
 121 -205 78 -162 78 -109 c 2
 78 723 l 2
 78 776 121 819 174 819 c 2
 582 819 l 2
 607 819 632 809 650 791 c 2
 818 623 l 2
590 715 m 1
 590 563 l 1
 742 563 l 1
 590 715 l 1
750 -109 m 1
 750 467 l 1
 542 467 l 2
 515 467 494 488 494 515 c 2
 494 723 l 1
 174 723 l 1
 174 -109 l 1
 750 -109 l 1
497 391 m 2
 546 377 l 2
 555 374 561 364 558 355 c 2
 449 -21 l 2
 446 -30 436 -36 427 -33 c 2
 378 -19 l 2
 369 -16 363 -6 366 3 c 2
 475 379 l 2
 478 388 488 394 497 391 c 2
546 237 m 2
 539 244 538 255 545 262 c 2
 580 299 l 2
 587 306 598 307 605 300 c 2
 720 192 l 2
 727 185 727 173 720 166 c 2
 605 58 l 2
 598 51 587 52 580 59 c 2
 545 96 l 1
 545 97 l 2
 539 104 540 115 547 121 c 2
 612 179 l 1
 547 237 l 1
 546 237 l 2
EndSplineSet
Validated: 1
EndChar

StartChar: uniF2D9
Encoding: 62169 62169 38
Width: 928
VWidth: 0
Flags: W
HStem: -205 96<174 750> -45 128<430.104 493.808> 20 63<367.847 430 494 513.214> 275 128<430.192 493.896> 467 96<590 742> 467 64<238 430> 595 64<238 430> 723 96<174 494>
VStem: 78 96<-109 723> 238 192<467 531 595 659> 345 64<222.476 274.154> 430 64<-45 19 339 403> 494 96<563 715> 515 64<83.2505 135.799> 750 96<-109 467>
LayerCount: 2
Fore
SplineSet
818 623 m 2x9382
 836 605 846 580 846 555 c 2
 846 -109 l 2
 846 -162 803 -205 750 -205 c 2
 174 -205 l 2
 121 -205 78 -162 78 -109 c 2
 78 723 l 2
 78 776 121 819 174 819 c 2
 582 819 l 2
 607 819 632 809 650 791 c 2
 818 623 l 2x9382
590 715 m 1x9b8a
 590 563 l 1
 742 563 l 1
 590 715 l 1x9b8a
750 -109 m 1
 750 467 l 1
 542 467 l 2x978a
 515 467 494 488 494 515 c 2
 494 723 l 1
 174 723 l 1
 174 -109 l 1
 750 -109 l 1
494 387 m 2xd3b6
 494 339 l 1
 517 338 539 330 557 316 c 0
 565 310 565 299 558 292 c 2
 534 269 l 2
 528 264 520 264 514 268 c 0
 506 273 497 275 488 275 c 2
 432 275 l 2
 419 275 409 264 409 249 c 0
 409 237 416 226 426 223 c 2
 516 196 l 2
 553 185 579 150 579 110 c 0
 579 61 541 20 494 19 c 1
 494 -29 l 2
 494 -38 487 -45 478 -45 c 2
 446 -45 l 2xd3b6
 437 -45 430 -38 430 -29 c 2
 430 20 l 1xb3b6
 407 21 385 28 367 42 c 0
 359 48 359 60 366 67 c 2
 390 89 l 2
 396 94 404 95 410 91 c 0
 418 86 427 83 436 83 c 2
 492 83 l 2
 505 83 515 95 515 110 c 0
 515 122 508 132 498 135 c 2
 408 162 l 2
 371 173 345 209 345 249 c 0
 345 298 383 338 430 339 c 1
 430 387 l 2
 430 396 437 403 446 403 c 2
 478 403 l 2
 487 403 494 396 494 387 c 2xd3b6
254 595 m 2
 245 595 238 602 238 611 c 2
 238 643 l 2
 238 652 245 659 254 659 c 2
 414 659 l 2
 423 659 430 652 430 643 c 2
 430 611 l 2x93c2
 430 602 423 595 414 595 c 2
 254 595 l 2
430 483 m 2
 430 474 423 467 414 467 c 2
 254 467 l 2
 245 467 238 474 238 483 c 2
 238 515 l 2
 238 524 245 531 254 531 c 2
 414 531 l 2x97c2
 423 531 430 524 430 515 c 2
 430 483 l 2
EndSplineSet
Validated: 1
EndChar

StartChar: uniF2BE
Encoding: 62142 62142 39
Width: 394
VWidth: 0
Flags: W
HStem: -189 64<137.94 246.06> 35 64<137.94 246.06> 163 64<137.94 246.06> 387 64<137.94 246.06> 515 64<137.94 246.06> 739 64<137.94 246.06>
VStem: 48 64<-99.06 9.05996 252.94 361.06 604.94 713.06> 272 64<-99.06 9.05996 252.94 361.06 604.94 713.06>
LayerCount: 2
Fore
SplineSet
192 515 m 0
 112 515 48 579 48 659 c 0
 48 739 112 803 192 803 c 0
 272 803 336 739 336 659 c 0
 336 579 272 515 192 515 c 0
192 739 m 0
 148 739 112 703 112 659 c 0
 112 615 148 579 192 579 c 0
 236 579 272 615 272 659 c 0
 272 703 236 739 192 739 c 0
192 451 m 0
 272 451 336 387 336 307 c 0
 336 227 272 163 192 163 c 0
 112 163 48 227 48 307 c 0
 48 387 112 451 192 451 c 0
192 227 m 0
 236 227 272 263 272 307 c 0
 272 351 236 387 192 387 c 0
 148 387 112 351 112 307 c 0
 112 263 148 227 192 227 c 0
192 99 m 0
 272 99 336 35 336 -45 c 0
 336 -125 272 -189 192 -189 c 0
 112 -189 48 -125 48 -45 c 0
 48 35 112 99 192 99 c 0
192 -125 m 0
 236 -125 272 -89 272 -45 c 0
 272 -1 236 35 192 35 c 0
 148 35 112 -1 112 -45 c 0
 112 -89 148 -125 192 -125 c 0
EndSplineSet
Validated: 1
EndChar

StartChar: uniF2BF
Encoding: 62143 62143 40
Width: 406
VWidth: 0
Flags: W
HStem: -189 288<117.122 266.878> 163 288<117.122 266.878> 515 288<117.122 266.878>
VStem: 48 288<-119.878 29.8784 232.122 381.878 584.122 733.878>
CounterMasks: 1 e0
LayerCount: 2
Fore
SplineSet
192 451 m 0
 272 451 336 387 336 307 c 0
 336 227 272 163 192 163 c 0
 112 163 48 227 48 307 c 0
 48 387 112 451 192 451 c 0
48 659 m 0
 48 739 112 803 192 803 c 0
 272 803 336 739 336 659 c 0
 336 579 272 515 192 515 c 0
 112 515 48 579 48 659 c 0
48 -45 m 0
 48 35 112 99 192 99 c 0
 272 99 336 35 336 -45 c 0
 336 -125 272 -189 192 -189 c 0
 112 -189 48 -125 48 -45 c 0
EndSplineSet
Validated: 1
EndChar

StartChar: uniF2C0
Encoding: 62144 62144 41
Width: 402
VWidth: 0
Flags: W
HStem: 3 96<152.227 231.773> 163 96<152.227 231.773> 515 96<152.227 231.773>
VStem: 48 96<-84.7731 -5.22689 267.227 346.773 619.227 698.773> 144 96<-85.3115 -4.68848 266.688 347.312 618.688 699.312> 240 96<-84.7731 -5.22689 267.227 346.773 619.227 698.773>
LayerCount: 2
Fore
SplineSet
336 659 m 0xf4
 336 580 271 515 192 515 c 0
 113 515 48 580 48 659 c 0
 48 738 113 803 192 803 c 0
 271 803 336 738 336 659 c 0xf4
144 659 m 0
 144 633 166 611 192 611 c 0
 218 611 240 633 240 659 c 0xe8
 240 685 218 707 192 707 c 0
 166 707 144 685 144 659 c 0
336 -45 m 0xf4
 336 -124 271 -189 192 -189 c 0
 113 -189 48 -124 48 -45 c 0
 48 34 113 99 192 99 c 0
 271 99 336 34 336 -45 c 0xf4
144 -45 m 0
 144 -71 166 -93 192 -93 c 0
 218 -93 240 -71 240 -45 c 0xe8
 240 -19 218 3 192 3 c 0
 166 3 144 -19 144 -45 c 0
336 307 m 0xf4
 336 228 271 163 192 163 c 0
 113 163 48 228 48 307 c 0
 48 386 113 451 192 451 c 0
 271 451 336 386 336 307 c 0xf4
144 307 m 0
 144 281 166 259 192 259 c 0
 218 259 240 281 240 307 c 0xe8
 240 333 218 355 192 355 c 0
 166 355 144 333 144 307 c 0
240 659 m 0
 240 633 218 611 192 611 c 0
 166 611 144 633 144 659 c 0xf0
 144 685 166 707 192 707 c 0
 218 707 240 685 240 659 c 0
240 307 m 0xe8
 240 281 218 259 192 259 c 0
 166 259 144 281 144 307 c 0xf0
 144 333 166 355 192 355 c 0
 218 355 240 333 240 307 c 0xe8
240 -45 m 0xe8
 240 -71 218 -93 192 -93 c 0
 166 -93 144 -71 144 -45 c 0xf0
 144 -19 166 3 192 3 c 0
 218 3 240 -19 240 -45 c 0xe8
EndSplineSet
Validated: 5
EndChar

StartChar: uniF2C1
Encoding: 62145 62145 42
Width: 1012
VWidth: 0
Flags: W
HStem: 211 192<66.7232 403 595 931.277>
VStem: 403 192<-125.277 211 403 739.277>
LayerCount: 2
Fore
SplineSet
883 403 m 2
 918 403 947 374 947 339 c 2
 947 275 l 2
 947 240 918 211 883 211 c 2
 595 211 l 1
 595 -77 l 2
 595 -112 566 -141 531 -141 c 2
 467 -141 l 2
 432 -141 403 -112 403 -77 c 2
 403 211 l 1
 115 211 l 2
 80 211 51 240 51 275 c 2
 51 339 l 2
 51 374 80 403 115 403 c 2
 403 403 l 1
 403 691 l 2
 403 726 432 755 467 755 c 2
 531 755 l 2
 566 755 595 726 595 691 c 2
 595 403 l 1
 883 403 l 2
EndSplineSet
Validated: 1
EndChar

StartChar: uniF2DA
Encoding: 62170 62170 43
Width: 1240
VWidth: 0
Flags: W
LayerCount: 2
Fore
SplineSet
514 -204 m 2
 436 -182 l 2
 428 -180 423 -170 425 -162 c 2
 707 808 l 2
 709 816 718 821 726 819 c 2
 804 796 l 2
 812 794 817 784 815 776 c 2
 533 -193 l 2
 531 -202 523 -206 514 -204 c 2
347 38 m 2
 341 32 331 31 325 37 c 2
 49 295 l 2
 42 301 42 313 49 319 c 2
 325 577 l 2
 331 583 341 582 347 576 c 2
 402 518 l 2
 408 511 408 501 401 495 c 2
 188 307 l 1
 401 119 l 2
 408 113 408 103 402 96 c 2
 347 38 l 2
915 37 m 2
 909 31 899 32 893 38 c 2
 838 96 l 2
 832 103 832 113 839 119 c 2
 1052 307 l 1
 839 495 l 2
 832 501 832 511 838 518 c 2
 893 576 l 2
 899 583 909 583 915 577 c 2
 1191 319 l 2
 1198 313 1198 301 1191 295 c 2
 915 37 l 2
EndSplineSet
Validated: 1
EndChar

StartChar: uniF2DB
Encoding: 62171 62171 44
Width: 1357
VWidth: 0
Flags: W
LayerCount: 2
Fore
SplineSet
603 -204 m 2
 481 -168 l 2
 468 -164 460 -152 464 -139 c 2
 737 802 l 2
 741 815 754 822 767 818 c 2
 889 783 l 2
 902 779 910 766 906 753 c 2
 633 -187 l 2
 629 -200 616 -208 603 -204 c 2
375 21 m 2
 366 11 351 11 341 20 c 2
 53 290 l 2
 43 299 43 316 53 325 c 2
 341 595 l 2
 351 604 366 604 375 594 c 2
 462 501 l 2
 471 491 470 476 460 467 c 2
 279 307 l 1
 460 148 l 2
 470 139 471 123 462 113 c 2
 375 21 l 2
1029 19 m 2
 1019 10 1004 11 995 21 c 2
 908 113 l 2
 899 123 900 139 910 148 c 2
 1091 307 l 1
 910 467 l 2
 900 476 899 491 908 501 c 2
 995 594 l 2
 1004 604 1019 604 1029 595 c 2
 1317 325 l 2
 1327 316 1327 299 1317 290 c 2
 1029 19 l 2
EndSplineSet
Validated: 33
EndChar

StartChar: uniF2DC
Encoding: 62172 62172 45
Width: 1291
VWidth: 0
Flags: W
VStem: 160 61<33 437> 617 60<-71 638> 1073 60<33 438>
LayerCount: 2
Fore
SplineSet
1252 532 m 2
 1261 514 1251 492 1232 486 c 2
 1133 456 l 1
 1133 33 l 2
 1133 4 1114 -22 1087 -29 c 2
 676 -137 l 2
 664 -140 643 -144 617 -137 c 2
 206 -29 l 2
 179 -22 160 4 160 33 c 2
 160 456 l 1
 61 486 l 2
 42 492 33 514 42 532 c 2
 140 737 l 2
 145 748 156 755 168 755 c 0
 169 755 647 691 647 691 c 1
 647 691 1125 755 1126 755 c 0
 1138 755 1149 748 1154 737 c 2
 1252 532 l 2
185 689 m 1
 113 537 l 1
 433 440 l 1
 547 640 l 1
 185 689 l 1
221 437 m 1
 221 33 l 1
 617 -71 l 1
 617 638 l 1
 473 387 l 2
 467 377 457 371 446 371 c 0
 440 371 455 367 221 437 c 1
1073 33 m 1
 1073 438 l 1
 838 368 854 371 848 371 c 0
 837 371 827 377 821 387 c 2
 677 638 l 1
 677 -71 l 1
 1073 33 l 1
862 441 m 1
 1181 537 l 1
 1109 689 l 1
 747 640 l 1
 862 441 l 1
EndSplineSet
Validated: 33
EndChar

StartChar: uniF2DD
Encoding: 62173 62173 46
Width: 1363
VWidth: 0
Flags: W
VStem: 170 96<58 428> 634 96<-34 612> 1098 96<58 428>
CounterMasks: 1 e0
LayerCount: 2
Fore
SplineSet
1319 532 m 2
 1328 514 1318 492 1298 486 c 2
 1194 456 l 1
 1194 33 l 2
 1194 4 1174 -22 1146 -29 c 2
 713 -137 l 2
 686 -144 663 -140 651 -137 c 2
 218 -29 l 2
 190 -22 170 4 170 33 c 2
 170 456 l 1
 66 486 l 2
 46 492 36 514 45 532 c 2
 148 737 l 2
 156 753 173 756 182 755 c 2
 682 691 l 1
 1182 755 l 2
 1191 756 1208 753 1216 737 c 2
 1319 532 l 2
214 654 m 1
 165 557 l 1
 441 478 l 1
 524 615 l 1
 214 654 l 1
266 428 m 1
 266 58 l 1
 634 -34 l 1
 634 612 l 1
 499 387 l 2
 492 376 478 368 462 373 c 2
 266 428 l 1
1098 58 m 1
 1098 428 l 1
 902 372 l 2
 886 367 872 376 865 387 c 2
 730 612 l 1
 730 -34 l 1
 1098 58 l 1
923 478 m 1
 1199 557 l 1
 1150 654 l 1
 840 615 l 1
 923 478 l 1
EndSplineSet
Validated: 33
EndChar

StartChar: uniF2DE
Encoding: 62174 62174 47
Width: 1366
VWidth: 0
Flags: W
LayerCount: 2
Fore
SplineSet
887 307 m 0
 896 307 905 308 914 311 c 2
 1188 389 l 1
 1188 33 l 2
 1188 4 1168 -22 1140 -29 c 2
 707 -137 l 2
 687 -142 665 -142 645 -137 c 2
 212 -29 l 2
 184 -22 164 4 164 33 c 2
 164 389 l 1
 438 311 l 2
 447 308 456 307 465 307 c 0
 499 307 531 325 548 354 c 2
 676 567 l 1
 805 354 l 2
 822 325 853 307 887 307 c 0
1313 532 m 2
 1322 514 1312 491 1292 485 c 2
 896 372 l 2
 882 368 867 374 859 387 c 2
 676 691 l 1
 1176 755 l 2
 1190 757 1204 749 1210 737 c 2
 1313 532 l 2
142 737 m 2
 148 749 162 757 176 755 c 2
 676 691 l 1
 492 387 l 2
 484 374 469 369 455 373 c 2
 60 486 l 2
 40 492 30 514 39 532 c 2
 142 737 l 2
EndSplineSet
Validated: 37
EndChar

StartChar: uniF2DF
Encoding: 62175 62175 48
Width: 1348
VWidth: 0
Flags: W
LayerCount: 2
Fore
SplineSet
908 311 m 2
 1182 389 l 1
 1182 33 l 2
 1182 6 1161 -22 1134 -29 c 2
 701 -137 l 2
 693 -139 679 -141 670 -141 c 0
 661 -141 647 -139 639 -137 c 2
 206 -29 l 2
 179 -22 158 5 158 33 c 0
 158 389 l 1
 432 311 l 2
 439 309 451 307 458 307 c 0
 459 307 l 0
 489 307 526 328 542 354 c 2
 670 567 l 1
 799 354 l 2
 815 328 851 307 881 307 c 0
 882 307 l 0
 889 307 901 309 908 311 c 2
1307 532 m 2
 1309 528 1310 521 1310 517 c 0
 1310 503 1299 489 1286 485 c 2
 890 372 l 2
 888 371 884 371 882 371 c 0
 872 371 858 378 853 387 c 2
 670 691 l 1
 1170 755 l 2
 1171 755 1173 755 1174 755 c 0
 1185 755 1199 747 1204 737 c 2
 1307 532 l 2
136 737 m 2
 141 747 155 755 166 755 c 0
 167 755 169 755 170 755 c 2
 670 691 l 1
 486 387 l 2
 481 378 468 371 458 371 c 0
 456 371 451 372 449 373 c 2
 54 486 l 2
 41 490 30 503 30 517 c 0
 30 521 31 528 33 532 c 2
 136 737 l 2
EndSplineSet
Validated: 5
EndChar

StartChar: uniF292
Encoding: 62098 62098 49
Width: 1057
VWidth: 0
Flags: W
HStem: 115 64<458.957 601.043> 435 64<458.957 601.043>
VStem: 338 64<235.957 378.043> 378 64<-119.716 -42.3988 657.225 733.716> 618 64<-119.716 -42.3988 657.225 733.716> 658 64<235.957 378.043>
LayerCount: 2
Fore
SplineSet
983 221 m 2xd8
 1002 210 1011 187 1005 166 c 0
 983 91 943 22 890 -34 c 0
 875 -50 851 -53 832 -42 c 2
 766 -5 l 1
 744 -21 707 -42 682 -53 c 1
 682 -129 l 2
 682 -151 667 -170 645 -175 c 0
 570 -193 490 -193 415 -175 c 0
 393 -170 378 -151 378 -129 c 2
 378 -53 l 1
 353 -42 316 -21 294 -5 c 1
 228 -42 l 2
 209 -53 185 -50 170 -34 c 0
 117 22 77 91 55 166 c 0
 49 187 58 210 77 221 c 2
 142 258 l 1
 140 271 139 293 139 307 c 0
 139 321 140 343 142 356 c 1
 77 394 l 2
 58 405 49 428 55 449 c 0
 77 524 117 592 170 648 c 0
 185 664 209 668 228 657 c 2
 294 619 l 1
 316 635 353 657 378 668 c 1
 378 743 l 2
 378 765 393 785 415 790 c 0
 490 808 570 808 645 790 c 0
 667 785 682 765 682 743 c 2
 682 668 l 1
 707 657 744 635 766 619 c 1
 832 657 l 2
 851 668 875 664 890 648 c 0
 943 592 983 524 1005 449 c 0
 1011 428 1002 405 983 394 c 2
 918 356 l 1
 920 343 921 321 921 307 c 0
 921 293 920 271 918 258 c 1
 983 221 l 2xd8
852 20 m 1
 891 64 922 116 940 172 c 1
 848 225 l 1
 861 296 861 318 848 389 c 1
 940 443 l 1
 922 499 891 551 852 595 c 1
 760 541 l 1
 705 588 686 599 618 623 c 1
 618 730 l 1
 594 735 554 739 530 739 c 0
 506 739 466 735 442 730 c 1
 442 623 l 1
 374 599 355 588 300 541 c 1
 208 595 l 1
 169 551 138 499 120 443 c 1
 212 389 l 1
 199 318 199 296 212 225 c 1
 120 172 l 1
 138 116 169 64 208 20 c 1
 300 73 l 1
 355 26 375 15 442 -9 c 1
 442 -116 l 1
 466 -121 506 -125 530 -125 c 0
 554 -125 594 -121 618 -116 c 1
 618 -9 l 1
 687 15 706 27 760 73 c 1
 852 20 l 1
530 499 m 0
 636 499 722 413 722 307 c 0
 722 201 636 115 530 115 c 0
 424 115 338 201 338 307 c 0xe4
 338 413 424 499 530 499 c 0
530 179 m 0
 601 179 658 236 658 307 c 0
 658 378 601 435 530 435 c 0
 459 435 402 378 402 307 c 0
 402 236 459 179 530 179 c 0
EndSplineSet
Validated: 33
EndChar

StartChar: uniF293
Encoding: 62099 62099 50
Width: 1084
VWidth: 0
Flags: W
HStem: 115 96<477.689 600.311> 403 96<477.689 600.311>
VStem: 347 96<245.689 368.311> 375 96<-89.8471 -40.4109 655.411 704.595> 607 96<-89.8471 -40.4109 655.411 704.595> 635 96<245.689 368.311>
LayerCount: 2
Fore
SplineSet
932 345 m 1xd8
 934 320 934 294 932 269 c 1
 996 232 l 2
 1015 221 1024 199 1018 178 c 0
 995 93 950 17 890 -43 c 0
 875 -58 851 -62 832 -51 c 2
 768 -14 l 1
 751 -26 722 -43 703 -52 c 1
 703 -126 l 2
 703 -148 688 -166 667 -172 c 0
 583 -194 495 -194 411 -172 c 0
 391 -167 375 -146 375 -126 c 2
 375 -52 l 1
 356 -43 327 -26 310 -14 c 1
 246 -51 l 2
 227 -62 203 -58 188 -43 c 0
 128 17 83 93 60 178 c 0
 54 199 63 221 82 232 c 2
 146 269 l 1
 145 279 144 296 144 307 c 0
 144 318 145 335 146 345 c 1
 82 382 l 2
 63 393 54 415 60 436 c 0
 83 521 128 598 188 658 c 0
 203 673 227 676 246 665 c 2
 310 629 l 1
 327 641 356 658 375 667 c 1
 375 740 l 2
 375 762 390 781 411 787 c 0
 495 809 583 809 667 787 c 0
 687 782 703 760 703 740 c 2
 703 667 l 1
 722 658 751 641 768 629 c 1
 832 665 l 2
 851 676 875 673 890 658 c 0
 950 598 995 521 1018 436 c 0
 1024 415 1015 393 996 382 c 2
 932 345 l 1xd8
827 219 m 1
 842 302 842 312 827 395 c 1
 914 446 l 1
 901 482 871 534 847 563 c 1
 759 512 l 1
 695 567 686 572 607 600 c 1
 607 702 l 1
 588 705 558 707 539 707 c 0
 520 707 490 705 471 702 c 1
 471 600 l 1
 392 572 383 567 319 512 c 1
 231 563 l 1
 202 528 180 488 164 446 c 1
 251 395 l 1
 236 312 236 302 251 219 c 1
 164 169 l 1
 177 133 207 81 231 52 c 1
 319 102 l 1
 383 47 392 42 471 14 c 1
 471 -87 l 1
 490 -90 520 -93 539 -93 c 0
 558 -93 588 -90 607 -87 c 1
 607 14 l 1
 686 42 695 47 759 102 c 1
 847 52 l 1
 871 81 901 133 914 169 c 1
 827 219 l 1
539 499 m 0
 645 499 731 413 731 307 c 0
 731 201 645 115 539 115 c 0
 433 115 347 201 347 307 c 0xe4
 347 413 433 499 539 499 c 0
539 211 m 0
 592 211 635 254 635 307 c 0
 635 360 592 403 539 403 c 0
 486 403 443 360 443 307 c 0
 443 254 486 211 539 211 c 0
EndSplineSet
Validated: 33
EndChar

StartChar: uniF294
Encoding: 62100 62100 51
Width: 1024
VWidth: 0
Flags: W
VStem: 384 256<-177.738 -46.9835 660.983 791.738>
LayerCount: 2
Fore
SplineSet
975 188 m 2
 985 182 989 171 986 160 c 0
 964 89 926 23 877 -30 c 0
 869 -38 857 -40 847 -34 c 2
 762 15 l 1
 726 -16 684 -39 640 -55 c 1
 640 -154 l 2
 640 -165 632 -175 621 -177 c 0
 551 -193 476 -193 403 -177 c 0
 392 -175 384 -165 384 -154 c 2
 384 -55 l 1
 339 -39 299 -16 263 15 c 1
 177 -34 l 2
 167 -40 156 -38 148 -30 c 0
 99 24 60 89 38 160 c 0
 35 171 39 182 49 188 c 2
 135 237 l 1
 126 283 126 331 135 377 c 1
 49 426 l 2
 39 432 35 443 38 454 c 0
 60 525 99 591 148 644 c 0
 156 652 167 654 177 648 c 2
 262 599 l 1
 298 630 340 653 384 669 c 1
 384 768 l 2
 384 779 392 789 403 791 c 0
 473 807 548 807 621 791 c 0
 632 789 640 779 640 768 c 2
 640 669 l 1
 685 653 726 630 762 599 c 1
 847 648 l 2
 857 654 868 652 876 644 c 0
 925 590 964 526 986 455 c 0
 989 444 985 433 975 427 c 2
 890 377 l 1
 899 331 899 283 890 237 c 1
 975 188 l 2
512 147 m 0
 600 147 672 219 672 307 c 0
 672 395 600 467 512 467 c 0
 424 467 352 395 352 307 c 0
 352 219 424 147 512 147 c 0
EndSplineSet
Validated: 33
EndChar

StartChar: uniF34A
Encoding: 62282 62282 52
Width: 1024
VWidth: 0
Flags: W
HStem: -51 80<161.879 318.121 705.879 862.121> 349 80<251 319.719 795 863.719> 585 80<162.172 196 706.172 740>
VStem: 0 80<110.879 385.98> 170 80<429 561.535> 400 80<110.879 268.28> 544 80<110.879 385.98> 714 80<429 561.535> 944 80<110.879 268.28>
LayerCount: 2
Fore
SplineSet
955 357 m 0
 999 312 1024 252 1024 189 c 0
 1024 57 916 -51 784 -51 c 0
 652 -51 544 57 544 189 c 0
 544 459 653 638 658 646 c 2
 670 665 l 1
 845 665 l 1
 830 614 l 2
 816 564 794 474 794 445 c 0
 794 438 795 433 795 429 c 0
 856 426 912 401 955 357 c 0
784 29 m 0
 872 29 944 101 944 189 c 0
 944 276 873 347 787 349 c 2
 785 349 l 2
 750 349 733 368 725 383 c 0
 716 400 714 420 714 445 c 0
 714 477 729 540 740 585 c 1
 716 585 l 1
 690 535 624 388 624 189 c 0
 624 101 696 29 784 29 c 0
411 357 m 0
 455 312 480 252 480 189 c 0
 480 57 372 -51 240 -51 c 0
 108 -51 0 57 0 189 c 0
 0 459 109 638 114 646 c 2
 126 665 l 1
 301 665 l 1
 286 614 l 2
 272 564 250 474 250 445 c 0
 250 438 251 433 251 429 c 0
 312 426 368 401 411 357 c 0
240 29 m 0
 328 29 400 101 400 189 c 0
 400 276 329 347 243 349 c 2
 241 349 l 2
 206 349 189 368 181 383 c 0
 172 400 170 420 170 445 c 0
 170 477 185 540 196 585 c 1
 172 585 l 1
 146 535 80 388 80 189 c 0
 80 101 152 29 240 29 c 0
EndSplineSet
Validated: 1
EndChar

StartChar: uniF34B
Encoding: 62283 62283 53
Width: 1024
VWidth: 0
Flags: W
HStem: -51 80<284 317.828 828 861.828> 185 80<160.281 229 704.281 773> 585 80<161.879 318.121 705.879 862.121>
VStem: 0 80<345.72 503.121> 230 80<52.4648 185> 400 80<228.02 503.121> 544 80<345.72 503.121> 774 80<52.4648 185> 944 80<228.02 503.121>
LayerCount: 2
Fore
SplineSet
240 665 m 0
 372 665 480 557 480 425 c 0
 480 155 371 -24 366 -32 c 2
 354 -51 l 1
 179 -51 l 1
 194 0 l 2
 208 50 230 140 230 169 c 0
 230 176 229 181 229 185 c 0
 168 188 112 213 69 257 c 0
 25 302 0 362 0 425 c 0
 0 557 108 665 240 665 c 0
308 29 m 1
 334 79 400 226 400 425 c 0
 400 513 328 585 240 585 c 0
 152 585 80 513 80 425 c 0
 80 338 151 267 237 265 c 2
 239 265 l 2
 274 265 291 247 299 232 c 0
 308 215 310 194 310 169 c 0
 310 137 295 74 284 29 c 1
 308 29 l 1
784 665 m 0
 916 665 1024 557 1024 425 c 0
 1024 155 915 -24 910 -32 c 2
 898 -51 l 1
 723 -51 l 1
 738 0 l 2
 752 50 774 140 774 169 c 0
 774 176 773 181 773 185 c 0
 712 188 656 213 613 257 c 0
 569 302 544 362 544 425 c 0
 544 557 652 665 784 665 c 0
852 29 m 1
 878 79 944 226 944 425 c 0
 944 513 872 585 784 585 c 0
 696 585 624 513 624 425 c 0
 624 338 695 267 781 265 c 2
 783 265 l 2
 818 265 835 247 843 232 c 0
 852 215 854 194 854 169 c 0
 854 137 839 74 828 29 c 1
 852 29 l 1
EndSplineSet
Validated: 1
EndChar

StartChar: uniF34C
Encoding: 62284 62284 54
Width: 1024
VWidth: 0
Flags: W
HStem: -129 72<688.887 813.3> 456 74<406.298 477.725> 673 71<252.097 405.31>
VStem: 112 73<450.295 604.807> 326 73<376.712 448.385> 839 73<-30.7981 94.4845>
LayerCount: 2
Fore
SplineSet
912 28 m 0
 912 -17 897 -54 867 -84 c 0
 837 -114 800 -129 755 -129 c 0
 704 -129 659 -110 621 -72 c 2
 177 371 l 2
 134 415 112 467 112 526 c 0
 112 587 133 638 175 680 c 0
 217 722 268 744 329 744 c 0
 389 744 441 722 485 679 c 2
 830 333 l 2
 834 329 836 325 836 320 c 0
 836 314 831 306 819 294 c 0
 807 282 798 276 792 276 c 0
 787 276 783 278 779 282 c 2
 433 629 l 2
 403 658 368 673 329 673 c 0
 289 673 255 659 227 630 c 0
 199 601 185 567 185 527 c 0
 185 487 200 452 229 423 c 2
 672 -21 l 2
 696 -45 724 -57 755 -57 c 0
 779 -57 799 -49 815 -33 c 0
 831 -17 839 4 839 28 c 0
 839 59 827 87 803 111 c 2
 471 443 l 2
 461 452 450 456 437 456 c 0
 426 456 417 452 410 445 c 0
 403 438 399 429 399 418 c 0
 399 406 403 394 413 384 c 2
 647 150 l 2
 651 146 653 142 653 137 c 0
 653 131 647 123 635 111 c 0
 623 99 615 93 609 93 c 0
 604 93 600 95 596 99 c 2
 362 333 l 2
 338 356 326 384 326 418 c 0
 326 449 336 475 358 497 c 0
 380 519 407 530 438 530 c 0
 472 530 500 518 523 494 c 2
 855 162 l 2
 893 125 912 80 912 28 c 0
EndSplineSet
Validated: 1
EndChar

StartChar: uniF34D
Encoding: 62285 62285 55
Width: 1051
VWidth: 0
Flags: W
LayerCount: 2
Fore
SplineSet
155 -113 m 0
 38 8 41 202 158 322 c 2
 578 751 l 2
 667 842 810 842 899 751 c 0
 987 661 987 517 899 427 c 2
 533 53 l 2
 473 -8 376 -7 317 55 c 0
 260 115 262 210 320 269 c 2
 608 563 l 2
 620 576 640 575 653 563 c 2
 699 518 l 2
 712 506 711 486 699 473 c 2
 412 179 l 2
 402 169 402 153 411 143 c 0
 420 134 433 133 442 142 c 2
 808 516 l 2
 847 556 847 622 808 662 c 0
 770 701 707 701 669 662 c 2
 250 233 l 2
 180 162 179 46 247 -24 c 0
 315 -94 426 -95 494 -25 c 2
 838 327 l 2
 850 340 870 340 883 328 c 2
 929 283 l 2
 942 271 941 251 929 238 c 2
 585 -114 l 2
 466 -236 273 -234 155 -113 c 0
EndSplineSet
Validated: 33
EndChar

StartChar: uniF2C2
Encoding: 62146 62146 56
Width: 1102
VWidth: 0
Flags: W
HStem: -189 96<412.847 665.153> 707 96<412.847 665.153>
VStem: 43 96<180.847 433.153> 939 96<180.847 433.153>
LayerCount: 2
Fore
SplineSet
539 803 m 0
 813 803 1035 581 1035 307 c 0
 1035 33 813 -189 539 -189 c 0
 265 -189 43 33 43 307 c 0
 43 581 265 803 539 803 c 0
539 707 m 0
 318 707 139 528 139 307 c 0
 139 86 318 -93 539 -93 c 0
 760 -93 939 86 939 307 c 0
 939 528 760 707 539 707 c 0
819 447 m 2
 828 438 828 422 819 413 c 2
 474 70 l 2
 465 61 449 61 440 70 c 2
 259 253 l 2
 250 262 250 278 259 287 c 2
 304 332 l 2
 313 341 329 341 338 332 c 2
 458 212 l 1
 740 492 l 2
 749 501 765 501 774 492 c 2
 819 447 l 2
EndSplineSet
Validated: 33
EndChar

StartChar: uniF2C3
Encoding: 62147 62147 57
Width: 1099
VWidth: 0
Flags: W
HStem: -205 34<430.741 665.259> -102 34<531.006 653.359> 136 34<475.331 517.219> 670 34<435.097 546.407> 683 34<452.048 564.994> 785 34<430.741 665.259>
VStem: 36 34<189.741 424.259> 138 35<290.023 415.312> 914 33<201.099 305.5> 923 35<214.408 323.977> 1026 34<189.741 424.259>
LayerCount: 2
Fore
SplineSet
534 152 m 2xe720
 525 141 511 136 497 136 c 2
 483 136 469 141 460 152 c 2
 361 265 l 2
 352 275 348 288 349 302 c 0
 350 316 356 328 366 337 c 0
 387 356 419 353 438 332 c 2
 497 265 l 1
 709 503 l 2
 728 524 760 527 781 508 c 0
 791 499 797 486 798 472 c 0
 799 458 794 445 785 435 c 2
 534 152 l 2xe720
497 170 m 0
 501 171 505 172 508 175 c 2
 760 458 l 2
 763 461 764 465 764 470 c 0
 764 475 762 479 759 482 c 0
 756 485 751 486 746 486 c 0
 741 486 737 484 734 481 c 2
 510 228 l 2
 507 224 502 222 497 222 c 0
 492 222 487 224 484 228 c 2
 413 310 l 2
 410 314 405 316 400 316 c 0
 396 316 392 314 389 311 c 0
 386 308 383 305 383 300 c 0
 383 295 384 290 387 287 c 2
 485 175 l 2
 488 172 493 170 497 170 c 0
548 819 m 0
 830 819 1060 589 1060 307 c 0
 1060 25 830 -205 548 -205 c 0
 266 -205 36 25 36 307 c 0
 36 589 266 819 548 819 c 0
548 -171 m 0
 811 -171 1026 44 1026 307 c 0
 1026 570 811 785 548 785 c 0
 285 785 70 570 70 307 c 0
 70 44 285 -171 548 -171 c 0
452 670 m 0xf720
 444 670 437 675 435 683 c 0xef20
 433 692 439 702 448 704 c 0xf720
 481 712 514 717 548 717 c 2
 557 717 565 709 565 700 c 0
 565 691 557 683 548 683 c 0xef20
 517 683 486 679 456 671 c 0
 455 671 453 670 452 670 c 0xf720
394 668 m 0
 398 660 394 649 386 645 c 0
 312 609 251 551 214 479 c 0
 211 473 205 470 199 470 c 0
 196 470 193 471 191 472 c 0
 183 476 180 487 184 495 c 0
 224 573 291 637 371 676 c 0
 379 680 390 676 394 668 c 0
174 429 m 0
 183 426 189 417 186 408 c 0
 177 375 173 341 173 307 c 0
 173 298 164 290 155 290 c 0
 146 290 138 298 138 307 c 0
 138 344 143 381 153 417 c 0
 156 426 165 432 174 429 c 0
646 -55 m 0
 655 -52 665 -58 667 -67 c 0
 669 -76 664 -86 655 -88 c 0
 620 -98 584 -102 548 -102 c 0
 539 -102 531 -94 531 -85 c 0
 531 -76 539 -68 548 -68 c 0
 581 -68 614 -64 646 -55 c 0
911 157 m 0
 920 153 924 144 920 135 c 0
 882 54 817 -13 737 -55 c 0
 734 -56 732 -57 729 -57 c 0
 723 -57 717 -54 714 -48 c 0
 710 -40 713 -29 721 -25 c 0
 794 13 855 75 889 149 c 0
 893 158 902 161 911 157 c 0
941 324 m 2
 950 324 958 316 958 307 c 0xe760
 958 275 954 243 947 213 c 0
 945 205 938 200 930 200 c 0
 929 200 927 201 926 201 c 0
 917 203 912 212 914 221 c 0xe7a0
 921 249 923 278 923 307 c 0xe760
 923 316 932 324 941 324 c 2
EndSplineSet
Validated: 33
EndChar

StartChar: uniF34E
Encoding: 62286 62286 58
Width: 1090
VWidth: 0
Flags: W
HStem: -148 30<82.427 1007.57> -67 30<517.646 572.354> -51 30<189 447.995 642.005 901> 29 30<517.646 572.354> 93 30<526.418 563.582> 397 30<513.247 576.753> 732 30<508.146 581.854>
VStem: 482 30<-31.3538 23.3538 266.02 396.891> 578 30<-31.3538 23.3538 266.02 396.891>
LayerCount: 2
Fore
SplineSet
1045 -19 m 2x9f80
 1061 -46 1061 -78 1045 -105 c 0
 1029 -132 1002 -148 971 -148 c 2
 119 -148 l 2
 88 -148 61 -132 45 -105 c 0
 29 -78 29 -46 45 -19 c 2
 471 719 l 2
 487 746 514 762 545 762 c 0
 576 762 603 746 619 719 c 2
 1045 -19 l 2x9f80
1019 -90 m 0
 1029 -73 1029 -51 1019 -34 c 1
 593 704 l 2
 583 721 565 732 545 732 c 0
 525 732 507 721 497 704 c 2
 71 -34 l 2
 61 -51 61 -73 71 -90 c 0
 81 -107 99 -118 119 -118 c 2
 971 -118 l 2
 991 -118 1009 -107 1019 -90 c 0
622 522 m 2
 940 -29 l 2
 943 -34 943 -39 940 -44 c 0
 937 -49 932 -51 927 -51 c 2
 657 -51 l 2
 649 -51 642 -44 642 -36 c 0
 642 -28 649 -21 657 -21 c 2
 901 -21 l 1xbf80
 596 507 l 2
 592 514 595 523 602 527 c 0
 609 531 618 529 622 522 c 2
433 -21 m 2
 441 -21 448 -28 448 -36 c 0
 448 -44 441 -51 433 -51 c 2
 163 -51 l 2
 158 -51 153 -49 150 -44 c 0
 147 -39 147 -34 150 -29 c 2
 532 633 l 2
 535 638 540 640 545 640 c 0
 550 640 555 638 558 633 c 2
 588 580 l 2
 592 573 590 564 583 560 c 0
 576 556 566 558 562 565 c 2
 545 595 l 1
 189 -21 l 1
 433 -21 l 2
545 59 m 0
 580 59 608 31 608 -4 c 0
 608 -39 580 -67 545 -67 c 0xdf80
 510 -67 482 -39 482 -4 c 0
 482 31 510 59 545 59 c 0
545 -37 m 0
 563 -37 578 -22 578 -4 c 0
 578 14 563 29 545 29 c 0
 527 29 512 14 512 -4 c 0
 512 -22 527 -37 545 -37 c 0
514 427 m 2
 576 427 l 2
 584 427 593 424 599 418 c 0
 605 412 607 403 607 395 c 2
 593 122 l 2
 592 106 579 93 562 93 c 2
 528 93 l 2
 511 93 498 106 497 122 c 2
 483 395 l 2
 483 403 485 412 491 418 c 0
 497 424 506 427 514 427 c 2
577 396 m 2
 577 397 l 0
 576 397 l 2
 514 397 l 2
 513 397 l 0
 513 396 l 2
 527 124 l 2
 527 123 527 123 528 123 c 2
 562 123 l 2
 563 123 563 123 563 124 c 2
 577 396 l 2
EndSplineSet
Validated: 33
EndChar

StartChar: uniF34F
Encoding: 62287 62287 59
Width: 1129
VWidth: 0
Flags: W
HStem: -205 80<428.675 685.325> 67 108<513.676 600.324> 739 80<428.675 685.325>
VStem: 45 80<178.675 435.325> 503 108<77.676 164.324> 517 80<228.393 556.607> 989 80<178.675 435.325>
LayerCount: 2
Fore
SplineSet
557 819 m 0xf2
 840 819 1069 590 1069 307 c 0
 1069 24 840 -205 557 -205 c 0
 274 -205 45 24 45 307 c 0
 45 590 274 819 557 819 c 0xf2
557 -125 m 0
 796 -125 989 68 989 307 c 0
 989 546 796 739 557 739 c 0
 318 739 125 546 125 307 c 0
 125 68 318 -125 557 -125 c 0
557 561 m 0
 579 561 597 543 597 521 c 2
 597 264 l 2
 597 242 579 224 557 224 c 0
 535 224 517 242 517 264 c 2
 517 521 l 2xf6
 517 543 535 561 557 561 c 0
503 121 m 0xfa
 503 151 527 175 557 175 c 0
 587 175 611 151 611 121 c 0
 611 91 587 67 557 67 c 0
 527 67 503 91 503 121 c 0xfa
EndSplineSet
Validated: 1
EndChar

StartChar: uniF350
Encoding: 62288 62288 60
Width: 1024
VWidth: 0
Flags: W
HStem: -189 212<456.496 567.504> 207 36<458.66 565.34> 563 240<436.449 587.551>
VStem: 16 404<89.5 380.76> 604 404<89.5 380.76>
LayerCount: 2
Fore
SplineSet
1008 307 m 0
 1008 33 786 -189 512 -189 c 0
 238 -189 16 33 16 307 c 0
 16 581 238 803 512 803 c 0
 786 803 1008 581 1008 307 c 0
512 207 m 0
 461 207 420 166 420 115 c 0
 420 64 461 23 512 23 c 0
 563 23 604 64 604 115 c 0
 604 166 563 207 512 207 c 0
425 538 m 2
 439 266 l 2
 440 253 450 243 463 243 c 2
 561 243 l 2
 574 243 584 253 585 266 c 2
 599 538 l 2
 600 552 589 563 575 563 c 2
 449 563 l 2
 435 563 424 552 425 538 c 2
EndSplineSet
Validated: 33
EndChar

StartChar: uniF28F
Encoding: 62095 62095 61
Width: 1024
VWidth: 0
Flags: W
LayerCount: 2
Fore
SplineSet
484 297 m 1
 403 18 l 1
 403 18 313 76 249 71 c 0
 185 66 129 56 92 37 c 1
 172 315 l 1
 172 315 262 356 337 351 c 0
 412 346 471 306 484 297 c 1
498 347 m 1
 498 347 408 409 341 402 c 0
 274 395 186 364 186 364 c 1
 267 642 l 1
 267 642 434 733 578 623 c 1
 498 347 l 1
668 215 m 0
 723 216 762 221 837 250 c 0
 838 251 l 1
 836 247 758 -25 758 -25 c 1
 758 -25 669 -67 589 -63 c 0
 509 -59 461 -13 446 -7 c 1
 526 270 l 1
 526 270 612 214 668 215 c 0
838 251 m 1
 838 251 l 1
756 540 m 0
 825 532 932 576 932 576 c 1
 852 299 l 1
 840 295 790 266 698 261 c 0
 606 256 540 319 540 319 c 1
 621 594 l 1
 644 577 687 548 756 540 c 0
EndSplineSet
Validated: 33
EndChar

StartChar: uniF290
Encoding: 62096 62096 62
Width: 1153
VWidth: 0
Flags: W
HStem: 235 36<92 418 563 1034> 343 37<92 418 563 1034>
VStem: 56 36<-26 235 380 635> 418 36<-75 235 380 684> 527 36<-88 235 380 703> 1034 36<-157 235 380 772>
LayerCount: 2
Fore
SplineSet
454 -117 m 1
 56 -57 l 1
 56 271 l 1
 454 271 l 1
 454 -117 l 1
92 -26 m 1
 418 -75 l 1
 418 235 l 1
 92 235 l 1
 92 -26 l 1
1070 -199 m 1
 527 -120 l 1
 527 271 l 1
 1070 271 l 1
 1070 -199 l 1
563 -88 m 1
 1034 -157 l 1
 1034 235 l 1
 563 235 l 1
 563 -88 l 1
1070 343 m 1
 527 343 l 1
 527 734 l 1
 1070 814 l 1
 1070 343 l 1
563 380 m 1
 1034 380 l 1
 1034 772 l 1
 563 703 l 1
 563 380 l 1
454 343 m 1
 56 343 l 1
 56 666 l 1
 454 726 l 1
 454 343 l 1
92 380 m 1
 418 380 l 1
 418 684 l 1
 92 635 l 1
 92 380 l 1
EndSplineSet
Validated: 1
EndChar

StartChar: uniF291
Encoding: 62097 62097 63
Width: 1024
VWidth: 0
Flags: W
VStem: 55 342<-13 260 354 627> 495 474<-77 260 354 691>
LayerCount: 2
Fore
SplineSet
55 -13 m 1
 55 260 l 1
 397 260 l 1
 397 -64 l 1
 55 -13 l 1
495 -77 m 1
 495 260 l 1
 969 260 l 1
 969 -145 l 1
 495 -77 l 1
495 691 m 1
 969 759 l 1
 969 354 l 1
 495 354 l 1
 495 691 l 1
55 354 m 1
 55 627 l 1
 397 678 l 1
 397 354 l 1
 55 354 l 1
EndSplineSet
Validated: 1
EndChar

StartChar: uniF351
Encoding: 62289 62289 64
Width: 1093
VWidth: 0
Flags: W
HStem: -205 68<418.007 677.993> 106 89<497.44 572.56> 466 66<491.891 588.514> 751 68<418.007 677.993>
VStem: 36 68<177.007 436.993> 491 88<112.147 189.105> 503 65<236.028 321.646> 593 72<386.425 459.63> 992 68<177.007 436.993>
LayerCount: 2
Fore
SplineSet
548 819 m 0xf980
 831 819 1060 590 1060 307 c 0
 1060 24 831 -205 548 -205 c 0
 265 -205 36 24 36 307 c 0
 36 590 265 819 548 819 c 0xf980
548 -137 m 0
 793 -137 992 62 992 307 c 0
 992 552 793 751 548 751 c 0
 303 751 104 552 104 307 c 0
 104 62 303 -137 548 -137 c 0
535 195 m 0
 559 195 579 175 579 151 c 0
 579 127 560 106 535 106 c 0
 510 106 491 127 491 151 c 0xfd80
 491 175 511 195 535 195 c 0
543 532 m 0
 617 532 665 491 665 437 c 0
 665 383 617 343 601 331 c 0
 569 306 568 289 568 259 c 0
 568 248 562 235 534 235 c 0
 510 235 503 244 503 274 c 0xfb80
 503 324 524 348 541 362 c 0
 560 378 593 396 593 427 c 0
 593 454 570 466 541 466 c 0
 482 466 494 422 463 422 c 0
 447 422 429 431 429 454 c 0
 429 485 465 532 543 532 c 0
EndSplineSet
Validated: 1
EndChar

StartChar: uniF352
Encoding: 62290 62290 65
Width: 1024
VWidth: 0
Flags: W
HStem: -189 96<385.847 638.153> -1 168<455.676 568.324> 476 119<451.921 575.283> 707 96<385.847 638.153>
VStem: 16 96<180.847 433.153> 428 168<26.6758 139.324> 442 140<195.072 261.727> 594 132<382.535 455.965> 912 96<180.847 433.153>
LayerCount: 2
Fore
SplineSet
512 803 m 0xf880
 786 803 1008 581 1008 307 c 0
 1008 33 786 -189 512 -189 c 0
 238 -189 16 33 16 307 c 0
 16 581 238 803 512 803 c 0xf880
512 -93 m 0
 733 -93 912 86 912 307 c 0
 912 528 733 707 512 707 c 0
 291 707 112 528 112 307 c 0
 112 86 291 -93 512 -93 c 0
726 418 m 0xfb80
 726 284 582 282 582 232 c 2
 582 219 l 2
 582 206 571 195 558 195 c 2
 466 195 l 2
 453 195 442 206 442 219 c 2
 442 237 l 2
 442 308 497 337 538 360 c 0
 573 380 594 393 594 419 c 0
 594 453 551 476 515 476 c 0
 469 476 447 454 417 416 c 0
 409 406 393 404 383 412 c 2
 328 454 l 2
 318 462 315 476 322 487 c 0
 369 556 430 595 524 595 c 0
 622 595 726 519 726 418 c 0xfb80
596 83 m 0xfc80
 596 37 558 -1 512 -1 c 0
 466 -1 428 37 428 83 c 0
 428 129 466 167 512 167 c 0
 558 167 596 129 596 83 c 0xfc80
EndSplineSet
Validated: 33
EndChar

StartChar: uniF353
Encoding: 62291 62291 66
Width: 1024
VWidth: 0
Flags: W
HStem: -189 148<456.496 567.504> 143 52<451.818 572.182> 639 164<411.119 624.102>
VStem: 758 250<170 452.821>
LayerCount: 2
Fore
SplineSet
1008 307 m 0
 1008 33 786 -189 512 -189 c 0
 238 -189 16 33 16 307 c 0
 16 581 238 803 512 803 c 0
 786 803 1008 581 1008 307 c 0
525 639 m 0
 416 639 347 594 292 512 c 0
 285 501 288 487 298 479 c 2
 367 427 l 2
 377 419 392 421 400 431 c 0
 436 476 461 502 515 502 c 0
 556 502 606 476 606 436 c 0
 606 406 581 392 541 369 c 0
 494 343 432 309 432 227 c 2
 432 219 l 2
 432 206 443 195 456 195 c 2
 568 195 l 2
 581 195 592 206 592 219 c 2
 592 222 l 2
 592 279 758 281 758 435 c 0
 758 551 638 639 525 639 c 0
512 143 m 0
 461 143 420 102 420 51 c 0
 420 0 461 -41 512 -41 c 0
 563 -41 604 0 604 51 c 0
 604 102 563 143 512 143 c 0
EndSplineSet
Validated: 33
EndChar

StartChar: uniF354
Encoding: 62292 62292 67
Width: 1024
VWidth: 0
Flags: W
HStem: -189 96<385.847 638.153> 51 96<400.072 448 576 623.928> 275 96<400.072 448> 415 168<455.676 568.324> 707 96<385.847 638.153>
VStem: 16 96<180.847 433.153> 400 176<275.072 370.928> 428 168<442.676 555.324> 448 128<147 275> 912 96<180.847 433.153>
LayerCount: 2
Fore
SplineSet
512 803 m 0xfc40
 786 803 1008 581 1008 307 c 0
 1008 33 786 -189 512 -189 c 0
 238 -189 16 33 16 307 c 0
 16 581 238 803 512 803 c 0xfc40
512 -93 m 0
 733 -93 912 86 912 307 c 0
 912 528 733 707 512 707 c 0
 291 707 112 528 112 307 c 0
 112 86 291 -93 512 -93 c 0
512 583 m 0
 558 583 596 545 596 499 c 0
 596 453 558 415 512 415 c 0
 466 415 428 453 428 499 c 0xfd40
 428 545 466 583 512 583 c 0
624 75 m 2
 624 62 613 51 600 51 c 2
 424 51 l 2
 411 51 400 62 400 75 c 2
 400 123 l 2xfe40
 400 136 411 147 424 147 c 2
 448 147 l 1
 448 275 l 1xfcc0
 424 275 l 2
 411 275 400 286 400 299 c 2
 400 347 l 2
 400 360 411 371 424 371 c 2
 552 371 l 2
 565 371 576 360 576 347 c 2xfe40
 576 147 l 1xfcc0
 600 147 l 2
 613 147 624 136 624 123 c 2
 624 75 l 2
EndSplineSet
Validated: 1
EndChar

StartChar: uniF355
Encoding: 62293 62293 68
Width: 1024
VWidth: 0
Flags: W
HStem: -189 240<412.02 611.98> 371 44<455.676 568.036> 583 220<458.476 565.524>
LayerCount: 2
Fore
SplineSet
512 803 m 0
 786 803 1008 581 1008 307 c 0
 1008 33 786 -189 512 -189 c 0
 238 -189 16 33 16 307 c 0
 16 581 238 803 512 803 c 0
512 583 m 0
 466 583 428 545 428 499 c 0
 428 453 466 415 512 415 c 0
 558 415 596 453 596 499 c 0
 596 545 558 583 512 583 c 0
624 75 m 2
 624 123 l 2
 624 136 613 147 600 147 c 2
 576 147 l 1
 576 347 l 2
 576 360 565 371 552 371 c 2
 424 371 l 2
 411 371 400 360 400 347 c 2
 400 299 l 2
 400 286 411 275 424 275 c 2
 448 275 l 1
 448 147 l 1
 424 147 l 2
 411 147 400 136 400 123 c 2
 400 75 l 2
 400 62 411 51 424 51 c 2
 600 51 l 2
 613 51 624 62 624 75 c 2
EndSplineSet
Validated: 1
EndChar

StartChar: uniF356
Encoding: 62294 62294 69
Width: 1162
VWidth: 0
Flags: W
HStem: -173 96<431.114 528 624 720.886> 195 96<39.4403 208 944 1112.56> 451 96<304 306 402 754> 723 96<495.698 660.302>
VStem: 208 96<49.7611 195 291 451> 306 96<547 627.802> 528 96<-77 322.928> 754 96<547 627.802> 848 96<49.7611 195 291 451>
LayerCount: 2
Fore
SplineSet
1072 291 m 2xfe80
 1099 291 1120 270 1120 243 c 0
 1120 216 1099 195 1072 195 c 2
 944 195 l 1
 944 147 l 2xfe80
 944 88 929 33 901 -14 c 1
 1010 -123 l 2
 1029 -142 1029 -172 1010 -191 c 0
 991 -210 961 -210 942 -191 c 2
 840 -89 l 1
 783 -141 707 -173 624 -173 c 2
 528 -173 l 2
 445 -173 369 -141 312 -89 c 1
 210 -191 l 2
 191 -210 161 -210 142 -191 c 0
 123 -172 123 -142 142 -123 c 2
 251 -14 l 1
 223 33 208 88 208 147 c 2
 208 195 l 1
 80 195 l 2
 53 195 32 216 32 243 c 0
 32 270 53 291 80 291 c 2
 208 291 l 1
 208 479 l 1
 126 561 l 2
 107 580 107 610 126 629 c 0
 145 648 175 648 194 629 c 2
 276 547 l 1
 306 547 l 1
 306 697 428 819 578 819 c 0
 728 819 850 697 850 547 c 1xff
 876 547 l 1
 958 629 l 2
 977 648 1007 648 1026 629 c 0
 1045 610 1045 580 1026 561 c 2
 944 479 l 1
 944 291 l 1
 1072 291 l 2xfe80
578 723 m 0
 481 723 402 644 402 547 c 1
 754 547 l 1xff
 754 644 675 723 578 723 c 0
624 -77 m 1
 748 -77 848 23 848 147 c 2
 848 451 l 1xfe80
 304 451 l 1
 304 147 l 2
 304 23 404 -77 528 -77 c 1
 528 299 l 2
 528 312 539 323 552 323 c 2
 600 323 l 2
 613 323 624 312 624 299 c 2
 624 -77 l 1
EndSplineSet
Validated: 33
EndChar

StartChar: uniF357
Encoding: 62295 62295 70
Width: 1108
VWidth: 0
Flags: W
HStem: 179 128<43.0002 203 875 1035> 371 128<491.072 586.928> 595 224<484.923 597.077>
VStem: 203 288<35.5109 179 307 370.928> 587 288<35.5109 179 307 370.928>
LayerCount: 2
Fore
SplineSet
1051 241 m 0
 1050 206 1021 179 986 179 c 2
 875 179 l 1
 875 147 l 2
 875 103 865 62 848 25 c 1
 968 -96 l 2
 993 -121 993 -161 968 -186 c 0
 943 -211 903 -211 878 -186 c 2
 768 -77 l 1
 718 -117 656 -141 587 -141 c 1
 587 347 l 2
 587 360 576 371 563 371 c 2
 515 371 l 2
 502 371 491 360 491 347 c 2
 491 -141 l 1
 422 -141 360 -117 310 -77 c 1
 200 -186 l 2
 175 -211 135 -211 110 -186 c 0
 85 -161 85 -121 110 -96 c 2
 230 25 l 1
 213 62 203 103 203 147 c 2
 203 179 l 1
 92 179 l 2
 57 179 28 206 27 241 c 0
 26 277 55 307 91 307 c 2
 203 307 l 1
 203 425 l 1
 110 518 l 2
 85 543 85 583 110 608 c 0
 135 633 175 633 200 608 c 2
 310 499 l 1
 768 499 l 1
 878 608 l 2
 903 633 943 633 968 608 c 0
 993 583 993 543 968 518 c 2
 875 425 l 1
 875 307 l 1
 987 307 l 2
 1023 307 1052 277 1051 241 c 0
541 819 m 0
 665 819 765 719 765 595 c 1
 317 595 l 1
 317 719 417 819 541 819 c 0
EndSplineSet
Validated: 33
EndChar

StartChar: uniF358
Encoding: 62296 62296 71
Width: 1158
VWidth: 0
Flags: W
LayerCount: 2
Fore
SplineSet
1056 476 m 2
 1108 468 1130 404 1092 367 c 2
 880 161 l 1
 930 -130 l 2
 939 -183 883 -221 837 -197 c 2
 576 -60 l 1
 315 -197 l 2
 269 -222 213 -183 222 -130 c 2
 272 161 l 1
 60 367 l 2
 22 404 44 468 96 476 c 2
 388 519 l 1
 519 784 l 2
 543 832 610 831 633 784 c 2
 764 519 l 1
 1056 476 l 2
777 195 m 1
 978 391 l 1
 700 431 l 1
 576 683 l 1
 452 431 l 1
 174 391 l 1
 375 195 l 1
 327 -82 l 1
 576 48 l 1
 825 -82 l 1
 777 195 l 1
EndSplineSet
Validated: 33
EndChar

StartChar: uniF359
Encoding: 62297 62297 72
Width: 1162
VWidth: 0
Flags: W
LayerCount: 2
Fore
SplineSet
519 784 m 2
 543 832 610 831 633 784 c 2
 764 519 l 1
 1056 476 l 2
 1108 468 1130 404 1092 367 c 2
 880 161 l 1
 930 -130 l 2
 939 -183 883 -221 837 -197 c 2
 576 -60 l 1
 315 -197 l 2
 269 -222 213 -183 222 -130 c 2
 272 161 l 1
 60 367 l 2
 22 404 44 468 96 476 c 2
 388 519 l 1
 519 784 l 2
EndSplineSet
Validated: 33
EndChar

StartChar: uniF295
Encoding: 62101 62101 73
Width: 1123
VWidth: 0
Flags: W
HStem: -202 80<607.891 915.109> -41 120<702 822> 241 79<398.243 515.757> 500 80<398.243 515.757> 739 80<344.375 570.039>
VStem: 48 80<296.965 522.01> 287 80<351.304 468.757> 527 80<-121.109 34> 547 80<351.304 468.757> 702 120<-41 79> 916 80<-121.109 34>
LayerCount: 2
Fore
SplineSet
457 -98 m 1xfe60
 457 -202 l 1
 432 -181 l 2
 428 -178 335 -103 242 4 c 0
 113 152 48 285 48 399 c 2
 48 410 l 2
 48 636 231 819 457 819 c 0
 683 819 866 636 866 410 c 2
 866 399 l 2
 866 389 866 380 865 370 c 2
 785 443 l 1
 769 609 628 739 457 739 c 0
 275 739 128 592 128 410 c 2
 128 399 l 2
 128 206 376 -27 457 -98 c 1xfe60
702 -41 m 1
 702 79 l 1
 822 79 l 1
 822 -41 l 1
 702 -41 l 1
457 580 m 0
 551 580 627 504 627 410 c 0xfee0
 627 316 551 241 457 241 c 0
 363 241 287 316 287 410 c 0
 287 504 363 580 457 580 c 0
457 500 m 0
 407 500 367 460 367 410 c 0
 367 360 407 320 457 320 c 0
 507 320 547 360 547 410 c 0
 547 460 507 500 457 500 c 0
1018 14 m 1
 996 34 l 1
 996 -94 l 2
 996 -154 948 -202 888 -202 c 2
 635 -202 l 2
 575 -202 527 -154 527 -94 c 2
 527 34 l 1xff60
 504 14 l 1
 451 72 l 1
 761 356 l 1
 1072 72 l 1
 1018 14 l 1
916 107 m 1
 761 248 l 1
 607 107 l 1
 607 -94 l 2
 607 -110 619 -122 635 -122 c 2
 888 -122 l 2
 904 -122 916 -110 916 -94 c 2
 916 107 l 1
916 107 m 1024
EndSplineSet
Validated: 1
EndChar

StartChar: uniF35A
Encoding: 62298 62298 74
Width: 1099
VWidth: 0
Flags: W
LayerCount: 2
Fore
SplineSet
265 164 m 1
 36 398 l 2
 28 407 25 420 29 431 c 0
 33 442 42 450 54 452 c 2
 369 500 l 1
 510 801 l 2
 521 823 557 823 568 801 c 2
 709 500 l 1
 1024 452 l 2
 1036 450 1045 442 1049 431 c 0
 1053 420 1050 407 1042 398 c 2
 813 164 l 1
 867 -168 l 2
 869 -180 864 -192 854 -199 c 0
 848 -203 842 -205 836 -205 c 0
 831 -205 825 -204 820 -201 c 2
 539 -45 l 1
 258 -201 l 2
 247 -207 234 -206 224 -199 c 0
 214 -192 209 -180 211 -168 c 2
 265 164 l 1
396 440 m 2
 125 398 l 1
 322 197 l 2
 329 190 333 179 331 169 c 2
 284 -113 l 1
 524 19 l 2
 529 22 534 23 539 23 c 0
 544 23 549 22 554 19 c 2
 794 -113 l 1
 747 169 l 2
 745 179 749 190 756 197 c 2
 953 398 l 1
 682 440 l 2
 671 442 663 448 658 458 c 2
 539 712 l 1
 420 458 l 2
 415 448 407 442 396 440 c 2
EndSplineSet
Validated: 33
EndChar

StartChar: uniF396
Encoding: 62358 62358 75
Width: 997
VWidth: 0
Flags: W
HStem: -141 64<118.46 879.54> 691 64<118.46 879.54>
VStem: 51 64<-73.5403 687.54> 371 64<115 499> 883 64<-73.5403 687.54>
LayerCount: 2
Fore
SplineSet
51 659 m 2
 51 712 94 755 147 755 c 2
 851 755 l 2
 904 755 947 712 947 659 c 2
 947 -45 l 2
 947 -98 904 -141 851 -141 c 2
 147 -141 l 2
 94 -141 51 -98 51 -45 c 2
 51 659 l 2
851 691 m 2
 147 691 l 2
 129.400390625 691 115 676.599609375 115 659 c 2
 115 -45 l 2
 115 -62.599609375 129.400390625 -77 147 -77 c 2
 851 -77 l 2
 868.599609375 -77 883 -62.599609375 883 -45 c 2
 883 659 l 2
 883 676.599609375 868.599609375 691 851 691 c 2
435 499 m 1
 435 115 l 1
 627 307 l 1
 435 499 l 1
371 115 m 1
 371 499.200195312 l 2
 371 556.200195312 440 584.599609375 480.200195312 544.400390625 c 2
 672.200195312 352.400390625 l 2
 697.200195312 327.400390625 697.200195312 286.799804688 672.200195312 261.799804688 c 2
 480.200195312 69.7998046875 l 2
 440 29.400390625 371 58.2001953125 371 115 c 1
EndSplineSet
Validated: 33
EndChar

StartChar: uniF397
Encoding: 62359 62359 76
Width: 997
VWidth: 0
Flags: W
HStem: -141 96<141 845> 659 96<141 845>
VStem: 45 96<-45 659> 845 96<-45 659>
LayerCount: 2
Fore
SplineSet
397 109.200195312 m 2
 397 504.799804688 l 2
 397 526.200195312 423 537 438 521.799804688 c 2
 634.599609375 324 l 2
 644 314.599609375 644 299.599609375 634.599609375 290.200195312 c 2
 438 92.400390625 l 2
 423 77 397 87.7998046875 397 109.200195312 c 2
941 659 m 2
 941 -45 l 2
 941 -98 898 -141 845 -141 c 2
 141 -141 l 2
 88 -141 45 -98 45 -45 c 2
 45 659 l 2
 45 712 88 755 141 755 c 2
 845 755 l 2
 898 755 941 712 941 659 c 2
845 -33 m 2
 845 647 l 2
 845 653.599609375 839.599609375 659 833 659 c 2
 153 659 l 2
 146.400390625 659 141 653.599609375 141 647 c 2
 141 -33 l 2
 141 -39.599609375 146.400390625 -45 153 -45 c 2
 833 -45 l 2
 839.599609375 -45 845 -39.599609375 845 -33 c 2
EndSplineSet
Validated: 33
EndChar

StartChar: uniF398
Encoding: 62360 62360 77
Width: 976
VWidth: 0
Flags: W
VStem: 45 336<36.9736 577.028>
LayerCount: 2
Fore
SplineSet
141 755 m 2
 845 755 l 2
 898.01953125 755 941 712.01953125 941 659 c 2
 941 -45 l 2
 941 -98.01953125 898.01953125 -141 845 -141 c 2
 141 -141 l 2
 87.98046875 -141 45 -98.01953125 45 -45 c 2
 45 659 l 2
 45 712.01953125 87.98046875 755 141 755 c 2
421.969726562 43.9697265625 m 2
 668.028320312 290.028320312 l 2
 677.400390625 299.400390625 677.400390625 314.595703125 668.028320312 323.969726562 c 2
 421.969726562 570.030273438 l 2
 406.849609375 585.150390625 381 574.442382812 381 553.059570312 c 2
 381 60.9423828125 l 2
 381 39.5595703125 406.8515625 28.8515625 421.969726562 43.9697265625 c 2
EndSplineSet
Validated: 33
EndChar

StartChar: uniF399
Encoding: 62361 62361 78
Width: 985
VWidth: 0
Flags: W
VStem: 42 320<51.256 562.738>
LayerCount: 2
Fore
SplineSet
842 755 m 2
 894.9921875 755 938 711.9921875 938 659 c 2
 938 -45 l 2
 938 -97.9921875 894.9921875 -141 842 -141 c 2
 138 -141 l 2
 85.0078125 -141 42 -97.9921875 42 -45 c 2
 42 659 l 2
 42 711.9921875 85.0078125 755 138 755 c 2
 842 755 l 2
674.360351562 291 m 2
 678.517578125 294.4375 681.892578125 301.60546875 681.892578125 307 c 0
 681.892578125 312.39453125 678.517578125 319.5625 674.360351562 323 c 2
 406.580078125 556.299804688 l 2
 390.120117188 570.620117188 362 560.48046875 362 540.200195312 c 2
 362 73.7001953125 l 2
 362 53.51953125 390.139648438 43.3798828125 406.580078125 57.7001953125 c 2
 674.360351562 291 l 2
674.360351562 291 m 2
 406.580078125 57.7001953125 l 2
 390.139648438 43.3798828125 362 53.51953125 362 73.7001953125 c 2
 362 540.200195312 l 2
 362 560.48046875 390.139648438 570.620117188 406.580078125 556.299804688 c 2
 674.360351562 323 l 2
 678.517578125 319.5625 681.892578125 312.39453125 681.892578125 307 c 0
 681.892578125 301.60546875 678.517578125 294.4375 674.360351562 291 c 2
EndSplineSet
Validated: 37
EndChar

StartChar: uniF39A
Encoding: 62362 62362 79
Width: 961
VWidth: 0
Flags: W
HStem: -141 64<100.46 861.54> 371 64<289 673> 691 64<100.46 861.54>
VStem: 33 64<-73.5403 687.54> 865 64<-73.5403 687.54>
LayerCount: 2
Fore
SplineSet
833 755 m 2
 886 755 929 712 929 659 c 2
 929 -45 l 2
 929 -98 886 -141 833 -141 c 2
 129 -141 l 2
 76 -141 33 -98 33 -45 c 2
 33 659 l 2
 33 712 76 755 129 755 c 2
 833 755 l 2
865 -45 m 2
 865 659 l 2
 865 676.599609375 850.599609375 691 833 691 c 2
 129 691 l 2
 111.400390625 691 97 676.599609375 97 659 c 2
 97 -45 l 2
 97 -62.599609375 111.400390625 -77 129 -77 c 2
 833 -77 l 2
 850.599609375 -77 865 -62.599609375 865 -45 c 2
673 371 m 1
 289 371 l 1
 481 179 l 1
 673 371 l 1
289 435 m 1
 673.200195312 435 l 2
 730.200195312 435 758.599609375 366 718.400390625 325.799804688 c 2
 526.400390625 133.799804688 l 2
 501.400390625 108.799804688 460.799804688 108.799804688 435.799804688 133.799804688 c 2
 243.799804688 325.799804688 l 2
 203.400390625 366 232.200195312 435 289 435 c 1
EndSplineSet
Validated: 33
EndChar

StartChar: uniF39B
Encoding: 62363 62363 80
Width: 982
VWidth: 0
Flags: W
HStem: -141 96<135 839> 659 96<135 839>
VStem: 39 96<-45 659> 839 96<-45 659>
LayerCount: 2
Fore
SplineSet
289.200195312 403 m 2
 684.799804688 403 l 2
 706.200195312 403 717 377 701.799804688 362 c 2
 504 165.400390625 l 2
 494.599609375 156 479.599609375 156 470.200195312 165.400390625 c 2
 272.400390625 362 l 2
 257 377 267.799804688 403 289.200195312 403 c 2
935 659 m 2
 935 -45 l 2
 935 -98 892 -141 839 -141 c 2
 135 -141 l 2
 82 -141 39 -98 39 -45 c 2
 39 659 l 2
 39 712 82 755 135 755 c 2
 839 755 l 2
 892 755 935 712 935 659 c 2
839 -33 m 2
 839 647 l 2
 839 653.599609375 833.599609375 659 827 659 c 2
 147 659 l 2
 140.400390625 659 135 653.599609375 135 647 c 2
 135 -33 l 2
 135 -39.599609375 140.400390625 -45 147 -45 c 2
 827 -45 l 2
 833.599609375 -45 839 -39.599609375 839 -33 c 2
EndSplineSet
Validated: 33
EndChar

StartChar: uniF39C
Encoding: 62364 62364 81
Width: 979
VWidth: 0
Flags: W
HStem: 419 336<213.971 754.029>
LayerCount: 2
Fore
SplineSet
932 659 m 2
 932 -45 l 2
 932 -98 889 -141 836 -141 c 2
 132 -141 l 2
 79 -141 36 -98 36 -45 c 2
 36 659 l 2
 36 712 79 755 132 755 c 2
 836 755 l 2
 889 755 932 712 932 659 c 2
221 378 m 2
 467 132 l 2
 476.400390625 122.599609375 491.599609375 122.599609375 501 132 c 2
 747 378 l 2
 762.200195312 393.200195312 751.400390625 419 730 419 c 2
 238 419 l 2
 216.599609375 419 205.799804688 393.200195312 221 378 c 2
EndSplineSet
Validated: 33
EndChar

StartChar: uniF39D
Encoding: 62365 62365 82
Width: 961
VWidth: 0
Flags: W
LayerCount: 2
Fore
SplineSet
830 755 m 2
 882.9921875 755 926 711.9921875 926 659 c 2
 926 -45 l 2
 926 -97.9921875 882.9921875 -141 830 -141 c 2
 126 -141 l 2
 73.0078125 -141 30 -97.9921875 30 -45 c 2
 30 659 l 2
 30 711.9921875 73.0078125 755 126 755 c 2
 830 755 l 2
727.259765625 390.379882812 m 2
 741.66015625 407 731.440429688 435 711.139648438 435 c 2
 244.860351562 435 l 2
 224.559570312 435 214.33984375 407 228.740234375 390.379882812 c 2
 461.879882812 122.6796875 l 2
 465.319335938 118.44140625 472.541015625 115.000976562 478 115.000976562 c 0
 483.458984375 115.000976562 490.680664062 118.44140625 494.120117188 122.6796875 c 2
 727.259765625 390.379882812 l 2
727.259765625 390.379882812 m 2
 494.120117188 122.6796875 l 2
 490.680664062 118.44140625 483.458984375 115.000976562 478 115.000976562 c 0
 472.541015625 115.000976562 465.319335938 118.44140625 461.879882812 122.6796875 c 2
 228.740234375 390.379882812 l 2
 214.33984375 407 224.559570312 435 244.860351562 435 c 2
 711.139648438 435 l 2
 731.440429688 435 741.66015625 407 727.259765625 390.379882812 c 2
EndSplineSet
Validated: 37
EndChar

StartChar: uniF2C4
Encoding: 62148 62148 83
Width: 1234
VWidth: 0
Flags: W
HStem: -205 64<103.46 864.54> 627 64<103.46 703.75>
VStem: 36 64<-137.54 623.54> 868 64<-137.54 206.75>
LayerCount: 2
Fore
SplineSet
871.599609375 188 m 2
 911.599609375 228 l 2
 919.200195312 235.599609375 932 230.200195312 932 219.599609375 c 2
 932 -109 l 2
 932 -162 889 -205 836 -205 c 2
 132 -205 l 2
 79 -205 36 -162 36 -109 c 2
 36 595 l 2
 36 648 79 691 132 691 c 2
 716.599609375 691 l 2
 727.200195312 691 732.599609375 678 725 670.599609375 c 2
 685 630.599609375 l 2
 682.799804688 628.400390625 679.599609375 627 676.599609375 627 c 2
 132 627 l 2
 114.400390625 627 100 612.599609375 100 595 c 2
 100 -109 l 2
 100 -126.599609375 114.400390625 -141 132 -141 c 2
 836 -141 l 2
 853.599609375 -141 868 -126.599609375 868 -109 c 2
 868 179.599609375 l 2
 868 182.799804688 869.200195312 185.799804688 871.599609375 188 c 2
1163.40039062 570.400390625 m 2
 538.400390625 -54.599609375 l 1
 338.599609375 -76.7998046875 l 2
 311.799804688 -79.7998046875 289.200195312 -57.2001953125 292.200195312 -30.400390625 c 2
 314.400390625 169.400390625 l 1
 939.400390625 794.400390625 l 2
 972.200195312 827.200195312 1025.40039062 827.200195312 1058.20019531 794.400390625 c 2
 1163.40039062 689.200195312 l 2
 1196.20019531 656.400390625 1196.20019531 603.200195312 1163.40039062 570.400390625 c 2
976.200195312 473.599609375 m 1
 842.799804688 607 l 1
 375.599609375 140 l 1
 359 -10.2001953125 l 1
 509.200195312 6.400390625 l 1
 976.200195312 473.599609375 l 1
1118.20019531 644 m 2
 1013 749.200195312 l 2
 1005.40039062 756.799804688 992.599609375 757.200195312 984.799804688 749.200195312 c 2
 888 652.400390625 l 1
 1021.40039062 519 l 1
 1118.20019531 615.799804688 l 2
 1126 623.400390625 1126 636.200195312 1118.20019531 644 c 2
EndSplineSet
Validated: 33
EndChar

StartChar: uniF2C5
Encoding: 62149 62149 84
Width: 1225
VWidth: 0
Flags: W
HStem: -205 96<132 836> 595 96<132 643.4>
VStem: 36 96<-109 595> 836 96<-109 146.2>
LayerCount: 2
Fore
SplineSet
840.599609375 129.200195312 m 2
 904.599609375 193.200195312 l 2
 914.599609375 203.200195312 932 196.200195312 932 181.799804688 c 2
 932 -109 l 2
 932 -162 889 -205 836 -205 c 2
 132 -205 l 2
 79 -205 36 -162 36 -109 c 2
 36 595 l 2
 36 648 79 691 132 691 c 2
 679 691 l 2
 693.200195312 691 700.400390625 673.799804688 690.400390625 663.599609375 c 2
 626.400390625 599.599609375 l 2
 623.400390625 596.599609375 619.400390625 595 615 595 c 2
 132 595 l 1
 132 -109 l 1
 836 -109 l 1
 836 118 l 2
 836 122.200195312 837.599609375 126.200195312 840.599609375 129.200195312 c 2
1153.79980469 532.799804688 m 2
 628.599609375 7.599609375 l 1
 447.799804688 -12.400390625 l 2
 395.400390625 -18.2001953125 350.799804688 26 356.599609375 78.7998046875 c 2
 376.599609375 259.599609375 l 1
 901.799804688 784.799804688 l 2
 947.599609375 830.599609375 1021.59960938 830.599609375 1067.20019531 784.799804688 c 2
 1153.59960938 698.400390625 l 2
 1199.40039062 652.599609375 1199.40039062 578.400390625 1153.79980469 532.799804688 c 2
956.200195312 471 m 1
 840 587.200195312 l 1
 468.400390625 215.400390625 l 1
 453.799804688 84.7998046875 l 1
 584.400390625 99.400390625 l 1
 956.200195312 471 l 1
1085.79980469 630.400390625 m 2
 999.400390625 716.799804688 l 2
 991.200195312 725 977.799804688 725 969.799804688 716.799804688 c 2
 908 655 l 1
 1024.20019531 538.799804688 l 1
 1086 600.599609375 l 2
 1094 609 1094 622.200195312 1085.79980469 630.400390625 c 2
EndSplineSet
Validated: 33
EndChar

StartChar: uniF2C6
Encoding: 62150 62150 85
Width: 1234
VWidth: 0
Flags: W
HStem: -205 128<167 807> 563 128<167 658.6>
VStem: 39 128<-77 563> 807 128<-77 158.6>
LayerCount: 2
Fore
SplineSet
844.200195312 652.599609375 m 2
 1024.59960938 472.200195312 l 2
 1032.20019531 464.599609375 1032.20019531 452.200195312 1024.59960938 444.599609375 c 2
 587.799804688 7.7998046875 l 1
 402.200195312 -12.7998046875 l 2
 377.400390625 -15.599609375 356.400390625 5.400390625 359.200195312 30.2001953125 c 2
 379.799804688 215.799804688 l 1
 816.599609375 652.599609375 l 2
 824.200195312 660.200195312 836.599609375 660.200195312 844.200195312 652.599609375 c 2
1168.20019531 698.400390625 m 2
 1198.59960938 668 1198.59960938 618.599609375 1168.20019531 588 c 2
 1097.40039062 517.200195312 l 2
 1089.79980469 509.599609375 1077.40039062 509.599609375 1069.79980469 517.200195312 c 2
 889.400390625 697.599609375 l 2
 881.799804688 705.200195312 881.799804688 717.599609375 889.400390625 725.200195312 c 2
 960.200195312 796 l 2
 990.799804688 826.400390625 1040.20019531 826.400390625 1070.59960938 796 c 2
 1168.20019531 698.400390625 l 2
807 126.599609375 m 2
 807 133 809.599609375 139 814 143.599609375 c 2
 894 223.599609375 l 2
 909.200195312 238.599609375 935 228 935 206.599609375 c 2
 935 -109 l 2
 935 -162 892 -205 839 -205 c 2
 135 -205 l 2
 82 -205 39 -162 39 -109 c 2
 39 595 l 2
 39 648 82 691 135 691 c 2
 706.599609375 691 l 2
 728 691 738.799804688 665.200195312 723.599609375 650 c 2
 643.599609375 570 l 2
 639 565.599609375 633 563 626.599609375 563 c 2
 167 563 l 1
 167 -77 l 1
 807 -77 l 1
 807 126.599609375 l 2
EndSplineSet
Validated: 33
EndChar

StartChar: uniF2C7
Encoding: 62151 62151 86
Width: 1237
VWidth: 0
Flags: W
HStem: 193.338 65.46<682 848.957> 482.798 62.7598<682 841.208>
VStem: 618 64<50.998 193.338 545.558 690.998> 1130 64<74.3357 298.716>
LayerCount: 2
Fore
SplineSet
252.736328125 325.73828125 m 2
 227.75390625 350.73828125 227.75390625 391.2578125 252.736328125 416.2578125 c 2
 572.740234375 736.198242188 l 2
 612.8203125 776.278320312 682 748.118164062 682 690.938476562 c 2
 682 545.557617188 l 1
 913 537.877929688 1194 489.217773438 1194 183.41796875 c 0
 1194 53.4580078125 1126.91992188 -53.1015625 1023.78027344 -128.522460938 c 0
 975.400390625 -163.921875 907.700195312 -118.681640625 924.400390625 -59.501953125 c 0
 979.799804688 136.877929688 925.16015625 184.618164062 682 193.337890625 c 1
 682 51.0380859375 l 2
 682 -6.181640625 612.780273438 -34.2421875 572.740234375 5.7783203125 c 2
 252.736328125 325.73828125 l 2
298 370.998046875 m 1
 618 50.998046875 l 1
 618 258.797851562 l 1
 909.341796875 256.146484375 1067.95800781 213.532226562 986 -77.001953125 c 1
 1049.01953125 -30.90234375 1130 53.2177734375 1130 183.41796875 c 0
 1130 446.267578125 878.330078125 480.108398438 618 482.797851562 c 1
 618 690.998046875 l 1
 298 370.998046875 l 1
60.744140625 416.25390625 m 2
 380.744140625 736.202148438 l 2
 407.677734375 763.135742188 447.734375 759.213867188 471.122070312 736.412109375 c 1
 106 370.998046875 l 1
 471.127929688 5.57421875 l 1
 447.73046875 -17.232421875 407.65234375 -21.1201171875 380.74609375 5.7861328125 c 2
 60.74609375 325.7421875 l 2
 35.751953125 350.73828125 35.751953125 391.259765625 60.744140625 416.25390625 c 2
EndSplineSet
Validated: 33
EndChar

StartChar: uniF2C8
Encoding: 62152 62152 87
Width: 1357
VWidth: 0
Flags: W
HStem: 161.22 97.7803<804 957.701> 419 94.46<804 965.584>
VStem: 708 96<19 161.22 513.46 659> 1220 96<58.158 263.649>
LayerCount: 2
Fore
SplineSet
320.120117188 271.120117188 m 2
 282.620117188 308.599609375 282.620117188 369.400390625 320.120117188 406.879882812 c 2
 640.120117188 726.799804688 l 2
 700.219726562 786.919921875 804 744.6796875 804 658.919921875 c 2
 804 513.459960938 l 1
 1061.6796875 504.280273438 1316 447.040039062 1316 162.240234375 c 0
 1316 34.6796875 1260.29980469 -54.580078125 1159.08007812 -123.98046875 c 0
 1085.29980469 -174.540039062 986.540039062 -104.620117188 1012.87988281 -17.1201171875 c 0
 1047.90039062 99.240234375 1040.36035156 151.33984375 804 161.219726562 c 1
 804 19.0595703125 l 2
 804 -66.7802734375 700.16015625 -108.860351562 640.120117188 -48.8203125 c 2
 320.120117188 271.120117188 l 2
388 339 m 1
 708 19 l 1
 708 259 l 1
 983.141601562 259 1186.80371094 227.494140625 1104.79980469 -45 c 1
 1162.41992188 -5.5 1220 50.6396484375 1220 162.240234375 c 0
 1220 405.973632812 949.232421875 419 708 419 c 1
 708 659 l 1
 388 339 l 1
64.1181640625 406.881835938 m 2
 384.118164062 726.805664062 l 2
 424.896484375 767.583984375 485.76171875 761.24609375 520.698242188 726.185546875 c 1
 132 339 l 1
 520.700195312 -48.2060546875 l 1
 485.751953125 -83.267578125 424.858398438 -89.5556640625 384.118164062 -48.818359375 c 2
 64.1181640625 271.116210938 l 2
 26.6279296875 308.608398438 26.6279296875 369.391601562 64.1181640625 406.881835938 c 2
EndSplineSet
Validated: 33
EndChar

StartChar: uniF2C9
Encoding: 62153 62153 88
Width: 1234
VWidth: 0
Flags: W
VStem: 971.18 222.82<111.377 186.53>
LayerCount: 2
Fore
SplineSet
314.618164062 439.328125 m 2
 666.625976562 743.297851562 l 2
 697.440429688 769.908203125 746 748.303710938 746 706.969726562 c 2
 746 541.444335938 l 1
 1004.36425781 520.982421875 1194 437.01953125 1194 174.34765625 c 0
 1194 51.4658203125 1114.8359375 -70.26953125 1027.33398438 -133.916015625 c 0
 1000.02832031 -153.778320312 961.112304688 -128.849609375 971.1796875 -96.654296875 c 0
 1048.20410156 149.669921875 963.3359375 242.309570312 746 267.375976562 c 1
 746 99.0263671875 l 2
 746 57.6240234375 697.400390625 36.1201171875 666.625976562 62.6982421875 c 2
 314.618164062 366.671875 l 2
 292.475585938 385.793945312 292.446289062 420.177734375 314.618164062 439.328125 c 2
58.6181640625 366.671875 m 2
 36.4755859375 385.793945312 36.4462890625 420.177734375 58.6181640625 439.328125 c 2
 410.625976562 743.297851562 l 2
 441.440429688 769.908203125 490 748.303710938 490 706.969726562 c 2
 490 675.3359375 l 1
 272.786132812 487.763671875 l 2
 251.375976562 469.284179688 234 431.33203125 234 403.049804688 c 0
 234 403.037109375 234 403.016601562 234 403.00390625 c 0
 234 402.990234375 234 402.96875 234 402.956054688 c 0
 234 374.670898438 251.376953125 336.715820312 272.788085938 318.234375 c 2
 490 130.6640625 l 1
 490 99.0283203125 l 2
 490 57.6259765625 441.400390625 36.1220703125 410.625976562 62.7001953125 c 2
 58.6181640625 366.671875 l 2
EndSplineSet
Validated: 33
EndChar

StartChar: uniF2CA
Encoding: 62154 62154 89
Width: 1078
VWidth: 0
Flags: W
HStem: -77 64<95.4525 984.548> 51 64<220 860> 355 64<212.531 291.469> 515 64<212.531 291.469> 627 64<95.4525 984.548>
VStem: 28 64<-9.54754 623.548> 140 64<427.531 506.469> 300 64<427.531 506.469> 860 64<115 252.372> 988 64<-9.54754 623.548>
LayerCount: 2
Fore
SplineSet
956 691 m 2
 1009.01953125 691 1052 648.01953125 1052 595 c 2
 1052 19 l 2
 1052 -34.01953125 1009.01953125 -77 956 -77 c 2
 124 -77 l 2
 70.98046875 -77 28 -34.01953125 28 19 c 2
 28 595 l 2
 28 648.01953125 70.98046875 691 124 691 c 2
 956 691 l 2
988 19 m 2
 988 595 l 2
 988 612.643554688 973.643554688 627 956 627 c 2
 124 627 l 2
 106.356445312 627 92 612.643554688 92 595 c 2
 92 19 l 2
 92 1.3564453125 106.356445312 -13 124 -13 c 2
 956 -13 l 2
 973.643554688 -13 988 1.3564453125 988 19 c 2
252 355 m 0
 190.143554688 355 140 405.143554688 140 467 c 0
 140 528.856445312 190.143554688 579 252 579 c 0
 313.856445312 579 364 528.856445312 364 467 c 0
 364 405.143554688 313.856445312 355 252 355 c 0
252 515 m 0
 225.532226562 515 204 493.467773438 204 467 c 0
 204 440.532226562 225.532226562 419 252 419 c 0
 278.467773438 419 300 440.532226562 300 467 c 0
 300 493.467773438 278.467773438 515 252 515 c 0
666.057617188 468.942382812 m 2
 684.803710938 487.685546875 715.196289062 487.685546875 733.942382812 468.942382812 c 2
 909.942382812 292.942382812 l 2
 918.942382812 283.940429688 924 271.73046875 924 259 c 2
 924 75 l 2
 924 61.74609375 913.25390625 51 900 51 c 2
 180 51 l 2
 166.74609375 51 156 61.74609375 156 75 c 2
 156 131 l 2
 156 141.974609375 162.298828125 157.1796875 170.059570312 164.940429688 c 2
 346.059570312 340.940429688 l 2
 364.803710938 359.685546875 395.196289062 359.685546875 413.942382812 340.940429688 c 2
 476 278.881835938 l 1
 666.057617188 468.942382812 l 2
860 115 m 1
 860 252.372070312 l 1
 700 412.372070312 l 1
 476 188.372070312 l 1
 380 284.372070312 l 1
 220 124.372070312 l 1
 220 115 l 1
 860 115 l 1
EndSplineSet
Validated: 33
EndChar

StartChar: uniF2CB
Encoding: 62155 62155 90
Width: 1072
VWidth: 0
Flags: W
HStem: -77 96<120 952> 355 160<224.805 335.195> 595 96<120 952>
VStem: 24 96<19 595> 200 160<379.805 490.195> 952 96<19 595>
LayerCount: 2
Fore
SplineSet
952 691 m 2
 1005.01953125 691 1048 648.01953125 1048 595 c 2
 1048 19 l 2
 1048 -34.01953125 1005.01953125 -77 952 -77 c 2
 120 -77 l 2
 66.98046875 -77 24 -34.01953125 24 19 c 2
 24 595 l 2
 24 648.01953125 66.98046875 691 120 691 c 2
 952 691 l 2
940 19 m 2
 946.624023438 19 952 24.3759765625 952 31 c 2
 952 583 l 2
 952 589.624023438 946.624023438 595 940 595 c 2
 132 595 l 2
 125.375976562 595 120 589.624023438 120 583 c 2
 120 31 l 2
 120 24.3759765625 125.375976562 19 132 19 c 2
 940 19 l 2
280 515 m 0
 324.181640625 515 360 479.181640625 360 435 c 0
 360 390.818359375 324.181640625 355 280 355 c 0
 235.818359375 355 200 390.818359375 200 435 c 0
 200 479.181640625 235.818359375 515 280 515 c 0
216 115 m 1
 216 211 l 1
 295.028320312 290.030273438 l 2
 304.40234375 299.40234375 319.59765625 299.40234375 328.969726562 290.030273438 c 2
 408 211 l 1
 647.028320312 450.030273438 l 2
 656.40234375 459.40234375 671.59765625 459.40234375 680.969726562 450.030273438 c 2
 856 275 l 1
 856 115 l 1
 216 115 l 1
EndSplineSet
Validated: 33
EndChar

StartChar: uniF2CC
Encoding: 62156 62156 91
Width: 1068
VWidth: 0
Flags: W
HStem: -77 128<148 916> 579 112<176.988 311.012>
VStem: 20 128<51 147> 20 112<399.988 534.012> 916 128<51 275>
LayerCount: 2
Fore
SplineSet
948 -77 m 2xd8
 116 -77 l 2
 62.98046875 -77 20 -34.01953125 20 19 c 2
 20 595 l 2
 20 648.01953125 62.98046875 691 116 691 c 2
 948 691 l 2
 1001.01953125 691 1044 648.01953125 1044 595 c 2
 1044 19 l 2
 1044 -34.01953125 1001.01953125 -77 948 -77 c 2xd8
244 579 m 0
 182.143554688 579 132 528.856445312 132 467 c 0
 132 405.143554688 182.143554688 355 244 355 c 0
 305.856445312 355 356 405.143554688 356 467 c 0
 356 528.856445312 305.856445312 579 244 579 c 0
148 51 m 1xe8
 916 51 l 1
 916 275 l 1
 740.969726562 450.030273438 l 2
 731.59765625 459.40234375 716.40234375 459.40234375 707.028320312 450.030273438 c 2
 436 179 l 1
 324.969726562 290.030273438 l 2
 315.59765625 299.40234375 300.40234375 299.40234375 291.028320312 290.030273438 c 2
 148 147 l 1
 148 51 l 1xe8
EndSplineSet
Validated: 33
EndChar

StartChar: uniF2CD
Encoding: 62157 62157 92
Width: 1082
VWidth: 0
Flags: W
HStem: -77 128<154 922> 51 640<362 922> 579 112<183.002 316.998>
VStem: 26 128<51 147> 26 112<400.002 533.998>
LayerCount: 2
Fore
SplineSet
922 51 m 1x90
 154 51 l 1
 154 147 l 1
 297.01953125 290.040039062 l 2
 300.903320312 293.936523438 308.518554688 297.098632812 314.01953125 297.098632812 c 0
 319.520507812 297.098632812 327.13671875 293.936523438 331.01953125 290.040039062 c 2
 442 179 l 1
 713.01953125 450.040039062 l 2
 716.903320312 453.936523438 724.518554688 457.098632812 730.01953125 457.098632812 c 0
 735.520507812 457.098632812 743.13671875 453.936523438 747.01953125 450.040039062 c 2
 922 275 l 1
 922 51 l 1x90
954 691 m 2xa8
 1006.9921875 691 1050 647.9921875 1050 595 c 2
 1050 19 l 2
 1050 -33.9921875 1006.9921875 -77 954 -77 c 2
 122 -77 l 2
 69.0078125 -77 26 -33.9921875 26 19 c 2
 26 595 l 2
 26 647.9921875 69.0078125 691 122 691 c 2
 954 691 l 2xa8
250 579 m 0
 188.17578125 579 138 528.82421875 138 467 c 0
 138 405.17578125 188.17578125 355 250 355 c 0
 311.82421875 355 362 405.17578125 362 467 c 0
 362 528.82421875 311.82421875 579 250 579 c 0
922 51 m 1
 922 275 l 1
 747.01953125 450.040039062 l 2
 743.13671875 453.936523438 735.520507812 457.098632812 730.01953125 457.098632812 c 0
 724.518554688 457.098632812 716.903320312 453.936523438 713.01953125 450.040039062 c 2
 442 179 l 1
 331.01953125 290.040039062 l 2
 327.13671875 293.936523438 319.520507812 297.098632812 314.01953125 297.098632812 c 0
 308.518554688 297.098632812 300.903320312 293.936523438 297.01953125 290.040039062 c 2
 154 147 l 1
 154 51 l 1x90
 922 51 l 1
EndSplineSet
Validated: 5
EndChar

StartChar: uniF2E0
Encoding: 62176 62176 93
Width: 1024
VWidth: 0
HStem: -141 96<65.4394 160 288 382.561 641.439 736 864 958.561> 259 96<288 736> 659 96<65.4394 160 288 382.561 641.439 736 864 958.561>
VStem: 160 128<-45 259 355 659> 736 128<-45 259 355 659>
CounterMasks: 1 e0
LayerCount: 2
Fore
SplineSet
864 659 m 1
 864 -45 l 1
 928 -45 l 2
 945.6640625 -45 960 -59.3359375 960 -77 c 2
 960 -109 l 2
 960 -126.6640625 945.6640625 -141 928 -141 c 2
 672 -141 l 2
 654.3359375 -141 640 -126.6640625 640 -109 c 2
 640 -77 l 2
 640 -59.3359375 654.3359375 -45 672 -45 c 2
 736 -45 l 1
 736 259 l 1
 288 259 l 1
 288 -45 l 1
 352 -45 l 2
 369.6640625 -45 384 -59.3359375 384 -77 c 2
 384 -109 l 2
 384 -126.6640625 369.6640625 -141 352 -141 c 2
 96 -141 l 2
 78.3359375 -141 64 -126.6640625 64 -109 c 2
 64 -77 l 2
 64 -59.3359375 78.3359375 -45 96 -45 c 2
 160 -45 l 1
 160 659 l 1
 96 659 l 2
 78.3359375 659 64 673.3359375 64 691 c 2
 64 723 l 2
 64 740.6640625 78.3359375 755 96 755 c 2
 352 755 l 2
 369.6640625 755 384 740.6640625 384 723 c 2
 384 691 l 2
 384 673.3359375 369.6640625 659 352 659 c 2
 288 659 l 1
 288 355 l 1
 736 355 l 1
 736 659 l 1
 672 659 l 2
 654.3359375 659 640 673.3359375 640 691 c 2
 640 723 l 2
 640 740.6640625 654.3359375 755 672 755 c 2
 928 755 l 2
 945.6640625 755 960 740.6640625 960 723 c 2
 960 691 l 2
 960 673.3359375 945.6640625 659 928 659 c 2
 864 659 l 1
EndSplineSet
Validated: 1
EndChar

StartChar: uniF2E1
Encoding: 62177 62177 94
Width: 1190
VWidth: 0
Flags: W
HStem: -13 96<21.5858 100 196 275.699 405.586 484 580 658.414 789.439 932 1028 1170.56> 259 96<196 484> 531 96<21.5858 100 196 274.414 404.301 484 580 658.414>
VStem: 20 256<-11.4142 82.6989 531.301 625.561> 100 96<83 259 355 531> 404 256<-11.5606 82.6989 531.301 625.414> 484 96<83 259 355 531> 836.046 191.954<442.583 538.98> 932 96<83 435>
CounterMasks: 1 e0
LayerCount: 2
Fore
SplineSet
628 627 m 2xe4
 645.6640625 627 660 612.6640625 660 595 c 2
 660 557.120117188 l 2xe4
 660 542.702148438 648.297851562 531 633.879882812 531 c 1
 580 531 l 1
 580 83 l 1xe2
 633.879882812 83 l 2
 648.297851562 83 660 71.2978515625 660 56.8798828125 c 2
 660 19 l 2
 660 1.3359375 645.6640625 -13 628 -13 c 2
 436 -13 l 2
 418.3359375 -13 404 1.3359375 404 19 c 2
 404 56.8798828125 l 2xe4
 404 71.2978515625 415.702148438 83 430.120117188 83 c 2
 484 83 l 1
 484 259 l 1
 196 259 l 1
 196 83 l 1xea
 249.879882812 83 l 2
 264.297851562 83 276 71.2978515625 276 56.8798828125 c 2
 276 13.1201171875 l 2
 276 -1.2978515625 264.297851562 -13 249.879882812 -13 c 1
 52 -13 l 2
 34.3359375 -13 20 1.3359375 20 19 c 2
 20 56.8798828125 l 2xf0
 20 71.2978515625 31.7021484375 83 46.1201171875 83 c 2
 100 83 l 1
 100 531 l 1xe8
 46.1201171875 531 l 2
 31.7021484375 531 20 542.702148438 20 557.120117188 c 2
 20 595 l 2
 20 612.6640625 34.3359375 627 52 627 c 2
 244 627 l 2
 261.6640625 627 276 612.6640625 276 595 c 2
 276 557.120117188 l 2xf0
 276 542.702148438 264.297851562 531 249.879882812 531 c 1
 196 531 l 1
 196 355 l 1
 484 355 l 1
 484 531 l 1xea
 430.120117188 531 l 2
 415.702148438 531 404 542.702148438 404 557.120117188 c 2
 404 600.879882812 l 2
 404 615.297851562 415.702148438 627 430.120117188 627 c 2
 628 627 l 2xe4
1140 83 m 6
 1157.6640625 83 1172 68.6640625 1172 51 c 6
 1172 19 l 6
 1172 1.3359375 1157.6640625 -13 1140 -13 c 6
 820 -13 l 6
 802.3359375 -13 788 1.3359375 788 19 c 6
 788 51 l 6
 788 68.6640625 802.3359375 83 820 83 c 6
 932 83 l 5
 932 435 l 5xe080
 884 435 l 6
 857.529296875 435.025390625 836.045898438 456.529296875 836.045898438 483 c 4xe1
 836.045898438 489.259765625 838.319335938 498.8828125 841.120117188 504.48046875 c 6
 889.120117188 600.48046875 l 6
 896.4375 615.103515625 915.647460938 626.984375 932 627 c 6
 980 627 l 6
 1006.49609375 627 1028 605.49609375 1028 579 c 6
 1028 83 l 5xe080
 1140 83 l 6
EndSplineSet
Validated: 1
EndChar

StartChar: uniF2E2
Encoding: 62178 62178 95
Width: 1170
VWidth: 0
Flags: W
HStem: -13 96<27.5858 106 202 281.699 411.586 490 586 664.414 847.64 1145.93> 259 96<202 490> 531 96<27.5858 106 202 280.414 410.301 490 586 664.414 872.378 990.272>
VStem: 26 256<-11.4142 82.6989 531.301 625.561> 106 96<83 259 355 531> 410 256<-11.5606 82.6989 531.301 625.414> 490 96<83 259 355 531> 1028.84 110.8<379.933 494.391>
CounterMasks: 1 e0
LayerCount: 2
Fore
SplineSet
634 627 m 2xe5
 651.6640625 627 666 612.6640625 666 595 c 2
 666 557.120117188 l 2xe5
 666 542.702148438 654.297851562 531 639.879882812 531 c 1
 586 531 l 1
 586 83 l 1xe3
 639.879882812 83 l 2
 654.297851562 83 666 71.2978515625 666 56.8798828125 c 2
 666 19 l 2
 666 1.3359375 651.6640625 -13 634 -13 c 2
 442 -13 l 2
 424.3359375 -13 410 1.3359375 410 19 c 2
 410 56.8798828125 l 2xe5
 410 71.2978515625 421.702148438 83 436.120117188 83 c 2
 490 83 l 1
 490 259 l 1
 202 259 l 1
 202 83 l 1xeb
 255.879882812 83 l 2
 270.297851562 83 282 71.2978515625 282 56.8798828125 c 2
 282 13.1201171875 l 2
 282 -1.2978515625 270.297851562 -13 255.879882812 -13 c 1
 58 -13 l 2
 40.3359375 -13 26 1.3359375 26 19 c 2
 26 56.8798828125 l 2xf1
 26 71.2978515625 37.7021484375 83 52.1201171875 83 c 2
 106 83 l 1
 106 531 l 1xe9
 52.1201171875 531 l 2
 37.7021484375 531 26 542.702148438 26 557.120117188 c 2
 26 595 l 2
 26 612.6640625 40.3359375 627 58 627 c 2
 250 627 l 2
 267.6640625 627 282 612.6640625 282 595 c 2
 282 557.120117188 l 2xf1
 282 542.702148438 270.297851562 531 255.879882812 531 c 1
 202 531 l 1
 202 355 l 1
 490 355 l 1
 490 531 l 1xeb
 436.120117188 531 l 2
 421.702148438 531 410 542.702148438 410 557.120117188 c 2
 410 600.879882812 l 2
 410 615.297851562 421.702148438 627 436.120117188 627 c 2
 634 627 l 2xe5
1122.28027344 82.740234375 m 2
 1122.28515625 82.740234375 1122.29492188 82.740234375 1122.29980469 82.740234375 c 0
 1135.3828125 82.740234375 1146 72.1220703125 1146 59.0400390625 c 0
 1146 59.029296875 1146 59.0107421875 1146 59 c 2
 1146 10.6396484375 l 2
 1145.96679688 -2.3984375 1135.35839844 -12.9892578125 1122.3203125 -13 c 2
 756.3203125 -13 l 2
 745.10546875 -12.7978515625 734.532226562 -3.6494140625 732.719726562 7.419921875 c 0
 731.266601562 17.5361328125 730.020507812 34.0400390625 729.940429688 44.259765625 c 0
 729.940429688 267.240234375 1028.83984375 301.240234375 1028.83984375 435.240234375 c 0
 1028.83984375 489.080078125 989.120117188 525.240234375 929.98046875 525.240234375 c 0
 885.700195312 525.240234375 848.540039062 499 822.540039062 462.540039062 c 0
 818.614257812 457.030273438 809.9375 452.55859375 803.172851562 452.55859375 c 0
 799.205078125 452.55859375 793.303710938 454.341796875 790 456.540039062 c 2
 747.419921875 485 l 2
 741.588867188 488.868164062 736.85546875 497.686523438 736.85546875 504.68359375 c 0
 736.85546875 508.317382812 738.380859375 513.790039062 740.259765625 516.900390625 c 0
 777.247070312 577.641601562 864.983398438 626.965820312 936.099609375 627 c 0
 1056 627 1139.59960938 550.66015625 1139.63964844 441.360351562 c 0
 1139.63964844 241.299804688 864.6796875 203.440429688 847.639648438 82.740234375 c 1
 1122.28027344 82.740234375 l 2
EndSplineSet
Validated: 1
EndChar

StartChar: uniF2E3
Encoding: 62179 62179 96
Width: 1184
VWidth: 0
Flags: W
HStem: -13 96<31.5858 110 206 285.699 415.586 494 590 668.414 865.575 998.206> 259 96<206 494> 531.34 95.6602<31.5858 110 206 284.414 414.301 494 590 668.414 765.897 1001.74>
VStem: 30 256<-11.4142 82.6989 531.301 625.561> 110 96<83 259 355 531> 414 256<-11.5606 82.6989 531.301 625.414> 494 96<83 259 355 531> 1050.92 108.84<131.963 246.903>
LayerCount: 2
Fore
SplineSet
990.139648438 379.440429688 m 1xe1
 1086.29980469 361.639648438 1159.78027344 295.5 1159.75976562 193.299804688 c 0
 1159.75976562 79.400390625 1068.44042969 -13.0400390625 940.040039062 -13.0400390625 c 0
 862.51953125 -13.0400390625 790.48046875 18.2802734375 741.280273438 64.9599609375 c 0
 737.250976562 68.7890625 733.981445312 76.4072265625 733.981445312 81.9658203125 c 0
 733.981445312 86.1826171875 735.997070312 92.37109375 738.48046875 95.7802734375 c 2
 770.48046875 139.780273438 l 2
 774.44921875 145.217773438 783.133789062 149.631835938 789.866210938 149.631835938 c 0
 794.983398438 149.631835938 802.211914062 146.83984375 806 143.400390625 c 0
 842.8203125 110.540039062 888.580078125 89.6201171875 936.580078125 89.6201171875 c 0
 1001.75976562 89.6201171875 1050.91992188 132.740234375 1050.91992188 189.879882812 c 0
 1050.91992188 236.540039062 1016.44042969 291 919.219726562 291 c 2
 885.059570312 291 l 2
 876.71484375 291.423828125 866.921875 297.838867188 863.200195312 305.3203125 c 2
 849.780273438 335.919921875 l 2
 848.67578125 338.412109375 847.780273438 342.647460938 847.780273438 345.373046875 c 0
 847.780273438 350.1875 850.342773438 357.044921875 853.5 360.6796875 c 2
 853.5 360.6796875 996.200195312 526.080078125 1001.74023438 531.83984375 c 1
 994.620117188 531.559570312 789.7734375 531.33984375 789.740234375 531.33984375 c 0
 789.70703125 531.33984375 789.653320312 531.33984375 789.620117188 531.33984375 c 0
 776.559570312 531.33984375 765.915039062 541.939453125 765.860351562 555 c 2
 765.860351562 603.360351562 l 2
 765.92578125 616.409179688 776.5703125 627 789.620117188 627 c 0
 789.653320312 627 789.70703125 627 789.740234375 627 c 2
 1122.87988281 627 l 2
 1122.91308594 627 1122.96679688 627 1123 627 c 0
 1136.04980469 627 1146.703125 616.409179688 1146.78027344 603.360351562 c 2
 1146.78027344 566.719726562 l 2
 1146.76757812 561.830078125 1144.14257812 554.877929688 1140.91992188 551.200195312 c 2
 990.139648438 379.440429688 l 1xe1
638 627 m 2
 655.6640625 627 670 612.6640625 670 595 c 2
 670 557.120117188 l 2xe5
 670 542.702148438 658.297851562 531 643.879882812 531 c 1
 590 531 l 1
 590 83 l 1xe3
 643.879882812 83 l 2
 658.297851562 83 670 71.2978515625 670 56.8798828125 c 2
 670 19 l 2
 670 1.3359375 655.6640625 -13 638 -13 c 2
 446 -13 l 2
 428.3359375 -13 414 1.3359375 414 19 c 2
 414 56.8798828125 l 2xe5
 414 71.2978515625 425.702148438 83 440.120117188 83 c 2
 494 83 l 1
 494 259 l 1
 206 259 l 1
 206 83 l 1xeb
 259.879882812 83 l 2
 274.297851562 83 286 71.2978515625 286 56.8798828125 c 2
 286 13.1201171875 l 2
 286 -1.2978515625 274.297851562 -13 259.879882812 -13 c 1
 62 -13 l 2
 44.3359375 -13 30 1.3359375 30 19 c 2
 30 56.8798828125 l 2xf1
 30 71.2978515625 41.7021484375 83 56.1201171875 83 c 2
 110 83 l 1
 110 531 l 1xe9
 56.1201171875 531 l 2
 41.7021484375 531 30 542.702148438 30 557.120117188 c 2
 30 595 l 2
 30 612.6640625 44.3359375 627 62 627 c 2
 254 627 l 2
 271.6640625 627 286 612.6640625 286 595 c 2
 286 557.120117188 l 2xf1
 286 542.702148438 274.297851562 531 259.879882812 531 c 1
 206 531 l 1
 206 355 l 1
 494 355 l 1
 494 531 l 1xeb
 440.120117188 531 l 2
 425.702148438 531 414 542.702148438 414 557.120117188 c 2
 414 600.879882812 l 2xe5
 414 615.297851562 425.702148438 627 440.120117188 627 c 2
 638 627 l 2
EndSplineSet
Validated: 33
EndChar

StartChar: uniF2E4
Encoding: 62180 62180 97
Width: 1168
VWidth: 0
Flags: W
LayerCount: 2
Fore
SplineSet
1093.21972656 667.1796875 m 2
 1132.45996094 627.940429688 1134.41992188 564.940429688 1097.71972656 523.299804688 c 2
 600.419921875 -48.5 l 2
 590.219726562 -60.0595703125 563.419921875 -80.16015625 527.400390625 -69.1396484375 c 2
 445.580078125 -44.080078125 l 1
 372.66015625 -117.01953125 l 2
 359.16015625 -130.51953125 337.280273438 -130.51953125 323.780273438 -117.01953125 c 2
 323.740234375 -116.98046875 l 1
 235.759765625 -205 l 1
 36 -140.959960938 l 1
 188.919921875 17.8798828125 l 1
 188.419921875 18.400390625 l 2
 174.940429688 31.900390625 174.940429688 53.759765625 188.419921875 67.259765625 c 2
 261.5 140.379882812 l 1
 236.51953125 222.419921875 l 2
 228.51953125 248.700195312 236.599609375 277.240234375 257.1796875 295.400390625 c 2
 828.459960938 792.700195312 l 2
 844.869140625 807.217773438 875.967773438 819 897.876953125 819 c 0
 897.899414062 819 897.9375 819 897.959960938 819 c 0
 924.900390625 819 951.8203125 808.6796875 972.240234375 788.219726562 c 2
 1093.21972656 667.1796875 l 2
218.099609375 -132.099609375 m 1
 278.48046875 -71.6796875 l 1
 234.200195312 -27.3798828125 l 1
 153.6796875 -111.440429688 l 1
 218.099609375 -132.099609375 l 1
552.419921875 -6.1201171875 m 2
 630.639648438 83.7802734375 l 1
 389.16015625 325.379882812 l 1
 299.219726562 247.080078125 l 2
 297.780273438 245.799804688 297.080078125 243.33984375 297.759765625 241.080078125 c 2
 322.740234375 159.040039062 l 1
 333.940429688 122.280273438 l 1
 254.51953125 42.83984375 l 1
 348.219726562 -50.919921875 l 1
 427.51953125 28.419921875 l 1
 464.299804688 17.16015625 l 1
 546.120117188 -7.900390625 l 2
 546.700195312 -7.9599609375 547.259765625 -8 547.780273438 -8 c 0
 549.620117188 -8 551.16015625 -7.5595703125 552.419921875 -6.1201171875 c 2
1049.44042969 565.33984375 m 2
 1064.04003906 581.900390625 1063.25976562 606.599609375 1047.95996094 621.900390625 c 2
 927 742.940429688 l 2
 905.900390625 764.059570312 879.799804688 752.639648438 870.799804688 744.700195312 c 2
 437.51953125 367.51953125 l 1
 672.719726562 132.200195312 l 1
 1049.44042969 565.33984375 l 2
EndSplineSet
Validated: 33
EndChar

StartChar: uniF2E5
Encoding: 62181 62181 98
Width: 1162
VWidth: 0
Flags: W
HStem: -19.7598 20G<147.475 186.851> 722.96 96.04<852.595 909.408>
LayerCount: 2
Fore
SplineSet
30 -140.959960938 m 1
 166.860351562 0.240234375 l 1
 300.879882812 -133.83984375 l 1
 229.759765625 -205 l 1
 30 -140.959960938 l 1
1085.86035156 660.459960938 m 2
 1126.83984375 619.459960938 1128.87988281 553.6796875 1090.55957031 510.240234375 c 2
 638.059570312 -20.01953125 l 2
 626.004882812 -33.6875 601.431640625 -44.7802734375 583.20703125 -44.7802734375 c 0
 583.205078125 -44.7802734375 583.202148438 -44.7802734375 583.200195312 -44.7802734375 c 0
 577.16015625 -44.775390625 567.573242188 -43.3330078125 561.799804688 -41.5595703125 c 2
 476.360351562 -15.400390625 l 1
 408.639648438 -83.16015625 l 2
 389.900390625 -101.919921875 359.48046875 -101.919921875 340.740234375 -83.16015625 c 2
 216.219726562 41.419921875 l 2
 197.48046875 60.16015625 197.48046875 90.5400390625 216.219726562 109.280273438 c 2
 284.120117188 177.219726562 l 1
 258.01953125 262.879882812 l 2
 256.267578125 268.635742188 254.844726562 278.189453125 254.844726562 284.206054688 c 0
 254.844726562 302.43359375 265.934570312 327.017578125 279.599609375 339.080078125 c 2
 809.379882812 791.540039062 l 2
 830.1796875 809.900390625 856.080078125 819 881.940429688 819 c 0
 910.080078125 819 938.1796875 808.219726562 959.51953125 786.860351562 c 2
 1085.86035156 660.459960938 l 2
575.559570312 54.6396484375 m 1
 641.059570312 131.360351562 l 1
 430.700195312 341.8203125 l 1
 354.240234375 276.51953125 l 1
 375.959960938 205.200195312 l 1
 392.759765625 150.059570312 l 1
 352.01953125 109.299804688 l 1
 318.080078125 75.33984375 l 1
 374.700195312 18.7001953125 l 1
 408.48046875 52.5 l 1
 449.280273438 93.3203125 l 1
 504.459960938 76.419921875 l 1
 575.559570312 54.6396484375 l 1
1017.54003906 572.580078125 m 2
 1023.33984375 579.1796875 1023.08007812 587.419921875 1018 592.540039062 c 2
 891.66015625 718.940429688 l 2
 888.33984375 722.259765625 884.540039062 722.959960938 881.940429688 722.959960938 c 0
 878.51953125 722.959960938 875.459960938 721.799804688 872.879882812 719.51953125 c 2
 479.51953125 383.51953125 l 1
 682.719726562 180.219726562 l 1
 1017.54003906 572.580078125 l 2
EndSplineSet
Validated: 33
EndChar

StartChar: uniF2E6
Encoding: 62182 62182 99
Width: 1177
VWidth: 0
Flags: W
HStem: -20.0195 20G<156.268 195.66>
LayerCount: 2
Fore
SplineSet
39 -140.959960938 m 1
 175.66015625 -0.01953125 l 1
 309.740234375 -134.099609375 l 1
 238.83984375 -205 l 1
 39 -140.959960938 l 1
288.219726562 339.059570312 m 1
 371.259765625 409.940429688 l 1
 717.940429688 63.259765625 l 1
 646.83984375 -20.01953125 l 2
 627.83984375 -41.5595703125 598 -49.98046875 570.540039062 -41.580078125 c 2
 485.059570312 -15.419921875 l 1
 383.33984375 -117.139648438 l 1
 190.879882812 75.3203125 l 1
 292.740234375 177.200195312 l 1
 266.639648438 262.860351562 l 2
 264.885742188 268.616210938 263.462890625 278.171875 263.462890625 284.189453125 c 0
 263.462890625 302.416992188 274.553710938 326.999023438 288.219726562 339.059570312 c 1
1094.83984375 660.459960938 m 2
 1135.83984375 619.459960938 1137.90039062 553.6796875 1099.54003906 510.200195312 c 2
 759.639648438 112.080078125 l 1
 420.099609375 451.639648438 l 1
 818.200195312 791.559570312 l 2
 861.6796875 829.900390625 927.459960938 827.83984375 968.440429688 786.860351562 c 2
 1094.83984375 660.459960938 l 2
EndSplineSet
Validated: 33
EndChar

StartChar: uniF2E7
Encoding: 62183 62183 100
Width: 1183
VWidth: 0
Flags: W
HStem: -20.0996 20G<159.331 198.74>
LayerCount: 2
Fore
SplineSet
42 -141 m 1
 178.740234375 -0.099609375 l 1
 312.740234375 -134.099609375 l 1
 241.83984375 -205 l 1
 42 -141 l 1
1097.83984375 660.459960938 m 2
 1115.625 642.708007812 1130.05957031 607.905273438 1130.05957031 582.776367188 c 0
 1130.05957031 559.885742188 1117.77539062 527.372070312 1102.63964844 510.200195312 c 2
 762.639648438 112.080078125 l 1
 423.200195312 451.559570312 l 1
 821.200195312 791.559570312 l 2
 838.37890625 806.711914062 870.911132812 819.009765625 893.818359375 819.009765625 c 0
 918.916992188 819.009765625 953.69140625 804.606445312 971.440429688 786.860351562 c 2
 1097.83984375 660.459960938 l 2
193.879882812 75.3203125 m 1
 295.740234375 177.200195312 l 1
 269.639648438 262.860351562 l 2
 267.895507812 268.602539062 266.479492188 278.134765625 266.479492188 284.137695312 c 0
 266.479492188 302.358398438 277.563476562 326.9375 291.219726562 339 c 2
 374.259765625 409.879882812 l 1
 720.940429688 63.259765625 l 1
 649.83984375 -20.01953125 l 2
 637.779296875 -33.6904296875 613.194335938 -44.7861328125 594.963867188 -44.7861328125 c 0
 588.91796875 -44.7861328125 579.3203125 -43.349609375 573.540039062 -41.580078125 c 2
 488 -15.419921875 l 1
 386.280273438 -117.139648438 l 1
 193.879882812 75.3203125 l 1
EndSplineSet
Validated: 1
EndChar

StartChar: uniF2E8
Encoding: 62184 62184 101
Width: 1024
VWidth: 0
Flags: W
HStem: -141 96<159 863> 659 96<159 863>
VStem: 63 96<-45 659> 863 96<-45 659>
LayerCount: 2
Fore
SplineSet
863 755 m 2
 916 755 959 712 959 659 c 2
 959 -45 l 2
 959 -98 916 -141 863 -141 c 2
 159 -141 l 2
 106 -141 63 -98 63 -45 c 2
 63 659 l 2
 63 712 106 755 159 755 c 2
 863 755 l 2
851 -45 m 2
 857.599609375 -45 863 -39.599609375 863 -33 c 2
 863 647 l 2
 863 653.599609375 857.599609375 659 851 659 c 2
 171 659 l 2
 164.400390625 659 159 653.599609375 159 647 c 2
 159 -33 l 2
 159 -39.599609375 164.400390625 -45 171 -45 c 2
 851 -45 l 2
EndSplineSet
Validated: 1
EndChar

StartChar: uniF2E9
Encoding: 62185 62185 102
Width: 1144
VWidth: 0
Flags: W
HStem: -13 96<159.122 380 668 984.878> 723 96<159.122 984.878>
VStem: 60 96<86.1218 719.878> 988 96<86.1218 719.878>
LayerCount: 2
Fore
SplineSet
956 819 m 2
 1026.59960938 819 1084 761.599609375 1084 691 c 2
 1084 115 l 2
 1084 44.400390625 1026.59960938 -13 956 -13 c 2
 668 -13 l 1
 418.200195312 -200.200195312 l 2
 413.799804688 -203.599609375 408.799804688 -205 404 -205 c 0
 391.599609375 -205 380 -195.200195312 380 -181 c 2
 380 -13 l 1
 188 -13 l 2
 117.400390625 -13 60 44.400390625 60 115 c 2
 60 691 l 2
 60 761.599609375 117.400390625 819 188 819 c 2
 956 819 l 2
988 115 m 2
 988 691 l 2
 988 708.599609375 973.599609375 723 956 723 c 2
 188 723 l 2
 170.400390625 723 156 708.599609375 156 691 c 2
 156 115 l 2
 156 97.400390625 170.400390625 83 188 83 c 2
 476 83 l 1
 476 -37 l 1
 610.400390625 63.7998046875 l 1
 636 83 l 1
 956 83 l 2
 973.599609375 83 988 97.400390625 988 115 c 2
EndSplineSet
Validated: 1
EndChar

StartChar: uniF2EA
Encoding: 62186 62186 103
Width: 1090
VWidth: 0
Flags: W
LayerCount: 2
Fore
SplineSet
664.444335938 423.440429688 m 0
 766.625976562 321.2578125 773.198242188 158.866210938 683.944335938 49.1201171875 c 0
 671.459960938 33.66015625 678.375976562 41.3896484375 514.064453125 -122.919921875 c 0
 404.671875 -232.311523438 227.532226562 -232.41015625 118.083984375 -122.919921875 c 0
 8.662109375 -13.5400390625 8.6162109375 163.58984375 118.083984375 273.059570312 c 0
 183.629882812 338.606445312 221.75390625 376.858398438 244.90234375 399.973632812 c 0
 259.828125 414.877929688 285.564453125 404.681640625 285.874023438 383.58984375 c 0
 286.182617188 362.418945312 290.435546875 328.525390625 295.366210938 307.93359375 c 0
 297.297851562 299.875976562 294.822265625 291.396484375 288.961914062 285.538085938 c 2
 197.263671875 193.860351562 l 2
 131.75390625 128.309570312 131.490234375 22.076171875 197.263671875 -43.740234375 c 0
 262.814453125 -109.25 369.047851562 -109.513671875 434.864257812 -43.740234375 c 2
 585.244140625 106.66015625 l 2
 650.6796875 172.110351562 650.797851562 278.685546875 585.244140625 344.240234375 c 0
 574.169921875 355.333984375 553.728515625 369.875 539.616210938 376.698242188 c 0
 530.370117188 381.1640625 525.251953125 391.198242188 526.494140625 401.389648438 c 0
 529.206054688 423.633789062 539.0859375 445.16015625 556.124023438 462.200195312 c 2
 564.874023438 470.950195312 l 2
 572.124023438 478.202148438 583.227539062 480.137695312 592.393554688 475.538085938 c 0
 618.391601562 462.490234375 642.767578125 445.116210938 664.444335938 423.440429688 c 0
977.916015625 736.919921875 m 0
 1087.33789062 627.538085938 1087.38378906 450.408203125 977.91796875 340.938476562 c 0
 912.372070312 275.391601562 874.248046875 237.139648438 851.099609375 214.024414062 c 0
 836.173828125 199.120117188 810.438476562 209.31640625 810.127929688 230.408203125 c 0
 809.819335938 251.579101562 805.56640625 285.47265625 800.635742188 306.064453125 c 0
 798.704101562 314.122070312 801.1796875 322.6015625 807.040039062 328.459960938 c 2
 898.736328125 420.139648438 l 2
 964.24609375 485.690429688 964.509765625 591.923828125 898.736328125 657.740234375 c 0
 833.185546875 723.25 726.952148438 723.513671875 661.135742188 657.740234375 c 2
 510.755859375 507.33984375 l 2
 445.3203125 441.889648438 445.202148438 335.314453125 510.755859375 269.759765625 c 0
 521.830078125 258.665039062 542.271484375 244.124023438 556.383789062 237.301757812 c 0
 565.629882812 232.8359375 570.748046875 222.801757812 569.505859375 212.610351562 c 0
 566.793945312 190.366210938 556.916015625 168.837890625 539.875976562 151.799804688 c 2
 531.125976562 143.049804688 l 2
 523.874023438 135.799804688 512.76953125 133.862304688 503.606445312 138.461914062 c 0
 477.608398438 151.509765625 453.232421875 168.883789062 431.555664062 190.559570312 c 0
 329.374023438 292.7421875 322.801757812 455.133789062 412.055664062 564.879882812 c 0
 424.540039062 580.33984375 417.624023438 572.608398438 581.935546875 736.919921875 c 0
 691.328125 846.311523438 868.467773438 846.41015625 977.916015625 736.919921875 c 0
EndSplineSet
Validated: 33
EndChar

StartChar: uniF2EB
Encoding: 62187 62187 104
Width: 1135
VWidth: 0
Flags: W
HStem: -205 96<144 848> 595 96<144 494.561> 694.435 124.226<688.738 864.64>
VStem: 48 96<-109 595> 848 96<-109 241.561> 947.435 124.226<435.738 611.64>
LayerCount: 2
Fore
SplineSet
1043.20019531 819 m 2
 1059.09765625 819 1072 806.09765625 1072 790.200195312 c 2
 1071.66015625 463.799804688 l 2
 1071.66015625 447.90234375 1058.7578125 435 1042.86035156 435 c 2
 976.240234375 435 l 2
 976.23828125 435 976.235351562 435 976.234375 435 c 0
 960.336914062 435 947.434570312 447.90234375 947.434570312 463.799804688 c 0
 947.434570312 463.959960938 947.436523438 464.219726562 947.440429688 464.379882812 c 2
 952.879882812 611.639648438 l 1
 948.759765625 615.759765625 l 1
 391.040039062 58.01953125 l 2
 387.157226562 54.123046875 379.541015625 50.9609375 374.040039062 50.9609375 c 0
 368.5390625 50.9609375 360.922851562 54.123046875 357.040039062 58.01953125 c 2
 311.040039062 104.01953125 l 2
 307.143554688 107.903320312 303.981445312 115.518554688 303.981445312 121.01953125 c 0
 303.981445312 126.520507812 307.143554688 134.13671875 311.040039062 138.01953125 c 2
 868.759765625 695.759765625 l 1
 864.639648438 699.879882812 l 1
 717.379882812 694.440429688 l 2
 717.219726562 694.436523438 716.959960938 694.434570312 716.799804688 694.434570312 c 0
 700.90234375 694.434570312 688 707.336914062 688 723.234375 c 0
 688 723.235351562 688 723.23828125 688 723.240234375 c 2
 688 789.860351562 l 2
 688 805.7578125 700.90234375 818.66015625 716.799804688 818.66015625 c 2
 1043.20019531 819 l 2
912 243 m 2
 929.6640625 243 944 228.6640625 944 211 c 2
 944 -109 l 2
 944 -161.9921875 900.9921875 -205 848 -205 c 2
 144 -205 l 2
 91.0078125 -205 48 -161.9921875 48 -109 c 2
 48 595 l 2
 48 647.9921875 91.0078125 691 144 691 c 2
 464 691 l 2
 481.6640625 691 496 676.6640625 496 659 c 2
 496 627 l 2
 496 609.3359375 481.6640625 595 464 595 c 2
 156 595 l 2
 149.375976562 595 144 589.624023438 144 583 c 2
 144 -97 l 2
 144 -103.624023438 149.375976562 -109 156 -109 c 2
 836 -109 l 2
 842.624023438 -109 848 -103.624023438 848 -97 c 2
 848 211 l 2
 848 228.6640625 862.3359375 243 880 243 c 2
 912 243 l 2
EndSplineSet
Validated: 1
EndChar

StartChar: uniF2EC
Encoding: 62188 62188 105
Width: 1030
VWidth: 0
Flags: W
HStem: -141 96<159 349.561 672.439 863> 659 96<159 349.561 672.439 863>
VStem: 63 96<-45 659> 863 96<-45 659>
LayerCount: 2
Fore
SplineSet
319 755 m 2
 336.6640625 755 351 740.6640625 351 723 c 2
 351 691 l 2
 351 673.3359375 336.6640625 659 319 659 c 2
 159 659 l 1
 159 -45 l 1
 319 -45 l 2
 336.6640625 -45 351 -59.3359375 351 -77 c 2
 351 -109 l 2
 351 -126.6640625 336.6640625 -141 319 -141 c 2
 127 -141 l 2
 91.671875 -141 63 -112.328125 63 -77 c 2
 63 691 l 2
 63 726.328125 91.671875 755 127 755 c 2
 319 755 l 2
895 755 m 2
 930.328125 755 959 726.328125 959 691 c 2
 959 -77 l 2
 959 -112.328125 930.328125 -141 895 -141 c 2
 703 -141 l 2
 685.3359375 -141 671 -126.6640625 671 -109 c 2
 671 -77 l 2
 671 -59.3359375 685.3359375 -45 703 -45 c 2
 863 -45 l 1
 863 659 l 1
 703 659 l 2
 685.3359375 659 671 673.3359375 671 691 c 2
 671 723 l 2
 671 740.6640625 685.3359375 755 703 755 c 2
 895 755 l 2
EndSplineSet
Validated: 1
EndChar

StartChar: uniF2ED
Encoding: 62189 62189 106
Width: 1018
VWidth: 0
Flags: W
HStem: -141 128<182 372.561 631.439 822> 627 128<182 372.561 631.439 822>
VStem: 54 320<-125.387 -14.4394 628.439 739.387> 54 128<-13 627> 630 320<-125.387 -14.4394 628.439 739.387> 822 128<-13 627>
LayerCount: 2
Fore
SplineSet
342 755 m 2xe0
 359.6640625 755 374 740.6640625 374 723 c 2
 374 659 l 2xe0
 374 641.3359375 359.6640625 627 342 627 c 2
 182 627 l 1
 182 -13 l 1xd0
 342 -13 l 2
 359.6640625 -13 374 -27.3359375 374 -45 c 2
 374 -109 l 2
 374 -126.6640625 359.6640625 -141 342 -141 c 2
 118 -141 l 2
 82.671875 -141 54 -112.328125 54 -77 c 2
 54 691 l 2
 54 726.328125 82.671875 755 118 755 c 2
 342 755 l 2xe0
886 755 m 2
 921.328125 755 950 726.328125 950 691 c 2
 950 -77 l 2
 950 -112.328125 921.328125 -141 886 -141 c 2
 662 -141 l 2
 644.3359375 -141 630 -126.6640625 630 -109 c 2
 630 -45 l 2xc8
 630 -27.3359375 644.3359375 -13 662 -13 c 2
 822 -13 l 1
 822 627 l 1xc4
 662 627 l 2
 644.3359375 627 630 641.3359375 630 659 c 2
 630 723 l 2xc8
 630 740.6640625 644.3359375 755 662 755 c 2
 886 755 l 2
EndSplineSet
Validated: 1
EndChar

StartChar: uniF2EE
Encoding: 62190 62190 107
Width: 1222
VWidth: 0
Flags: W
HStem: -34.3359 85.3359<129.002 643.183> 733.664 85.3359<129.002 690.828 691 939.334>
VStem: 36 85.3359<58.6657 725.998> 947 85.3359<354.817 725.998>
LayerCount: 2
Fore
SplineSet
605.6640625 -34.3359375 m 1024
36 307 m 2
 36 477.6640625 l 2
 36 648.3359375 l 2
 36 691 l 2
 36 761.5703125 93.4296875 819 164 819 c 2
 206.6640625 819 l 2
 302.3359375 819 l 2
 691 819 l 2
 861.6640625 819 l 2
 904.3359375 819 l 2
 974.90625 819 1032.3359375 761.5703125 1032.3359375 691 c 2
 1032.3359375 648.3359375 l 2
 1032.3359375 477.6640625 l 2
 1032.3359375 392.3359375 l 2
 1032.3359375 368.78125 1013.21875 349.6640625 989.6640625 349.6640625 c 0
 966.1171875 349.6640625 947 368.78125 947 392.3359375 c 2
 947 477.6640625 l 2
 947 648.3359375 l 2
 947 691 l 2
 947 714.5078125 927.84375 733.6640625 904.3359375 733.6640625 c 2
 861.6640625 733.6640625 l 2
 691 733.6640625 l 2
 691 733.6640625 454 734 302.3359375 733.6640625 c 24
 265 734 244.001511302 733.6640625 206.6640625 733.6640625 c 27
 189.996614195 733.6640625 164 733.6640625 164 733.6640625 c 2
 140.4921875 733.6640625 121.3359375 714.5078125 121.3359375 691 c 2
 121.3359375 648.3359375 l 2
 121.3359375 477.6640625 l 2
 121.3359375 307 l 2
 121.3359375 136.3359375 l 2
 121.3359375 93.6640625 l 2
 121.3359375 70.15625 140.4921875 51 164 51 c 2
 206.6640625 51 l 2
 377.3359375 51 l 2
 605.6640625 51 l 2
 629.21875 51 648.3359375 31.8828125 648.3359375 8.3359375 c 0
 648.3359375 -15.21875 629.21875 -34.3359375 605.6640625 -34.3359375 c 2
 377.3359375 -34.3359375 l 2
 164 -34.3359375 l 2
 93.4296875 -34.3359375 36 23.09375 36 93.6640625 c 2
 36 136.3359375 l 2
 36 307 l 2
989.6640625 349.6640625 m 1024
1141.86816406 180.815429688 m 2
 1149.84082031 176.134765625 1154.16796875 170.983398438 1156.42871094 164.772460938 c 0
 1161.76953125 150.09765625 1154.19628906 133.85546875 1139.52148438 128.514648438 c 2
 1018.75585938 84.5595703125 l 1
 1154.40625 -60.0810546875 l 2
 1162.48046875 -68.6728515625 1162.03710938 -82.1865234375 1153.43066406 -90.224609375 c 2
 1082.36621094 -156.953125 l 2
 1080.23632812 -158.958007812 1077.75195312 -160.494140625 1075.07226562 -161.469726562 c 0
 1072.546875 -162.388671875 1069.83789062 -162.826171875 1067.08691406 -162.73828125 c 0
 1061.42480469 -162.529296875 1056.09667969 -160.112304688 1052.23242188 -155.981445312 c 2
 911.193359375 -5.62890625 l 1
 849.12109375 -117.895507812 l 2
 846.866210938 -122.939453125 841.138671875 -128.149414062 834.120117188 -130.704101562 c 0
 819.4453125 -136.045898438 803.203125 -128.471679688 797.864257812 -113.803710938 c 2
 621.801757812 369.924804688 l 2
 614.176757812 390.760742188 636.07421875 413.8125 658.28125 406.181640625 c 2
 1141.86816406 180.815429688 l 2
1141.86816406 180.815429688 m 1024
EndSplineSet
Validated: 33
EndChar

StartChar: uniF2EF
Encoding: 62191 62191 108
Width: 1086
VWidth: 0
Flags: W
HStem: 156.472 47.1904<419.208 676.708> 232.998 47.1904<288.299 333.457> 239.375 89.2803<731.201 808.653> 329.931 89.2803<640.646 718.097 821.757 899.21> 420.486 89.2812<731.201 808.653> 470.229 45.916<288.084 336.986> 551.856 45.916<427.759 668.244>
VStem: 36.5518 47.1914<36.2347 332.24> 167.922 47.1904<353.352 400.787> 406.428 45.916<352.1 397.257> 634.731 89.2803<335.845 413.297> 725.287 89.2803<245.289 322.741 426.401 503.853> 815.843 89.2812<335.845 413.297> 1012.26 47.1904<35.7882 331.238>
LayerCount: 2
Fore
SplineSet
1059.45117188 178.154296875 m 0x93fc
 1062.00195312 111.831054688 1055.625 64.6396484375 1041.59570312 32.75390625 c 0
 1027.56542969 -0.4072265625 1005.8828125 -18.263671875 980.374023438 -25.916015625 c 0
 956.141601562 -32.29296875 928.08203125 -28.466796875 898.747070312 -16.98828125 c 0
 849.004882812 3.4189453125 791.610351562 46.7841796875 735.491210938 99.0771484375 c 0
 695.952148438 137.33984375 621.9765625 156.471679688 548.001953125 156.471679688 c 0
 474.026367188 156.471679688 400.05078125 137.33984375 360.512695312 99.0771484375 c 0
 304.393554688 46.7841796875 246.999023438 3.4189453125 197.256835938 -16.98828125 c 0
 167.921875 -29.7421875 139.862304688 -32.29296875 115.62890625 -25.916015625 c 0
 88.8447265625 -18.263671875 68.4375 0.8681640625 54.408203125 31.478515625 c 0
 40.3779296875 64.6396484375 34.0009765625 111.831054688 36.5517578125 176.877929688 c 0
 39.1025390625 235.548828125 49.3056640625 300.595703125 64.611328125 361.81640625 c 0
 78.640625 420.486328125 99.0478515625 475.330078125 122.005859375 517.419921875 c 0
 211.286132812 675.57421875 308.219726562 650.065429688 424.284179688 620.73046875 c 0
 461.271484375 611.801757812 500.810546875 601.598632812 541.624023438 597.772460938 c 2
 554.37890625 597.772460938 l 2
 595.192382812 601.598632812 634.731445312 611.801757812 671.71875 620.73046875 c 0
 787.783203125 651.340820312 884.716796875 675.57421875 973.997070312 518.6953125 c 0
 996.955078125 476.60546875 1016.08691406 421.76171875 1031.39160156 363.091796875 c 0
 1046.69726562 301.87109375 1056.90039062 236.82421875 1059.45117188 178.154296875 c 0x93fc
998.23046875 50.6103515625 m 0
 1009.70996094 77.39453125 1014.81152344 116.932617188 1012.26074219 175.602539062 c 0
 1009.70996094 231.721679688 999.505859375 292.943359375 985.4765625 351.61328125 c 0
 971.446289062 407.732421875 953.590820312 457.474609375 931.908203125 495.737304688 c 0
 861.758789062 622.005859375 780.130859375 600.323242188 683.198242188 576.08984375 c 0
 643.659179688 565.88671875 602.845703125 555.682617188 556.9296875 551.856445312 c 0
 555.654296875 551.856445312 555.654296875 551.856445312 554.37890625 551.856445312 c 2
 540.348632812 551.856445312 l 2
 539.073242188 551.856445312 539.073242188 551.856445312 537.797851562 551.856445312 c 0
 493.158203125 555.682617188 452.34375 565.88671875 412.805664062 576.08984375 c 0
 315.872070312 601.598632812 234.244140625 622.005859375 164.095703125 495.737304688 c 0
 142.413085938 457.474609375 124.556640625 406.45703125 110.52734375 351.61328125 c 0
 95.2216796875 292.943359375 86.2939453125 230.446289062 83.7431640625 175.602539062 c 0
 81.1923828125 116.932617188 86.2939453125 77.39453125 96.4970703125 53.1611328125 c 0
 104.149414062 35.3046875 114.353515625 25.1015625 127.107421875 21.275390625 c 0
 141.137695312 16.173828125 158.993164062 20 179.400390625 27.65234375 c 0
 222.765625 44.2333984375 275.05859375 85.046875 327.3515625 133.513671875 c 0
 377.092773438 179.4296875 462.546875 203.662109375 548.001953125 203.662109375 c 0
 633.456054688 203.662109375 718.91015625 179.4296875 767.376953125 130.962890625 c 0
 818.39453125 82.49609375 870.686523438 42.9580078125 915.327148438 25.1015625 c 0
 935.734375 17.44921875 953.590820312 14.8984375 967.620117188 18.724609375 c 0
 980.374023438 22.55078125 990.578125 32.75390625 998.23046875 50.6103515625 c 0
430.661132812 426.864257812 m 0
 443.416015625 414.109375 452.34375 394.977539062 452.34375 374.571289062 c 0
 452.34375 354.1640625 444.69140625 336.307617188 430.661132812 322.278320312 c 0
 419.182617188 309.5234375 402.6015625 301.87109375 384.74609375 300.595703125 c 1
 383.470703125 282.739257812 374.541992188 267.434570312 363.063476562 254.6796875 c 0
 350.30859375 241.92578125 331.177734375 232.998046875 310.770507812 232.998046875 c 0
 290.36328125 232.998046875 272.5078125 240.650390625 258.477539062 254.6796875 c 0
 245.723632812 266.159179688 238.0703125 282.739257812 236.794921875 300.595703125 c 1
 217.6640625 301.87109375 202.358398438 309.5234375 189.603515625 322.278320312 c 0
 176.849609375 335.032226562 167.921875 354.1640625 167.921875 374.571289062 c 0
 167.921875 394.977539062 175.57421875 412.833984375 189.603515625 426.864257812 c 2
 190.879882812 428.139648438 l 2
 203.633789062 439.618164062 218.939453125 447.270507812 236.794921875 448.545898438 c 1
 238.0703125 466.40234375 246.999023438 482.983398438 258.477539062 494.461914062 c 0
 271.231445312 507.216796875 290.36328125 516.14453125 310.770507812 516.14453125 c 0xd7fc
 331.177734375 516.14453125 349.033203125 508.4921875 363.063476562 494.461914062 c 2
 364.338867188 493.186523438 l 2
 375.817382812 481.708007812 383.470703125 465.126953125 384.74609375 448.545898438 c 1
 402.6015625 447.270507812 417.907226562 438.342773438 430.661132812 426.864257812 c 0
398.775390625 355.439453125 m 0
 403.876953125 360.541015625 406.427734375 366.91796875 406.427734375 374.571289062 c 0
 406.427734375 382.223632812 403.876953125 388.600585938 398.775390625 393.702148438 c 0
 393.673828125 398.8046875 387.296875 401.35546875 379.643554688 401.35546875 c 2
 361.788085938 401.35546875 l 2
 347.7578125 401.35546875 337.5546875 412.833984375 337.5546875 425.588867188 c 2
 337.5546875 443.444335938 l 2
 337.5546875 449.821289062 335.00390625 456.19921875 331.177734375 461.30078125 c 0
 329.90234375 462.576171875 329.90234375 462.576171875 329.90234375 462.576171875 c 2
 324.799804688 467.677734375 318.422851562 470.228515625 310.770507812 470.228515625 c 0
 303.118164062 470.228515625 296.740234375 467.677734375 291.638671875 462.576171875 c 0
 286.537109375 457.474609375 283.986328125 451.09765625 283.986328125 443.444335938 c 2
 283.986328125 425.588867188 l 2
 283.986328125 411.55859375 272.5078125 401.35546875 259.752929688 401.35546875 c 2
 241.896484375 401.35546875 l 2
 235.51953125 401.35546875 229.142578125 398.8046875 224.041015625 394.977539062 c 0
 222.765625 393.702148438 222.765625 393.702148438 222.765625 393.702148438 c 2
 217.6640625 388.600585938 215.112304688 382.223632812 215.112304688 374.571289062 c 0
 215.112304688 366.91796875 218.939453125 360.541015625 222.765625 356.71484375 c 0
 227.8671875 351.61328125 234.244140625 349.0625 241.896484375 349.0625 c 2
 259.752929688 349.0625 l 2
 273.783203125 349.0625 283.986328125 337.583007812 283.986328125 324.829101562 c 2
 283.986328125 306.97265625 l 2
 283.986328125 299.3203125 286.537109375 292.943359375 291.638671875 287.841796875 c 0
 296.740234375 282.739257812 303.118164062 280.188476562 310.770507812 280.188476562 c 0
 318.422851562 280.188476562 324.799804688 282.739257812 329.90234375 287.841796875 c 0
 335.00390625 292.943359375 337.5546875 299.3203125 337.5546875 306.97265625 c 2
 337.5546875 323.553710938 l 2
 337.5546875 337.583007812 349.033203125 347.787109375 361.788085938 347.787109375 c 2
 379.643554688 347.787109375 l 2
 387.296875 347.787109375 393.673828125 350.337890625 398.775390625 355.439453125 c 0
725.287109375 465.126953125 m 0
 725.287109375 489.78125 745.2734375 509.767578125 769.927734375 509.767578125 c 0
 794.58203125 509.767578125 814.567382812 489.78125 814.567382812 465.126953125 c 0
 814.567382812 440.47265625 794.58203125 420.486328125 769.927734375 420.486328125 c 0x9bfc
 745.2734375 420.486328125 725.287109375 440.47265625 725.287109375 465.126953125 c 0
725.287109375 284.014648438 m 0
 725.287109375 308.668945312 745.2734375 328.655273438 769.927734375 328.655273438 c 0
 794.58203125 328.655273438 814.567382812 308.668945312 814.567382812 284.014648438 c 0
 814.567382812 259.361328125 794.58203125 239.375 769.927734375 239.375 c 0xb3fc
 745.2734375 239.375 725.287109375 259.361328125 725.287109375 284.014648438 c 0
634.731445312 374.571289062 m 0
 634.731445312 399.225585938 654.717773438 419.2109375 679.37109375 419.2109375 c 0
 704.025390625 419.2109375 724.01171875 399.225585938 724.01171875 374.571289062 c 0
 724.01171875 349.916992188 704.025390625 329.930664062 679.37109375 329.930664062 c 0
 654.717773438 329.930664062 634.731445312 349.916992188 634.731445312 374.571289062 c 0
815.842773438 374.571289062 m 0
 815.842773438 399.225585938 835.829101562 419.2109375 860.483398438 419.2109375 c 0
 885.137695312 419.2109375 905.124023438 399.225585938 905.124023438 374.571289062 c 0
 905.124023438 349.916992188 885.137695312 329.930664062 860.483398438 329.930664062 c 0
 835.829101562 329.930664062 815.842773438 349.916992188 815.842773438 374.571289062 c 0
EndSplineSet
Validated: 33
EndChar

StartChar: uniF2F0
Encoding: 62192 62192 109
Width: 713
VWidth: 0
Flags: W
LayerCount: 2
Fore
SplineSet
680 295 m 1
 687.4375 209.990234375 l 1
 633.855461215 161.194330684 594.55081225 96.5755173669 544.400390625 112.389648438 c 2
 536.40625 106.934570312 520.73046875 115.939453125 513.2578125 122.209960938 c 0
 513.256835938 122.209960938 513.255859375 122.2109375 513.255859375 122.2109375 c 2
 447.88671875 177.061523438 l 1
 393.036132812 111.693359375 l 2
 377.897460938 93.6513671875 350.966796875 91.294921875 332.92578125 106.43359375 c 2
 255.071289062 171.76171875 l 1
 178.045898438 105.298828125 l 2
 173.680664062 103.401367188 164.779296875 100.979492188 160.517578125 102.763671875 c 2
 108.908093185 95.2992881823 65.5431227057 169.316146648 16.9013671875 207.666992188 c 1
 17 292 l 1
 152 173 l 5
 245.331054688 260.54296875 l 2
 255.719956918 270.287585334 278.573242188 263.435546875 289.723632812 254.080078125 c 2
 355.091796875 199.229492188 l 1
 409.943359375 264.598632812 l 2
 425.08203125 282.639648438 452.682201936 285.733226996 470.053710938 269.857421875 c 2
 564 184 l 1
 680 295 l 1
EndSplineSet
Validated: 37
EndChar

StartChar: uniF3E2
Encoding: 62434 62434 110
Width: 1024
VWidth: 0
HStem: 259.58 94.7598<229.74 576>
LayerCount: 2
Fore
SplineSet
996.219726562 406.200195312 m 1
 936.219726562 307 l 1
 996.219726562 207.740234375 l 1
 890.620117188 -175.5 l 1
 496.459960938 -72.7802734375 l 1
 437.98046875 27.2197265625 l 1
 319.639648438 26.3603515625 l 1
 31.080078125 307 l 1
 319.599609375 587.580078125 l 1
 438 586.719726562 l 1
 496.400390625 686.83984375 l 1
 890.620117188 789.559570312 l 1
 996.219726562 406.200195312 l 1
447.540039062 570.599609375 m 1
 229.740234375 354.33984375 l 1
 576 354.33984375 l 1
 749.099609375 645.98046875 l 1
 447.540039062 570.599609375 l 1
447.540039062 43.33984375 m 1
 749.099609375 -32.0400390625 l 1
 576 259.580078125 l 1
 229.740234375 259.580078125 l 1
 447.540039062 43.33984375 l 1
833.540039062 15.33984375 m 1
 917.120117188 307 l 1
 833.5 598.6796875 l 1
 660.33984375 307 l 1
 833.540039062 15.33984375 l 1
EndSplineSet
Validated: 1
EndChar

StartChar: uniF3E3
Encoding: 62435 62435 111
Width: 1042
VWidth: 0
Flags: W
HStem: 0.0400391 21G<161.188 167.393>
VStem: 40.96 122.88<232.48 368.28> 737.28 245.76<-46.9083 661.911>
LayerCount: 2
Fore
SplineSet
725.919921875 777.799804688 m 0
 733.876953125 778.079101562 741.869140625 776.55078125 749.16015625 773.120117188 c 2
 749.200195312 773.200195312 l 1
 749.200195312 773.200195312 949.40625 669.763671875 955.959960938 665.3203125 c 0
 972.916992188 653.892578125 983.040039062 634.87890625 983.040039062 614.440429688 c 2
 983.040039062 0.0400390625 l 2
 983.040039062 -21.9345703125 971.1875 -42.4033203125 952.080078125 -53.3603515625 c 0
 946.017578125 -56.8212890625 781.372070312 -142.081054688 748.440429688 -159.120117188 c 2
 748.400390625 -159.040039062 l 2
 741.887695312 -162.030273438 734.678710938 -163.799804688 727.040039062 -163.799804688 c 0
 718.41796875 -163.799804688 710.094726562 -161.515625 702.639648438 -157.440429688 c 1
 723.079101562 -147.465820312 737.280273438 -126.649414062 737.280273438 -102.360351562 c 2
 737.280273438 716.83984375 l 2
 737.280273438 717.987304688 737.048828125 720.33984375 736.6796875 722.919921875 c 0
 734.529296875 744.423828125 721.454101562 762.544921875 702.919921875 771.719726562 c 1
 710.026367188 775.447265625 717.963867188 777.520507812 725.919921875 777.799804688 c 0
675.83984375 737.3203125 m 0
 681.080078125 737.3203125 686.31640625 735.32421875 690.3203125 731.3203125 c 0
 694.313476562 727.326171875 696.3203125 722.083007812 696.3203125 716.83984375 c 2
 696.3203125 436.3203125 l 1
 567.799804688 328.080078125 l 1
 414.3203125 453.639648438 l 1
 544.122070312 599.478515625 661.360351562 731.3203125 661.360351562 731.3203125 c 2
 665.353515625 735.32421875 670.599609375 737.3203125 675.83984375 737.3203125 c 0
163.83984375 593.959960938 m 0
 174.018554688 593.959960938 183.823242188 590.16015625 191.360351562 583.3203125 c 0
 195.250976562 580.166015625 696.3203125 170.639648438 696.3203125 170.639648438 c 1
 696.3203125 -102.360351562 l 2
 696.3203125 -107.602539062 694.2734375 -112.846679688 690.280273438 -116.83984375 c 0
 686.286132812 -120.833984375 681.04296875 -122.83984375 675.799804688 -122.83984375 c 0
 670.556640625 -122.83984375 665.353515625 -120.833984375 661.360351562 -116.83984375 c 0
 653.92578125 -109.40625 76.240234375 519.879882812 76.240234375 519.879882812 c 2
 73.2705078125 522.97265625 64.880859375 532.51953125 51.2001953125 532.51953125 c 2
 51.16015625 532.51953125 l 2
 49.5419921875 532.51953125 47.99609375 532.286132812 46.4404296875 532.040039062 c 1
 50.26953125 538.67578125 55.7216796875 544.4140625 62.48046875 548.080078125 c 2
 62.48046875 548.080078125 113.4765625 574.861328125 128.120117188 581.639648438 c 0
 154.703125 593.948242188 160.645507812 593.959960938 163.83984375 593.959960938 c 0
45.0400390625 491.559570312 m 0
 46.166015625 491.559570312 47.22265625 491.09765625 47.9599609375 490.360351562 c 2
 163.83984375 368.280273438 l 1
 163.83984375 232.48046875 l 1
 47.83984375 103.719726562 l 2
 47.123046875 102.920898438 46.1064453125 102.400390625 44.9599609375 102.400390625 c 0
 42.748046875 102.400390625 40.9599609375 104.208984375 40.9599609375 106.400390625 c 2
 40.9599609375 487.440429688 l 2
 40.9599609375 489.712890625 42.787109375 491.559570312 45.0400390625 491.559570312 c 0
250.959960938 270.080078125 m 1
 358.959960938 152.3203125 l 1
 358.959960938 152.3203125 184.750976562 5.74609375 184.280273438 5.48046875 c 0
 177.971679688 1.8759765625 170.946289062 0.0400390625 163.83984375 0.0400390625 c 0
 158.536132812 0.0400390625 153.39453125 1.0146484375 148.51953125 2.9599609375 c 0
 140.778320312 6.1142578125 81.9775390625 35.98828125 64.16015625 45.0400390625 c 2
 64.240234375 45.16015625 l 2
 56.7236328125 48.8056640625 50.6572265625 54.7314453125 46.51953125 61.919921875 c 1
 48.0556640625 61.673828125 49.6025390625 61.48046875 51.2001953125 61.48046875 c 0
 59.69921875 61.48046875 67.3701171875 64.8896484375 72.919921875 70.4404296875 c 0
 74.9267578125 72.447265625 250.959960938 270.080078125 250.959960938 270.080078125 c 1
EndSplineSet
Validated: 1
EndChar

StartChar: uniF335
Encoding: 62261 62261 112
Width: 1024
VWidth: 0
HStem: -109 32<161.953 495.375 527.375 606.375 638.375 862.047> 131.438 32<416 495.375 638.375 719.312> 242.688 32<416 495.438 638.375 732.312> 344.5 32<643.598 740.438> 467 32<594.942 740.438> 563 64<176 208 256 288 336 368 416 448 496 528 576 608 656 688 736 768 816 848> 691 32<161.953 862.047>
VStem: 96 32<-43.0466 657.047> 176 32<563.005 626.995> 256 32<563.005 626.995> 336 32<563.005 626.995> 384 32<163.438 242.688> 416 32<563.005 626.995> 495.375 32<-77 131.438 274.688 394.104 563.021 626.979> 576 32<563.005 626.995> 606.375 32<-77 131.438 274.688 338.927> 656 32<563.005 626.995> 740.438 32<376.5 464.262 563.721 626.279> 816 32<563.005 626.995> 896 32<-43.0466 657.047>
LayerCount: 2
Fore
SplineSet
208 723 m 2xffe4f0
 816 723 l 2
 877.75 723 928 672.75 928 611 c 2
 928 3 l 2
 928 -58.75 877.75 -109 816 -109 c 2
 208 -109 l 2
 146.25 -109 96 -58.75 96 3 c 2
 96 611 l 2
 96 672.75 146.25 723 208 723 c 2xffe4f0
208 691 m 2
 163.8125 691 128 655.1875 128 611 c 2
 128 3 l 2
 128 -41.1875 163.8125 -77 208 -77 c 2
 495.375 -77 l 1
 495.375 131.4375 l 1
 400 131.4375 l 2
 391.1875 131.4375 384 138.5625 384 147.4375 c 2
 384 258.6875 l 2
 384 267.5 391.1875 274.6875 400 274.6875 c 2
 495.4375 274.6875 l 1
 495.4375 318.4375 l 2
 495.4375 428.125 561.9375 499 664.9375 499 c 0
 687.0625 499 734.25 494.625 758.0625 492.25 c 0
 766.25 491.4375 772.4375 484.625 772.4375 476.375 c 2
 772.4375 360.5 l 2
 772.4375 351.625 765.25 344.5 756.4375 344.5 c 2
 682 344.5 l 2
 644.6875 344.5 638.375 330.9375 638.375 300.5625 c 2
 638.375 274.6875 l 1
 751.125 274.6875 l 2
 761 274.6875 768.5 265.8125 766.9375 256.0625 c 2
 748.75 144.8125 l 2
 747.4375 137.0625 740.75 131.4375 732.9375 131.4375 c 2
 638.375 131.4375 l 1
 638.375 -77 l 1xfff5f0
 816 -77 l 2
 860.1875 -77 896 -41.1875 896 3 c 2
 896 611 l 2
 896 655.1875 860.1875 691 816 691 c 2
 208 691 l 2
192 627 m 0
 200.875 627 208 619.8125 208 611 c 2
 208 579 l 2
 208 570.1875 200.875 563 192 563 c 0
 183.125 563 176 570.1875 176 579 c 2
 176 611 l 2
 176 619.8125 183.125 627 192 627 c 0
272 627 m 0
 280.875 627 288 619.8125 288 611 c 2
 288 579 l 2
 288 570.1875 280.875 563 272 563 c 0
 263.125 563 256 570.1875 256 579 c 2
 256 611 l 2
 256 619.8125 263.125 627 272 627 c 0
352 627 m 0
 360.875 627 368 619.8125 368 611 c 2
 368 579 l 2
 368 570.1875 360.875 563 352 563 c 0
 343.125 563 336 570.1875 336 579 c 2
 336 611 l 2
 336 619.8125 343.125 627 352 627 c 0
432 627 m 0
 440.875 627 448 619.8125 448 611 c 2
 448 579 l 2
 448 570.1875 440.875 563 432 563 c 0
 423.125 563 416 570.1875 416 579 c 2
 416 611 l 2xffecf0
 416 619.8125 423.125 627 432 627 c 0
512 627 m 0
 520.875 627 528 619.8125 528 611 c 2
 528 579 l 2
 528 570.1875 520.875 563 512 563 c 0
 503.125 563 496 570.1875 496 579 c 2
 496 611 l 2
 496 619.8125 503.125 627 512 627 c 0
592 627 m 0
 600.875 627 608 619.8125 608 611 c 2
 608 579 l 2
 608 570.1875 600.875 563 592 563 c 0
 583.125 563 576 570.1875 576 579 c 2
 576 611 l 2xffe6f0
 576 619.8125 583.125 627 592 627 c 0
672 627 m 0
 680.875 627 688 619.8125 688 611 c 2
 688 579 l 2
 688 570.1875 680.875 563 672 563 c 0
 663.125 563 656 570.1875 656 579 c 2
 656 611 l 2
 656 619.8125 663.125 627 672 627 c 0
752 627 m 0
 760.875 627 768 619.8125 768 611 c 2
 768 579 l 2
 768 570.1875 760.875 563 752 563 c 0
 743.125 563 736 570.1875 736 579 c 2
 736 611 l 2
 736 619.8125 743.125 627 752 627 c 0
832 627 m 0
 840.875 627 848 619.8125 848 611 c 2
 848 579 l 2
 848 570.1875 840.875 563 832 563 c 0
 823.125 563 816 570.1875 816 579 c 2
 816 611 l 2
 816 619.8125 823.125 627 832 627 c 0
664.9375 467 m 0
 578.8125 467 527.4375 411.4375 527.4375 318.4375 c 2
 527.4375 242.6875 l 1
 416 242.6875 l 1
 416 163.4375 l 1
 527.375 163.4375 l 1
 527.375 -77 l 1
 606.375 -77 l 1
 606.375 163.4375 l 1xfff5f0
 719.3125 163.4375 l 1
 732.3125 242.6875 l 1
 606.4375 242.6875 l 1
 606.4375 300.5625 l 2
 606.4375 333.1875 614.25 376.5 682.0625 376.5 c 2
 740.4375 376.5 l 1
 740.4375 462.6875 l 2
 714.75 465.5625 689.4375 467 664.9375 467 c 0
EndSplineSet
Validated: 1
EndChar

StartChar: uniF336
Encoding: 62262 62262 113
Width: 1024
VWidth: 0
HStem: -109 32<161.953 862.047> 19 28.0625<337.452 516.39> 194.125 27.3125<340.904 378.576> 388.812 26<720.665 743.57> 458.188 28.0625<582.865 680.991> 563 64<176 208 256 288 336 368 416 448 496 528 576 608 656 688 736 768 816 848> 691 32<161.953 862.047>
VStem: 96 32<-43.0466 657.047> 176 32<563.005 626.995> 256 32<563.005 626.995> 264.75 77.5625<296.647 329.046> 265.625 28.0625<346.749 425.797> 336 32<563.005 626.995> 416 32<563.005 626.995> 496 32<563.005 626.995> 506.312 28.0625<351.612 409.724> 576 32<563.005 626.995> 656 32<563.005 626.995> 728.5 28<258.125 367.603> 736 32<563.005 626.995> 816 32<563.005 626.995> 896 32<-43.0466 657.047>
LayerCount: 2
Fore
SplineSet
208 723 m 2xff84cc
 816 723 l 2
 877.75 723 928 672.75 928 611 c 2
 928 3 l 2
 928 -58.75 877.75 -109 816 -109 c 2
 208 -109 l 2
 146.25 -109 96 -58.75 96 3 c 2
 96 611 l 2
 96 672.75 146.25 723 208 723 c 2xff84cc
208 691 m 2
 163.875 691 128 655.125 128 611 c 2
 128 3 l 2
 128 -41.125 163.875 -77 208 -77 c 2
 816 -77 l 2
 860.125 -77 896 -41.125 896 3 c 2
 896 611 l 2
 896 655.125 860.125 691 816 691 c 2
 208 691 l 2
192 627 m 0
 200.8125 627 208 619.875 208 611 c 2
 208 579 l 2
 208 570.125 200.8125 563 192 563 c 0
 183.1875 563 176 570.125 176 579 c 2
 176 611 l 2
 176 619.875 183.1875 627 192 627 c 0
272 627 m 0
 280.8125 627 288 619.875 288 611 c 2
 288 579 l 2
 288 570.125 280.8125 563 272 563 c 0
 263.1875 563 256 570.125 256 579 c 2
 256 611 l 2xffc4cc
 256 619.875 263.1875 627 272 627 c 0
352 627 m 0
 360.8125 627 368 619.875 368 611 c 2
 368 579 l 2
 368 570.125 360.8125 563 352 563 c 0
 343.1875 563 336 570.125 336 579 c 2
 336 611 l 2xff8ccc
 336 619.875 343.1875 627 352 627 c 0
432 627 m 0
 440.8125 627 448 619.875 448 611 c 2
 448 579 l 2
 448 570.125 440.8125 563 432 563 c 0
 423.1875 563 416 570.125 416 579 c 2
 416 611 l 2
 416 619.875 423.1875 627 432 627 c 0
512 627 m 0
 520.8125 627 528 619.875 528 611 c 2
 528 579 l 2
 528 570.125 520.8125 563 512 563 c 0
 503.1875 563 496 570.125 496 579 c 2
 496 611 l 2xff86cc
 496 619.875 503.1875 627 512 627 c 0
592 627 m 0
 600.8125 627 608 619.875 608 611 c 2
 608 579 l 2
 608 570.125 600.8125 563 592 563 c 0
 583.1875 563 576 570.125 576 579 c 2
 576 611 l 2
 576 619.875 583.1875 627 592 627 c 0
672 627 m 0
 680.8125 627 688 619.875 688 611 c 2
 688 579 l 2
 688 570.125 680.8125 563 672 563 c 0
 663.1875 563 656 570.125 656 579 c 2
 656 611 l 2
 656 619.875 663.1875 627 672 627 c 0
752 627 m 0
 760.8125 627 768 619.875 768 611 c 2
 768 579 l 2
 768 570.125 760.8125 563 752 563 c 0
 743.1875 563 736 570.125 736 579 c 2
 736 611 l 2xff84dc
 736 619.875 743.1875 627 752 627 c 0
832 627 m 0
 840.8125 627 848 619.875 848 611 c 2
 848 579 l 2
 848 570.125 840.8125 563 832 563 c 0
 823.1875 563 816 570.125 816 579 c 2
 816 611 l 2
 816 619.875 823.1875 627 832 627 c 0
631.25 486.25 m 0
 662.9375 486.25 693.625 474.125 716.6875 452.5625 c 0
 737.375 457.4375 757.125 465.3125 775.4375 476.25 c 0
 780.4375 479.1875 786.75 478.75 791.3125 475.125 c 0
 795.875 471.5 797.6875 465.4375 795.9375 459.875 c 0
 792.375 448.75 787.25 438.1875 780.8125 428.5625 c 1
 784.5625 430 788.1875 431.5 791.8125 433.0625 c 0
 797.5 435.625 804.25 434.0625 808.25 429.25 c 0
 812.3125 424.5 812.6875 417.625 809.1875 412.5 c 0
 794.6875 390.75 776.9375 371.75 756.4375 356 c 0
 756.5 353.5 756.5 351 756.5 348.5 c 0
 756.5 268.5625 725.625 187.6875 671.75 126.5625 c 0
 628.5 77.5 550.9375 19 427 19 c 0
 363.9375 19 302.5625 37 249.5 71.0625 c 0
 244 74.625 241.625 81.4375 243.8125 87.625 c 0
 246.0625 93.8125 252.1875 97.625 258.75 96.8125 c 0
 266.6875 95.875 275 95.375 283.5 95.375 c 0
 319.25 95.375 353.5 104.1875 384.0625 121 c 1
 346.8125 133.3125 316.6875 162.75 304.25 201.5 c 0
 302.75 206.1875 303.875 211.375 307.125 215.0625 c 0
 308.5 216.625 310.125 217.8125 312 218.625 c 1
 283 241.75 264.75 277.375 264.75 316.4375 c 2
 264.75 318 l 2xffa5ec
 264.8125 322.9375 267.5 327.5 271.75 329.9375 c 0
 275.5625 332.125 280.0625 332.4375 284.0625 330.75 c 1
 272.1875 350.1875 265.625 372.75 265.625 396.25 c 0
 265.625 418.3125 271.5 440 282.5625 459 c 0
 284.875 463 289 465.625 293.5625 466 c 0
 298.1875 466.3125 302.6875 464.375 305.5625 460.8125 c 0
 355.75 399.1875 428.3125 360 506.6875 351.5 c 1
 506.4375 354.75 506.3125 358.0625 506.3125 361.375 c 0xff95cc
 506.3125 430.25 562.375 486.25 631.25 486.25 c 0
631.25 458.1875 m 0
 577.8125 458.1875 534.375 414.75 534.375 361.3125 c 0
 534.375 353.875 535.25 346.4375 536.9375 339.25 c 0
 537.875 334.9375 536.8125 330.4375 534 327.0625 c 0
 531.125 323.6875 527.0625 321.8125 522.5 322.0625 c 0
 437.0625 326.375 356.625 364 298.4375 426.25 c 1
 295.3125 416.625 293.6875 406.4375 293.6875 396.1875 c 0xff95ec
 293.6875 363.75 309.8125 333.625 336.75 315.5625 c 0
 342 312.0625 344.25 305.5625 342.3125 299.625 c 0
 340.4375 293.6875 334.8125 289.4375 328.5 289.9375 c 0
 317.25 290.25 306 292.125 295.25 295.5 c 1
 303.5625 258.375 332.6875 229.0625 370.4375 221.4375 c 0
 376.8125 220.1875 381.5 214.625 381.75 208.125 c 0
 381.9375 201.625 377.6875 195.8125 371.375 194.125 c 0
 361.1875 191.375 350.75 189.9375 340.1875 189.75 c 1
 357.125 161.625 387.5625 143.4375 421.5 142.8125 c 0
 427.375 142.6875 432.625 138.875 434.5 133.25 c 0
 436.375 127.5625 434.5 121.375 429.8125 117.75 c 0
 395.75 91 356.125 74.5 313.75 69.1875 c 1
 349.5625 54.625 387.9375 47.0625 427 47.0625 c 0
 575.1875 47.0625 728.5 159.8125 728.5 348.5 c 0
 728.5 353.125 728.3125 357.6875 728.125 362.25 c 0
 727.9375 367 730.125 371.5 733.9375 374.25 c 0
 741.5625 379.75 748.75 385.6875 755.5625 392.125 c 1
 748.9375 390.75 742.25 389.6875 735.5 388.8125 c 0
 728.9375 388.0625 722.6875 392 720.5625 398.25 c 0
 718.4375 404.5 720.9375 411.4375 726.625 414.8125 c 0
 734.8125 419.75 742.1875 425.75 748.5 432.6875 c 1
 737.5625 428.8125 726.375 425.6875 714.9375 423.4375 c 0
 710.125 422.5 705.25 424.0625 701.9375 427.5625 c 0
 683.6875 447.0625 657.9375 458.1875 631.25 458.1875 c 0
EndSplineSet
Validated: 1
EndChar

StartChar: uniF337
Encoding: 62263 62263 114
Width: 1024
VWidth: 0
HStem: -13 32<80 944> 51 64<96 127.976 176 207.976 256 287.976 336 367.976 416 447.976 496 527.976 576 607.976 656 687.976 736 767.976 816 847.976 896 927.976> 627 32<64 960>
VStem: 32 32<35 451 502 627> 96 32<51 115> 176 32<51 115> 256 32<51 115> 336 32<51 115> 416 32<51 115> 496 32<51 115> 576 32<51 115> 656 32<51 115> 736 32<51 115> 816 32<51 115> 896 32<51 115> 960 32<35 451 504 627>
LayerCount: 2
Back
SplineSet
147 -410 m 1
 -749 -410 l 1
 -770.333007812 -407.333007812 -781 -396.666992188 -781 -378 c 1
 -781 230 l 1
 -781 251.333984375 -770.333007812 262.000976562 -749 262 c 1
 147 262 l 1
 168.333007812 262 179 251.333007812 179 230 c 1
 179 -378 l 1
 179 -399.333007812 168.333007812 -410 147 -410 c 1
EndSplineSet
Fore
SplineSet
896 107 m 1
 896 111 894 115 903 115 c 0
 920 115 l 0
 930 115 928 112.333007812 928 107 c 1
 928 61 l 1
 928 54 928 51 923 51 c 0
 903 51 l 0
 895 51 896.333007812 53.6669921875 896 61 c 1
 896 107 l 1
816 107 m 1
 816 111 814 115 823 115 c 0
 840 115 l 0
 850 115 848 112.333007812 848 107 c 1
 848 61 l 1
 848 54 848 51 843 51 c 0
 823 51 l 0
 815 51 816.333007812 53.6669921875 816 61 c 1
 816 107 l 1
736 107 m 1
 736 111 734 115 743 115 c 0
 760 115 l 0
 770 115 768 112.333007812 768 107 c 1
 768 61 l 1
 768 54 768 51 763 51 c 0
 743 51 l 0
 735 51 736.333007812 53.6669921875 736 61 c 1
 736 107 l 1
656 107 m 1
 656 111 654 115 663 115 c 0
 680 115 l 0
 690 115 688 112.333007812 688 107 c 1
 688 61 l 1
 688 54 688 51 683 51 c 0
 663 51 l 0
 655 51 656.333007812 53.6669921875 656 61 c 1
 656 107 l 1
576 107 m 1
 576 111 574 115 583 115 c 0
 600 115 l 0
 610 115 608 112.333007812 608 107 c 1
 608 61 l 1
 608 54 608 51 603 51 c 0
 583 51 l 0
 575 51 576.333007812 53.6669921875 576 61 c 1
 576 107 l 1
496 107 m 1
 496 111 494 115 503 115 c 0
 520 115 l 0
 530 115 528 112.333007812 528 107 c 1
 528 61 l 1
 528 54 528 51 523 51 c 0
 503 51 l 0
 495 51 496.333007812 53.6669921875 496 61 c 1
 496 107 l 1
416 107 m 1
 416 111 414 115 423 115 c 0
 440 115 l 0
 450 115 448 112.333007812 448 107 c 1
 448 61 l 1
 448 54 448 51 443 51 c 0
 423 51 l 0
 415 51 416.333007812 53.6669921875 416 61 c 1
 416 107 l 1
336 107 m 1
 336 111 334 115 343 115 c 0
 360 115 l 0
 370 115 368 112.333007812 368 107 c 1
 368 61 l 1
 368 54 368 51 363 51 c 0
 343 51 l 0
 335 51 336.333007812 53.6669921875 336 61 c 1
 336 107 l 1
256 107 m 1
 256 111 254 115 263 115 c 0
 280 115 l 0
 290 115 288 112.333007812 288 107 c 1
 288 61 l 1
 288 54 288 51 283 51 c 0
 263 51 l 0
 255 51 256.333007812 53.6669921875 256 61 c 1
 256 107 l 1
64 659 m 1
 960 659 l 17
 981.334068491 658.99999879 992.000735201 648.333332101 992 627 c 1
 992 20 l 17
 992.679805681 -4.14067907654 979.608922774 -12.8107766429 959 -13 c 1
 64 -13 l 25
 32 19 l 1
 32 627 l 17
 31.9999826912 648.3333333 42.666649363 659.000000014 64 659 c 1
176 107 m 1
 176 111 174 115 183 115 c 0
 200 115 l 0
 210 115 208 112.333007812 208 107 c 1
 208 61 l 1
 208 54 208 51 203 51 c 0
 183 51 l 0
 175 51 176.333007812 53.6669921875 176 61 c 1
 176 107 l 1
96 107 m 1
 96 111 94 115 103 115 c 0
 120 115 l 0
 130 115 128.000017312 112.333333337 128 107 c 1
 128 61 l 1
 128 54 128 51 123 51 c 0
 103 51 l 0
 95 51 96.3333160253 53.6674030531 96 61 c 1
 96 107 l 1
64 451 m 1
 64 35 l 1
 80 19 l 1
 944 19 l 1
 960 35 l 1
 960 451 l 1
 544 228 l 1
 522.666992188 218.423828125 501.333007812 216.2890625 480 228 c 1
 64 451 l 1
80 627 m 1
 69.3333333301 626.99998268 64.0000000414 621.666649374 64 611 c 1
 64 502 l 1
 480 275 l 1
 504.504678036 260.728948828 524.78367426 265.473465839 544 275 c 1
 960 504 l 1
 960 611 l 1
 959.999999976 621.666666265 954.666666691 626.999999588 944 627 c 1
 80 627 l 1
EndSplineSet
Validated: 33
EndChar

